<?xml version="1.0" encoding="UTF-8"?>
<!DOCTYPE svg PUBLIC "-//W3C//DTD SVG 1.1//EN" "http://www.w3.org/Graphics/SVG/1.1/DTD/svg11.dtd">
<!-- Creator: CorelDRAW X7 -->
<svg xmlns="http://www.w3.org/2000/svg" xml:space="preserve" width="215.9mm" height="500mm" version="1.1" style="shape-rendering:geometricPrecision; text-rendering:geometricPrecision; image-rendering:optimizeQuality; fill-rule:evenodd; clip-rule:evenodd"
viewBox="0 0 21590 50000"
 xmlns:xlink="http://www.w3.org/1999/xlink">
 <defs>
  <style type="text/css">
   <![CDATA[
    .fil5 {fill:#FEFEFE}
    .fil18 {fill:#D2D3D5}
    .fil3 {fill:#373435}
    .fil13 {fill:#FEFEFE;fill-rule:nonzero}
    .fil12 {fill:#373435;fill-rule:nonzero}
    .fil14 {fill:#373435;fill-rule:nonzero}
    .fil11 {fill:url(#id0)}
    .fil0 {fill:url(#id1)}
    .fil1 {fill:url(#id2)}
    .fil8 {fill:url(#id3)}
    .fil6 {fill:url(#id4)}
    .fil7 {fill:url(#id5)}
    .fil4 {fill:url(#id6)}
    .fil16 {fill:url(#id7)}
    .fil15 {fill:url(#id8)}
    .fil10 {fill:url(#id9)}
    .fil9 {fill:url(#id10)}
    .fil2 {fill:url(#id11)}
    .fil17 {fill:url(#id12)}
   ]]>
  </style>
  <linearGradient id="id0" gradientUnits="userSpaceOnUse" x1="16082.7" y1="18153.5" x2="21303.3" y2="18153.5">
   <stop offset="0" style="stop-opacity:1; stop-color:#00AFEF"/>
   <stop offset="1" style="stop-opacity:1; stop-color:#3E4095"/>
  </linearGradient>
  <linearGradient id="id1" gradientUnits="objectBoundingBox" xlink:href="#id0" x1="0%" y1="55.544%" x2="127.354%" y2="55.544%">
  </linearGradient>
  <linearGradient id="id2" gradientUnits="objectBoundingBox" xlink:href="#id0" x1="0%" y1="55.544%" x2="127.354%" y2="55.544%">
  </linearGradient>
  <linearGradient id="id3" gradientUnits="userSpaceOnUse" xlink:href="#id0" x1="10859.1" y1="18175.4" x2="15410.3" y2="18175.4">
  </linearGradient>
  <linearGradient id="id4" gradientUnits="userSpaceOnUse" xlink:href="#id0" x1="2896.52" y1="3688.47" x2="7447.69" y2="3688.47">
  </linearGradient>
  <linearGradient id="id5" gradientUnits="userSpaceOnUse" xlink:href="#id0" x1="79.95" y1="18175.4" x2="4631.12" y2="18175.4">
  </linearGradient>
  <linearGradient id="id6" gradientUnits="userSpaceOnUse" xlink:href="#id0" x1="2337.03" y1="24546.6" x2="5131.47" y2="24546.6">
  </linearGradient>
  <linearGradient id="id7" gradientUnits="userSpaceOnUse" xlink:href="#id0" x1="5270.53" y1="13471.6" x2="8945.27" y2="13471.6">
  </linearGradient>
  <linearGradient id="id8" gradientUnits="userSpaceOnUse" xlink:href="#id0" x1="5270.53" y1="9550.04" x2="8945.26" y2="9550.04">
  </linearGradient>
  <linearGradient id="id9" gradientUnits="userSpaceOnUse" xlink:href="#id0" x1="5408.69" y1="18175.4" x2="9959.88" y2="18175.4">
  </linearGradient>
  <linearGradient id="id10" gradientUnits="userSpaceOnUse" xlink:href="#id0" x1="13818.5" y1="3688.47" x2="18369.7" y2="3688.47">
  </linearGradient>
  <linearGradient id="id11" gradientUnits="userSpaceOnUse" xlink:href="#id0" x1="5396.33" y1="17050.3" x2="10127.8" y2="19256.7">
  </linearGradient>
  <linearGradient id="id12" gradientUnits="userSpaceOnUse" xlink:href="#id0" x1="7670.01" y1="24804.5" x2="11344.8" y2="24804.5">
  </linearGradient>
 </defs>
 <g id="Capa_x0020_1">
  <metadata id="CorelCorpID_0Corel-Layer"/>
  <path class="fil0" d="M1680 22319l3945 0c181,0 329,148 329,329l0 3944c0,181 -148,329 -329,329l-3945 0c-180,0 -328,-148 -328,-329l0 -3944c0,-181 148,-329 328,-329z"/>
  <path class="fil1" d="M15322 27480l3945 0c181,0 329,148 329,329l0 3944c0,181 -148,329 -329,329l-3945 0c-181,0 -329,-148 -329,-329l0 -3944c0,-181 148,-329 329,-329z"/>
  <path class="fil2" d="M6133 16195l3023 0c138,0 252,113 252,251l0 3024c0,138 -114,251 -252,251l-3023 0c-139,0 -252,-113 -252,-251l0 -3024c0,-138 113,-251 252,-251z"/>
  <path class="fil3" d="M15322 34965l3945 0c181,0 329,148 329,328l0 3945c0,181 -148,329 -329,329l-3945 0c-181,0 -329,-148 -329,-329l0 -3945c0,-180 148,-328 329,-328z"/>
  <path class="fil0" d="M6973 22319l12162 0c272,0 493,222 493,493l0 3616c0,271 -221,493 -493,493l-12162 0c-271,0 -493,-222 -493,-493l0 -3616c0,-271 222,-493 493,-493z"/>
  <path class="fil1" d="M1943 27480l12163 0c271,0 493,222 493,493l0 3616c0,271 -222,493 -493,493l-12163 0c-271,0 -493,-222 -493,-493l0 -3616c0,-271 222,-493 493,-493z"/>
  <path class="fil4" d="M4208 23723c-263,-233 -653,-293 -988,-118 -443,233 -620,792 -395,1249l0 0 0 1c228,476 806,661 1262,422 441,-231 628,-773 440,-1235 70,-83 120,-206 64,-293 -73,-115 -282,-90 -383,-26l0 0z"/>
  <path class="fil3" d="M10947 36070c-264,-234 -654,-294 -988,-118 -444,233 -621,792 -396,1249l0 0 1 1c227,475 806,661 1261,422 441,-232 628,-773 440,-1236 71,-83 120,-205 65,-292 -73,-115 -283,-90 -383,-26l0 0z"/>
  <path class="fil5" d="M17850 28884c-263,-234 -654,-293 -988,-118 -443,233 -620,792 -395,1249l-1 0 1 1c228,475 806,661 1262,422 440,-232 628,-773 439,-1235 71,-83 120,-206 65,-293 -73,-115 -282,-90 -383,-26l0 0zm324 64c-48,-74 -215,-50 -286,-4l-215 137 -438 -229c-14,-7 -34,-9 -47,0l-138 88c-12,7 -28,28 -2,50l319 286 -203 128 -162 -62c-10,-4 -23,-2 -32,4l-108 69c-10,6 -8,15 0,23l226 201 87 290c3,10 11,17 21,10l108 -69c9,-5 16,-16 16,-27l13 -174 202 -128 124 409c10,33 35,27 47,20l138 -88c13,-9 20,-27 19,-42l-21 -494 215 -137c71,-45 164,-186 117,-261zm-441 11c-129,-100 -287,-157 -449,-161l-17 -9c-36,-19 -82,-19 -117,3l-30 19c-69,14 -138,37 -203,72 -380,199 -526,687 -327,1089 197,398 668,562 1057,371l1 2c-417,206 -916,38 -1123,-381 -211,-426 -41,-951 380,-1172 313,-164 676,-114 934,99l-106 68zm-406 -139c142,6 281,56 398,144l-56 35 -342 -179zm-353 188c-310,166 -430,566 -267,896 162,327 550,471 871,298l3 7c-347,172 -758,34 -931,-316 -178,-360 -33,-804 325,-992 9,-5 18,-9 27,-14 -39,31 -48,80 -28,121zm115 114c-14,6 -28,12 -42,19 -88,46 -156,117 -201,199l-22 15c-42,27 -50,76 -27,114 -27,117 -15,245 42,362 123,247 429,372 674,240l1 2c-285,137 -612,41 -750,-238 -137,-278 -26,-623 249,-781l76 68zm186 850c58,3 117,-8 172,-35l0 1c-66,33 -134,50 -198,51l26 -17zm-347 -380c-1,60 13,121 41,179 30,61 75,109 128,143l10 35c2,7 5,14 8,20 -89,-32 -165,-98 -215,-199 -39,-79 -54,-164 -47,-246l75 68zm297 -349c-39,5 -77,16 -113,35 -11,6 -21,12 -31,19l-54 -21c-22,-8 -48,-9 -70,-1 36,-42 81,-79 134,-107 10,-5 21,-10 32,-15l102 90z"/>
  <path class="fil5" d="M17850 36369c-263,-234 -654,-294 -988,-118 -443,233 -620,792 -395,1249l-1 0 1 1c228,475 806,661 1262,422 440,-232 628,-773 439,-1236 71,-82 120,-205 65,-292 -73,-115 -282,-90 -383,-26l0 0zm324 64c-48,-74 -215,-50 -286,-5l-215 137 -438 -228c-14,-7 -34,-9 -47,-1l-138 88c-12,8 -28,28 -2,51l319 285 -203 129 -162 -62c-10,-4 -23,-2 -32,4l-108 68c-10,7 -8,16 0,24l226 201 87 289c3,11 11,17 21,11l108 -69c9,-6 16,-16 16,-27l13 -174 202 -129 124 410c10,33 35,27 47,19l138 -88c13,-8 20,-26 19,-42l-21 -494 215 -136c71,-46 164,-186 117,-261zm-441 10c-129,-99 -287,-156 -449,-160l-17 -9c-36,-19 -82,-19 -117,3l-30 19c-69,13 -138,37 -203,72 -380,199 -526,687 -327,1089 197,398 668,562 1057,370l1 2c-417,206 -916,39 -1123,-381 -211,-426 -41,-950 380,-1171 313,-164 676,-114 934,99l-106 67zm-406 -138c142,6 281,56 398,143l-56 36 -342 -179zm-353 188c-310,166 -430,566 -267,896 162,327 550,471 871,298l3 6c-347,172 -758,35 -931,-316 -178,-360 -33,-804 325,-991 9,-5 18,-10 27,-14 -39,31 -48,80 -28,121zm115 114c-14,5 -28,12 -42,19 -88,46 -156,116 -201,199l-22 15c-42,26 -50,76 -27,114 -27,117 -15,245 42,362 123,247 429,372 674,239l1 3c-285,136 -612,41 -750,-238 -137,-278 -26,-623 249,-782l76 69zm186 850c58,3 117,-8 172,-35l0 1c-66,33 -134,49 -198,51l26 -17zm-347 -381c-1,61 13,122 41,180 30,60 75,109 128,143l10 35c2,7 5,13 8,20 -89,-32 -165,-99 -215,-200 -39,-79 -54,-164 -47,-245l75 67zm297 -348c-39,5 -77,16 -113,35 -11,6 -21,12 -31,19l-54 -21c-22,-9 -48,-9 -70,-2 36,-42 81,-78 134,-106 10,-5 21,-11 32,-15l102 90z"/>
  <path class="fil3" d="M5887 36094c-263,-233 -653,-293 -988,-117 -443,233 -620,791 -395,1249l0 0 0 1c228,475 806,661 1262,421 441,-231 628,-772 440,-1235 70,-83 120,-206 65,-292 -74,-115 -283,-90 -383,-27l-1 0zm324 65c-48,-75 -215,-50 -285,-5l-216 137 -438 -229c-14,-7 -33,-8 -46,0l-139 88c-12,8 -27,28 -2,51l319 285 -202 129 -163 -62c-10,-4 -23,-3 -32,3l-108 69c-10,6 -8,16 1,23l225 202 87 289c3,11 11,17 21,11l108 -69c9,-6 16,-17 17,-27l12 -174 203 -129 123 410c10,32 35,27 47,19l138 -88c13,-8 20,-27 20,-42l-22 -494 215 -137c71,-45 164,-186 117,-260zm-441 10c-129,-100 -287,-156 -449,-161l-16 -8c-36,-19 -82,-20 -117,2l-30 20c-70,13 -138,37 -204,71 -379,199 -525,687 -326,1090 196,398 667,562 1056,370l1 2c-416,206 -916,38 -1123,-381 -211,-426 -40,-950 380,-1171 313,-165 676,-115 934,99l-106 67zm-406 -138c143,5 281,55 399,143l-56 35 -343 -178zm-353 188c-310,165 -430,565 -266,895 161,328 550,472 870,298l3 7c-347,172 -758,35 -931,-316 -178,-360 -32,-804 325,-992 9,-5 18,-9 27,-13 -38,31 -48,79 -28,121zm115 113c-14,6 -28,13 -42,20 -87,46 -155,116 -200,199l-23 14c-42,27 -50,77 -26,115 -28,116 -16,245 42,361 122,248 429,373 673,240l1 3c-285,136 -612,40 -749,-238 -138,-279 -27,-623 248,-782l76 68zm187 851c57,2 116,-9 171,-35l1 1c-67,32 -135,49 -199,51l27 -17zm-348 -381c0,60 13,122 42,180 29,60 74,108 127,143l10 34c2,8 5,14 9,20 -90,-31 -166,-98 -216,-199 -39,-79 -54,-164 -47,-246l75 68zm297 -348c-38,4 -77,16 -113,35 -11,5 -21,12 -31,18l-54 -20c-22,-9 -47,-9 -70,-2 36,-42 81,-78 134,-106 11,-6 22,-11 33,-16l101 91z"/>
  <path class="fil6" d="M4925 2932c-62,8 -124,27 -183,58 -18,9 -35,19 -51,30l-88 -34c-36,-14 -77,-14 -114,-3 59,-68 132,-127 218,-172 18,-10 36,-18 54,-26l164 147zm-482 568c-1,98 20,198 67,293 48,98 121,176 207,232l17 57c3,11 8,22 14,32 -146,-51 -270,-160 -352,-324 -63,-129 -88,-267 -76,-400l123 110zm565 620c94,4 190,-14 279,-58l1 3c-109,53 -218,80 -323,82l43 -27zm-303 -1385c-23,9 -46,20 -69,31 -142,75 -253,190 -326,325l-37 23c-68,44 -81,125 -43,187 -45,190 -26,398 68,588 199,404 698,607 1097,391l2 4c-465,222 -997,66 -1221,-387 -224,-454 -43,-1015 404,-1274l125 112zm-188 -185c-505,269 -700,921 -434,1458 264,534 896,768 1418,486l5 11c-565,280 -1234,56 -1517,-515 -290,-586 -52,-1310 530,-1615 14,-8 29,-15 44,-22 -63,50 -79,129 -46,197zm575 -306c232,9 457,90 649,233l-91 58 -558 -291zm661 225c-210,-162 -467,-255 -731,-262l-27 -14c-58,-31 -134,-31 -190,4l-49 32c-113,22 -225,60 -332,116 -618,325 -856,1119 -532,1775 321,648 1087,915 1721,603l2 3c-679,336 -1492,63 -1830,-621 -343,-693 -65,-1547 620,-1907 509,-268 1101,-186 1521,161l-173 110zm191 -122c-428,-380 -1065,-477 -1609,-191 -722,379 -1010,1289 -644,2034l0 0 1 1c370,774 1312,1077 2055,687 717,-377 1023,-1258 716,-2012 115,-135 195,-335 105,-476 -119,-187 -460,-147 -624,-43l0 0zm527 105c-77,-121 -349,-81 -465,-8l-350 223 -714 -372c-22,-12 -54,-14 -75,0l-226 143c-19,12 -45,45 -4,82l520 465 -330 210 -265 -102c-16,-6 -37,-3 -51,6l-177 112c-16,11 -12,26 2,39l366 328 142 471c6,17 18,27 34,17l176 -112c15,-9 26,-27 28,-45l20 -283 330 -209 201 667c16,53 56,44 76,31l225 -143c21,-13 33,-43 32,-68l-35 -805 350 -223c116,-73 267,-303 190,-424z"/>
  <path class="fil7" d="M2109 17419c-63,8 -125,26 -184,57 -17,10 -34,20 -50,30l-88 -33c-36,-14 -77,-14 -114,-3 58,-68 131,-127 218,-173 17,-9 35,-17 53,-25l165 147zm-483 568c-1,98 21,198 67,293 49,97 121,176 207,232l17 57c4,11 8,22 14,32 -146,-51 -270,-160 -351,-324 -64,-129 -88,-267 -77,-400l123 110zm566 620c93,4 189,-14 279,-58l1 3c-109,52 -219,80 -324,82l44 -27zm-304 -1385c-23,9 -46,20 -68,31 -143,75 -254,190 -327,325l-37 23c-68,44 -81,125 -43,187 -44,190 -25,398 68,588 200,403 699,607 1097,391l2 4c-464,222 -997,66 -1221,-387 -224,-454 -43,-1015 405,-1274l124 112zm-187 -186c-506,270 -700,922 -435,1459 264,534 897,768 1418,486l5 11c-565,280 -1234,56 -1516,-515 -290,-586 -53,-1310 529,-1616 15,-7 30,-14 44,-21 -63,50 -78,129 -45,196zm575 -306c231,10 457,91 648,234l-91 58 -557 -292zm661 226c-210,-163 -468,-255 -732,-262l-26 -14c-59,-31 -134,-32 -191,4l-49 31c-113,22 -225,61 -332,117 -617,325 -855,1119 -531,1775 320,648 1087,915 1721,603l2 3c-679,336 -1492,63 -1830,-621 -343,-693 -66,-1547 619,-1907 510,-268 1101,-186 1521,161l-172 110zm191 -122c-429,-380 -1065,-478 -1610,-192 -722,380 -1010,1290 -644,2035l0 0 1 1c371,774 1313,1077 2055,687 718,-377 1023,-1258 716,-2012 115,-135 195,-335 106,-476 -120,-187 -461,-147 -624,-43l0 0zm526 105c-77,-122 -349,-81 -464,-8l-351 223 -714 -372c-22,-12 -54,-14 -75,-1l-225 144c-20,12 -45,45 -4,82l519 465 -329 210 -265 -102c-16,-6 -37,-3 -52,6l-176 112c-16,11 -13,26 1,38l367 329 142 471c5,17 17,27 34,17l176 -112c14,-10 26,-27 27,-45l21 -283 329 -209 201 667c16,53 57,44 76,31l226 -143c21,-14 32,-43 31,-68l-35 -805 350 -223c116,-73 268,-303 190,-424z"/>
  <g id="_1901157807920">
   <path class="fil8" d="M13907 16834c-429,-380 -1065,-478 -1609,-192 -723,380 -1010,1290 -644,2035l-1 0 1 1c371,774 1313,1077 2055,687 718,-377 1023,-1258 716,-2012 115,-135 196,-335 106,-476 -120,-187 -461,-147 -624,-43l0 0z"/>
   <path class="fil5" d="M14434 16939c-78,-122 -350,-81 -465,-8l-351 223 -713 -372c-23,-12 -55,-14 -76,-1l-225 144c-20,12 -45,45 -4,82l519 465 -329 210 -265 -102c-16,-6 -37,-3 -52,6l-176 112c-16,11 -12,26 1,38l367 329 142 471c5,17 18,27 34,17l176 -112c15,-10 26,-27 27,-45l21 -283 329 -209 201 667c16,53 57,44 76,31l226 -143c21,-14 32,-43 31,-68l-35 -805 351 -223c115,-73 267,-303 190,-424z"/>
   <path class="fil5" d="M13716 16956c-210,-163 -468,-255 -732,-262l-26 -14c-59,-31 -134,-32 -191,4l-48 31c-114,22 -225,61 -332,117 -618,325 -856,1119 -532,1775 320,648 1087,915 1721,603l2 3c-679,336 -1492,63 -1830,-621 -343,-693 -66,-1547 619,-1907 510,-268 1101,-186 1521,161l-172 110z"/>
   <path class="fil5" d="M13055 16730c231,10 457,91 649,234l-91 58 -558 -292z"/>
   <path class="fil5" d="M12480 17036c-506,270 -700,922 -435,1459 264,534 897,768 1418,486l5 11c-564,280 -1234,56 -1516,-515 -290,-586 -53,-1310 530,-1616 14,-7 29,-14 43,-21 -62,50 -78,129 -45,196z"/>
   <path class="fil5" d="M12667 17222c-23,9 -46,20 -68,31 -143,75 -253,190 -327,325l-37 23c-68,44 -81,125 -43,187 -44,190 -25,398 69,588 199,403 698,607 1096,391l3 4c-465,222 -997,66 -1222,-387 -224,-454 -42,-1015 405,-1274l124 112z"/>
   <path class="fil5" d="M12971 18607c94,4 189,-14 279,-58l1 3c-109,52 -219,80 -324,82l44 -27z"/>
   <path class="fil5" d="M12405 17987c-1,98 21,198 67,293 49,97 121,176 208,232l17 57c3,11 8,22 13,32 -145,-51 -270,-160 -351,-324 -64,-129 -88,-267 -77,-400l123 110z"/>
   <path class="fil5" d="M12888 17419c-62,8 -125,26 -184,57 -17,10 -34,20 -50,30l-88 -33c-36,-14 -77,-14 -114,-3 59,-68 131,-127 218,-173 18,-9 35,-17 53,-25l165 147z"/>
  </g>
  <path class="fil5" d="M4532 23787c-48,-74 -215,-49 -286,-4l-215 137 -438 -229c-14,-7 -33,-9 -46,0l-139 88c-12,7 -27,28 -2,50l319 286 -202 128 -163 -62c-10,-4 -23,-2 -32,4l-108 69c-10,6 -8,16 1,23l225 202 87 289c3,11 11,17 21,10l108 -68c9,-6 16,-17 17,-28l12 -173 203 -129 123 409c10,33 35,27 47,20l138 -88c13,-9 20,-27 20,-42l-22 -494 215 -137c71,-45 164,-186 117,-261z"/>
  <path class="fil5" d="M11270 36134c-47,-75 -214,-50 -285,-5l-215 137 -439 -228c-13,-8 -33,-9 -46,-1l-138 88c-12,8 -28,28 -3,51l319 285 -202 129 -163 -62c-10,-4 -23,-2 -32,3l-108 69c-10,7 -7,16 1,24l225 201 87 289c4,11 11,17 21,11l108 -69c9,-6 16,-17 17,-27l13 -174 202 -129 123 410c10,33 35,27 47,19l139 -88c13,-8 20,-26 19,-42l-22 -494 216 -137c70,-45 164,-186 116,-260z"/>
  <path class="fil5" d="M4091 23798c-129,-100 -287,-157 -449,-161l-16 -9c-36,-18 -83,-19 -117,3l-30 19c-70,14 -138,37 -204,72 -379,199 -526,687 -326,1090 196,398 667,562 1056,370l1 2c-416,206 -916,38 -1123,-381 -211,-426 -40,-951 380,-1172 313,-164 676,-114 934,99l-106 68z"/>
  <path class="fil5" d="M10830 36144c-129,-99 -288,-156 -450,-161l-16 -8c-36,-19 -82,-19 -117,3l-30 19c-69,13 -138,37 -204,71 -379,200 -525,688 -326,1090 197,398 667,562 1056,370l2 2c-417,206 -916,39 -1124,-381 -210,-426 -40,-950 380,-1171 313,-164 676,-114 934,99l-105 67z"/>
  <path class="fil5" d="M3685 23659c142,6 281,56 398,144l-55 35 -343 -179z"/>
  <path class="fil5" d="M10423 36006c143,6 281,56 399,143l-56 36 -343 -179z"/>
  <path class="fil5" d="M3332 23847c-310,166 -430,566 -267,896 162,328 551,471 871,298l3 7c-347,172 -758,34 -931,-316 -178,-360 -32,-804 325,-992 9,-5 18,-9 27,-14 -38,31 -48,80 -28,121z"/>
  <path class="fil5" d="M10071 36194c-311,165 -430,565 -267,895 162,328 550,472 870,299l4 6c-347,172 -758,35 -932,-316 -178,-360 -32,-804 326,-992 8,-4 17,-9 26,-13 -38,31 -48,80 -27,121z"/>
  <path class="fil5" d="M3447 23961c-14,6 -28,12 -42,19 -87,46 -155,117 -200,200l-23 14c-42,27 -50,76 -26,115 -28,116 -16,244 42,361 122,247 428,373 673,240l1 2c-285,137 -612,41 -749,-237 -138,-279 -27,-624 248,-782l76 68z"/>
  <path class="fil5" d="M10186 36308c-15,5 -29,12 -42,19 -88,46 -156,116 -201,199l-23 15c-42,26 -49,76 -26,114 -27,117 -16,245 42,361 122,248 429,373 673,240l2 3c-286,136 -612,41 -750,-238 -138,-279 -26,-623 248,-782l77 69z"/>
  <path class="fil5" d="M3634 24811c57,3 116,-8 171,-35l1 2c-67,32 -135,49 -199,50l27 -17z"/>
  <path class="fil5" d="M10372 37158c57,3 116,-8 171,-35l1 1c-67,33 -134,49 -199,51l27 -17z"/>
  <path class="fil5" d="M3286 24431c0,60 13,122 42,180 29,60 74,108 127,142l10 35c2,7 5,14 9,20 -90,-31 -166,-98 -216,-199 -39,-79 -54,-164 -47,-246l75 68z"/>
  <path class="fil5" d="M10025 36777c-1,60 12,122 41,180 30,60 74,109 127,143l11 35c2,7 5,13 8,19 -90,-31 -166,-98 -216,-199 -39,-79 -54,-164 -47,-245l76 67z"/>
  <g id="_1901157799408">
   <path class="fil9" d="M16866 2347c-428,-380 -1065,-477 -1609,-191 -722,379 -1010,1289 -644,2034l0 0 1 1c370,774 1312,1077 2055,687 717,-377 1023,-1258 716,-2012 114,-135 195,-335 105,-476 -119,-187 -460,-147 -624,-43l0 0z"/>
   <path class="fil5" d="M17393 2452c-77,-121 -349,-81 -465,-8l-350 223 -714 -372c-22,-12 -54,-14 -75,0l-226 143c-19,12 -45,45 -4,82l520 465 -330 210 -265 -102c-16,-6 -37,-3 -51,6l-177 112c-16,11 -12,26 2,39l366 328 142 471c6,17 18,27 34,17l176 -112c15,-9 26,-27 28,-45l20 -283 330 -209 201 667c16,53 56,44 76,31l225 -143c21,-13 33,-43 32,-68l-35 -805 350 -223c116,-73 267,-303 190,-424z"/>
   <path class="fil5" d="M16675 2469c-210,-162 -467,-255 -731,-262l-27 -14c-58,-31 -134,-31 -190,4l-49 32c-113,22 -225,60 -332,116 -618,325 -856,1119 -532,1775 321,648 1087,915 1721,603l2 3c-679,336 -1492,63 -1830,-621 -343,-693 -65,-1547 620,-1907 509,-268 1101,-186 1521,161l-173 110z"/>
   <path class="fil5" d="M16014 2244c232,9 457,90 649,233l-91 58 -558 -291z"/>
   <path class="fil5" d="M15439 2550c-505,269 -700,921 -434,1458 264,534 896,768 1418,486l5 11c-565,280 -1234,56 -1517,-515 -290,-586 -52,-1310 530,-1615 14,-8 29,-15 44,-22 -63,50 -79,129 -46,197z"/>
   <path class="fil5" d="M15627 2735c-23,9 -46,20 -69,31 -142,75 -253,190 -326,325l-37 23c-69,44 -81,125 -43,187 -45,190 -26,398 68,588 199,404 698,607 1097,391l2 4c-465,222 -997,66 -1221,-387 -225,-454 -43,-1015 404,-1274l125 112z"/>
   <path class="fil5" d="M15930 4120c94,4 190,-14 279,-58l1 3c-109,53 -218,80 -323,82l43 -27z"/>
   <path class="fil5" d="M15365 3500c-1,98 20,198 67,293 48,98 121,176 207,232l17 57c3,11 8,22 14,32 -146,-51 -270,-160 -352,-324 -63,-129 -88,-267 -76,-400l123 110z"/>
   <path class="fil5" d="M15847 2932c-62,8 -124,27 -183,58 -18,9 -35,19 -51,30l-88 -34c-36,-14 -77,-14 -114,-3 59,-68 132,-127 218,-172 18,-10 36,-18 54,-26l164 147z"/>
  </g>
  <g id="_1901157796560">
   <path class="fil10" d="M8456 16834c-428,-380 -1064,-478 -1609,-192 -722,380 -1010,1290 -644,2035l0 0 1 1c371,774 1312,1077 2055,687 718,-377 1023,-1258 716,-2012 115,-135 195,-335 105,-476 -119,-187 -460,-147 -623,-43l-1 0z"/>
   <path class="fil5" d="M8983 16939c-77,-122 -349,-81 -465,-8l-350 223 -714 -372c-22,-12 -54,-14 -75,-1l-226 144c-19,12 -45,45 -3,82l519 465 -329 210 -266 -102c-16,-6 -37,-3 -51,6l-176 112c-17,11 -13,26 1,38l366 329 142 471c6,17 18,27 34,17l177 -112c14,-10 26,-27 27,-45l20 -283 330 -209 201 667c16,53 56,44 76,31l225 -143c22,-14 33,-43 32,-68l-35 -805 350 -223c116,-73 267,-303 190,-424z"/>
   <path class="fil5" d="M8266 16956c-210,-163 -468,-255 -732,-262l-27 -14c-58,-31 -134,-32 -190,4l-49 31c-113,22 -225,61 -332,117 -618,325 -856,1119 -531,1775 320,648 1087,915 1720,603l2 3c-678,336 -1492,63 -1829,-621 -343,-693 -66,-1547 619,-1907 509,-268 1101,-186 1521,161l-172 110z"/>
   <path class="fil5" d="M7604 16730c232,10 457,91 649,234l-91 58 -558 -292z"/>
   <path class="fil5" d="M7030 17036c-506,270 -701,922 -435,1459 264,534 896,768 1418,486l5 11c-565,280 -1234,56 -1516,-515 -290,-586 -53,-1310 529,-1616 15,-7 29,-14 44,-21 -63,50 -78,129 -45,196z"/>
   <path class="fil5" d="M7217 17222c-23,9 -46,20 -68,31 -143,75 -254,190 -327,325l-37 23c-68,44 -81,125 -43,187 -45,190 -26,398 68,588 200,403 699,607 1097,391l2 4c-465,222 -997,66 -1221,-387 -224,-454 -43,-1015 404,-1274l125 112z"/>
   <path class="fil5" d="M7520 18607c94,4 190,-14 279,-58l2 3c-109,52 -219,80 -324,82l43 -27z"/>
   <path class="fil5" d="M6955 17987c-1,98 20,198 67,293 48,97 121,176 207,232l17 57c4,11 8,22 14,32 -146,-51 -270,-160 -351,-324 -64,-129 -89,-267 -77,-400l123 110z"/>
   <path class="fil5" d="M7438 17419c-63,8 -125,26 -184,57 -18,10 -34,20 -50,30l-88 -33c-37,-14 -78,-14 -114,-3 58,-68 131,-127 218,-173 17,-9 35,-17 53,-25l165 147z"/>
  </g>
  <g id="_1901157795344">
   <path class="fil11" d="M17064 16195l3023 0c138,0 252,113 252,251l0 3024c0,138 -114,251 -252,251l-3023 0c-139,0 -252,-113 -252,-251l0 -3024c0,-138 113,-251 252,-251z"/>
   <path class="fil5" d="M19311 16937c-391,-347 -972,-436 -1469,-175 -658,346 -921,1176 -587,1856l0 0 1 1c338,706 1197,982 1874,627 655,-344 934,-1148 653,-1836 105,-123 179,-305 97,-434 -109,-171 -420,-134 -569,-39l0 0zm480 95c-70,-110 -318,-74 -424,-6l-320 203 -651 -340c-20,-10 -49,-12 -69,0l-205 131c-18,11 -41,41 -4,75l474 424 -300 191 -242 -92c-15,-6 -34,-3 -47,5l-161 102c-15,10 -11,24 1,35l335 299 129 430c5,16 16,25 31,16l161 -102c13,-9 23,-25 25,-41l18 -258 301 -191 183 608c15,49 52,40 70,29l205 -131c20,-12 30,-39 29,-62l-32 -734 320 -204c105,-67 244,-276 173,-387zm-654 16c-192,-148 -427,-232 -668,-239l-24 -13c-54,-28 -122,-29 -174,4l-45 29c-103,20 -205,55 -302,106 -564,296 -781,1021 -485,1619 292,592 991,835 1570,550l2 3c-620,306 -1362,57 -1670,-566 -313,-633 -60,-1412 565,-1740 465,-244 1004,-170 1388,147l-157 100zm-604 -206c212,9 417,83 592,213l-83 53 -509 -266zm-524 279c-461,247 -639,841 -397,1331 241,487 818,701 1294,443l5 10c-516,256 -1126,51 -1384,-469 -264,-535 -48,-1195 483,-1474 14,-7 27,-14 40,-20 -57,46 -71,118 -41,179zm171 169c-21,9 -42,19 -63,29 -130,69 -231,173 -298,296l-33 22c-63,39 -74,113 -39,170 -41,173 -24,363 62,537 182,368 637,553 1000,356l2 4c-424,203 -909,60 -1114,-353 -204,-414 -39,-927 369,-1162l114 101zm277 1264c85,4 172,-12 254,-52l1 2c-99,48 -199,73 -295,75l40 -25zm-516 -566c-1,90 18,181 61,268 44,89 110,161 189,212l16 51c3,11 7,21 12,30 -133,-47 -246,-146 -320,-296 -59,-118 -81,-244 -71,-365l113 100zm440 -517c-57,7 -114,24 -168,52 -15,8 -31,17 -45,27l-81 -30c-33,-13 -70,-13 -104,-3 54,-62 120,-116 199,-157 16,-9 33,-17 49,-24l150 135z"/>
  </g>
  <path class="fil5" d="M3583 24082c-39,5 -77,16 -113,35 -11,6 -21,12 -31,19l-54 -21c-22,-8 -47,-8 -70,-1 36,-42 81,-79 134,-106 11,-6 22,-11 33,-16l101 90z"/>
  <path class="fil5" d="M10321 36429c-38,5 -76,16 -113,35 -10,6 -21,12 -31,18l-54 -20c-22,-9 -47,-9 -70,-2 36,-42 81,-78 134,-106 11,-6 22,-11 33,-16l101 91z"/>
  <path class="fil12" d="M2461 5887l1 2c1,62 -18,110 -56,145 -38,35 -90,53 -157,53 -68,0 -123,-23 -165,-67 -42,-45 -63,-103 -63,-173l0 -115c0,-71 21,-129 62,-174 41,-44 94,-67 160,-67 70,0 124,17 163,52 39,34 57,83 57,145l-1 3 -111 0c0,-37 -9,-65 -26,-83 -18,-18 -45,-27 -82,-27 -34,0 -60,14 -79,41 -20,28 -29,65 -29,109l0 116c0,44 10,80 30,109 20,28 48,42 84,42 34,0 60,-9 76,-28 17,-18 26,-46 26,-83l110 0zm3831 40c0,-22 -8,-40 -23,-53 -15,-14 -42,-27 -80,-39 -65,-20 -115,-43 -149,-71 -34,-27 -51,-64 -51,-112 0,-47 19,-86 57,-116 39,-30 87,-45 147,-45 63,0 113,16 151,49 39,32 57,74 56,127l-1 2 -110 0c0,-29 -9,-51 -26,-66 -17,-16 -41,-24 -72,-24 -28,0 -50,7 -65,21 -15,14 -23,31 -23,53 0,20 8,36 25,48 17,13 45,26 86,40 62,18 110,42 143,71 33,29 49,67 49,114 0,50 -19,89 -57,118 -38,28 -88,43 -151,43 -61,0 -113,-16 -157,-47 -44,-31 -65,-77 -64,-139l1 -2 111 0c0,34 9,59 29,76 20,16 47,24 80,24 31,0 54,-7 70,-20 16,-13 24,-30 24,-52zm-3392 -39c0,57 -17,104 -53,141 -35,38 -80,56 -137,56 -56,0 -102,-18 -137,-56 -34,-37 -52,-84 -52,-141l0 -83c0,-56 18,-103 52,-141 35,-37 81,-55 137,-55 56,0 102,18 137,55 35,38 53,85 53,141l0 83zm-91 -83c0,-37 -9,-66 -26,-89 -18,-23 -42,-35 -73,-35 -31,0 -55,12 -72,35 -18,23 -26,52 -26,89l0 83c0,37 9,67 26,90 17,23 41,35 72,35 31,0 56,-12 73,-35 18,-23 26,-53 26,-90l0 -83zm531 83c0,57 -18,104 -53,141 -35,38 -81,56 -137,56 -57,0 -102,-18 -137,-56 -35,-37 -52,-84 -52,-141l0 -83c0,-56 17,-103 52,-141 35,-37 80,-55 136,-55 56,0 102,18 138,55 35,38 53,85 53,141l0 83zm-91 -83c0,-37 -9,-66 -27,-89 -17,-23 -42,-35 -73,-35 -31,0 -55,12 -72,35 -17,23 -26,52 -26,89l0 83c0,37 9,67 26,90 18,23 42,35 73,35 31,0 55,-12 73,-35 17,-23 26,-53 26,-90l0 -83zm254 88l0 185 -91 0 0 -463 157 0c52,0 92,12 121,36 30,24 44,58 44,101 0,24 -6,44 -18,62 -13,17 -31,31 -54,41 26,8 46,22 57,41 12,19 18,42 18,70l0 34c0,13 2,26 5,40 4,14 9,25 18,32l0 6 -94 0c-8,-6 -14,-18 -16,-33 -3,-16 -4,-31 -4,-46l0 -33c0,-23 -6,-41 -18,-54 -13,-12 -30,-19 -53,-19l-72 0zm0 -71l64 0c26,0 45,-6 57,-17 13,-11 19,-27 19,-49 0,-21 -6,-38 -19,-50 -12,-13 -31,-19 -55,-19l-66 0 0 135zm316 256l0 -463 158 0c56,0 101,18 137,54 36,37 54,83 54,140l0 76c0,57 -18,103 -54,139 -36,36 -81,54 -137,54l-158 0zm91 -391l0 320 67 0c30,0 54,-11 73,-34 18,-23 27,-52 27,-88l0 -77c0,-35 -9,-64 -27,-87 -19,-23 -43,-34 -73,-34l-67 0zm429 391l-91 0 0 -463 91 0 0 463zm457 0l-91 0 -183 -312 -2 0 0 312 -91 0 0 -463 91 0 183 312 2 0 0 -312 91 0 0 463zm326 -100l-147 0 -31 100 -95 0 153 -463 93 0 153 463 -95 0 -31 -100zm-125 -72l103 0 -50 -164 -2 0 -51 164zm583 -219l-129 0 0 391 -91 0 0 -391 -128 0 0 -72 348 0 0 72zm310 188l-169 0 0 132 201 0 0 71 -292 0 0 -463 291 0 0 72 -200 0 0 116 169 0 0 72zm956 203l-91 0 0 -192 -185 0 0 192 -91 0 0 -463 91 0 0 199 185 0 0 -199 91 0 0 463zm326 -100l-147 0 -30 100 -96 0 154 -463 93 0 152 463 -95 0 -31 -100zm-124 -72l102 0 -50 -164 -2 0 -50 164zm385 -13l0 185 -91 0 0 -463 157 0c52,0 93,12 122,36 29,24 44,58 44,101 0,24 -7,44 -19,62 -12,17 -30,31 -54,41 27,8 46,22 58,41 11,19 17,42 17,70l0 34c0,13 2,26 6,40 3,14 9,25 17,32l0 6 -94 0c-8,-6 -13,-18 -16,-33 -2,-16 -3,-31 -3,-46l0 -33c0,-23 -7,-41 -19,-54 -12,-12 -30,-19 -53,-19l-72 0zm0 -71l65 0c25,0 44,-6 57,-17 12,-11 18,-27 18,-49 0,-21 -6,-38 -18,-50 -13,-13 -31,-19 -56,-19l-66 0 0 135zm407 88l0 168 -91 0 0 -463 174 0c52,0 93,14 123,41 30,27 45,63 45,107 0,44 -15,80 -45,107 -30,27 -71,40 -123,40l-83 0zm0 -71l83 0c25,0 44,-7 57,-21 14,-14 20,-32 20,-54 0,-23 -6,-41 -19,-55 -13,-15 -33,-22 -58,-22l-83 0 0 152z"/>
  <path class="fil12" d="M13383 5887l1 2c1,62 -18,110 -56,145 -38,35 -90,53 -157,53 -68,0 -123,-23 -165,-67 -42,-45 -63,-103 -63,-173l0 -115c0,-71 21,-129 62,-174 41,-44 94,-67 160,-67 70,0 124,17 163,52 39,34 57,83 56,145l0 3 -111 0c0,-37 -9,-65 -26,-83 -18,-18 -45,-27 -82,-27 -34,0 -60,14 -79,41 -20,28 -29,65 -29,109l0 116c0,44 10,80 30,109 20,28 48,42 84,42 34,0 60,-9 76,-28 17,-18 26,-46 26,-83l110 0zm3831 40c0,-22 -8,-40 -23,-53 -15,-14 -42,-27 -80,-39 -65,-20 -115,-43 -149,-71 -34,-27 -51,-64 -51,-112 0,-47 19,-86 57,-116 39,-30 87,-45 147,-45 63,0 113,16 151,49 39,32 57,74 56,127l-1 2 -110 0c0,-29 -9,-51 -26,-66 -17,-16 -41,-24 -72,-24 -28,0 -50,7 -65,21 -15,14 -23,31 -23,53 0,20 8,36 25,48 17,13 45,26 86,40 62,18 110,42 143,71 33,29 49,67 49,114 0,50 -19,89 -57,118 -38,28 -88,43 -151,43 -61,0 -113,-16 -157,-47 -44,-31 -65,-77 -64,-139l1 -2 110 0c0,34 10,59 30,76 20,16 47,24 80,24 31,0 54,-7 70,-20 16,-13 24,-30 24,-52zm-3392 -39c0,57 -17,104 -53,141 -35,38 -80,56 -137,56 -56,0 -102,-18 -137,-56 -34,-37 -52,-84 -52,-141l0 -83c0,-56 18,-103 52,-141 35,-37 81,-55 137,-55 56,0 102,18 137,55 35,38 53,85 53,141l0 83zm-91 -83c0,-37 -9,-66 -26,-89 -18,-23 -42,-35 -73,-35 -31,0 -55,12 -72,35 -18,23 -26,52 -26,89l0 83c0,37 9,67 26,90 17,23 41,35 72,35 31,0 56,-12 73,-35 18,-23 26,-53 26,-90l0 -83zm531 83c0,57 -18,104 -53,141 -35,38 -81,56 -137,56 -57,0 -102,-18 -137,-56 -35,-37 -52,-84 -52,-141l0 -83c0,-56 17,-103 52,-141 35,-37 80,-55 136,-55 56,0 102,18 138,55 35,38 53,85 53,141l0 83zm-91 -83c0,-37 -9,-66 -27,-89 -17,-23 -42,-35 -73,-35 -31,0 -55,12 -72,35 -17,23 -26,52 -26,89l0 83c0,37 9,67 26,90 18,23 42,35 73,35 31,0 55,-12 73,-35 17,-23 26,-53 26,-90l0 -83zm254 88l0 185 -91 0 0 -463 157 0c52,0 92,12 121,36 30,24 44,58 44,101 0,24 -6,44 -18,62 -13,17 -31,31 -55,41 27,8 47,22 58,41 12,19 18,42 18,70l0 34c0,13 2,26 5,40 4,14 9,25 18,32l0 6 -94 0c-8,-6 -14,-18 -16,-33 -3,-16 -4,-31 -4,-46l0 -33c0,-23 -6,-41 -18,-54 -13,-12 -30,-19 -53,-19l-72 0zm0 -71l64 0c26,0 45,-6 57,-17 13,-11 19,-27 19,-49 0,-21 -6,-38 -19,-50 -12,-13 -31,-19 -55,-19l-66 0 0 135zm316 256l0 -463 158 0c56,0 101,18 137,54 36,37 54,83 54,140l0 76c0,57 -18,103 -54,139 -36,36 -81,54 -137,54l-158 0zm91 -391l0 320 67 0c30,0 54,-11 73,-34 18,-23 27,-52 27,-88l0 -77c0,-35 -9,-64 -27,-87 -19,-23 -43,-34 -73,-34l-67 0zm429 391l-91 0 0 -463 91 0 0 463zm457 0l-91 0 -183 -312 -2 0 0 312 -91 0 0 -463 91 0 183 312 2 0 0 -312 91 0 0 463zm326 -100l-147 0 -31 100 -95 0 153 -463 93 0 153 463 -95 0 -31 -100zm-125 -72l103 0 -50 -164 -2 0 -51 164zm583 -219l-129 0 0 391 -91 0 0 -391 -128 0 0 -72 348 0 0 72zm310 188l-169 0 0 132 201 0 0 71 -292 0 0 -463 291 0 0 72 -200 0 0 116 169 0 0 72zm956 203l-91 0 0 -192 -185 0 0 192 -91 0 0 -463 91 0 0 199 185 0 0 -199 91 0 0 463zm326 -100l-147 0 -31 100 -95 0 154 -463 93 0 152 463 -95 0 -31 -100zm-124 -72l102 0 -50 -164 -2 0 -50 164zm385 -13l0 185 -91 0 0 -463 157 0c52,0 92,12 122,36 29,24 44,58 44,101 0,24 -7,44 -19,62 -12,17 -30,31 -54,41 27,8 46,22 58,41 11,19 17,42 17,70l0 34c0,13 2,26 6,40 3,14 9,25 17,32l0 6 -94 0c-8,-6 -13,-18 -16,-33 -2,-16 -3,-31 -3,-46l0 -33c0,-23 -7,-41 -19,-54 -12,-12 -30,-19 -53,-19l-72 0zm0 -71l65 0c25,0 44,-6 57,-17 12,-11 18,-27 18,-49 0,-21 -6,-38 -18,-50 -13,-13 -31,-19 -56,-19l-66 0 0 135zm407 88l0 168 -91 0 0 -463 174 0c52,0 93,14 123,41 30,27 45,63 45,107 0,44 -15,80 -45,107 -30,27 -71,40 -123,40l-83 0zm0 -71l83 0c25,0 44,-7 57,-21 14,-14 20,-32 20,-54 0,-23 -6,-41 -19,-55 -13,-15 -33,-22 -58,-22l-83 0 0 152z"/>
  <path class="fil13" d="M2070 25896l0 2c1,38 -11,67 -34,89 -23,21 -55,32 -96,32 -42,0 -76,-14 -102,-41 -25,-27 -38,-63 -38,-106l0 -71c0,-43 12,-79 37,-106 25,-28 58,-42 99,-42 42,0 76,11 100,32 24,21 35,51 35,89l-1 2 -68 0c0,-23 -5,-40 -16,-51 -11,-11 -28,-17 -50,-17 -21,0 -37,9 -49,26 -12,17 -18,39 -18,67l0 71c0,27 7,49 19,67 12,17 30,25 52,25 21,0 36,-5 46,-16 11,-11 16,-29 16,-52l68 0zm2352 25c0,-13 -5,-24 -14,-33 -9,-8 -26,-16 -49,-23 -41,-13 -71,-27 -92,-44 -21,-17 -31,-40 -31,-69 0,-29 12,-52 35,-71 24,-18 53,-28 90,-28 38,0 70,10 93,30 24,20 35,46 34,78l0 2 -68 0c0,-18 -5,-32 -16,-41 -10,-10 -25,-14 -44,-14 -17,0 -31,4 -40,12 -10,9 -14,20 -14,33 0,12 5,22 15,29 10,8 28,16 53,25 38,11 67,25 88,43 20,18 30,42 30,71 0,30 -12,54 -35,72 -23,17 -54,26 -93,26 -37,0 -69,-9 -96,-28 -27,-20 -40,-48 -39,-86l0 -1 68 0c0,21 6,36 18,46 12,10 29,15 49,15 19,0 33,-4 43,-12 10,-8 15,-18 15,-32zm-2083 -24c0,35 -11,64 -32,87 -22,23 -50,34 -84,34 -35,0 -63,-11 -84,-34 -22,-23 -32,-52 -32,-87l0 -51c0,-35 10,-63 32,-86 21,-23 49,-34 83,-34 35,0 63,11 85,34 21,23 32,51 32,86l0 51zm-55 -51c0,-22 -6,-40 -17,-55 -11,-14 -26,-21 -45,-21 -19,0 -33,7 -44,21 -10,15 -16,33 -16,55l0 51c0,23 6,41 16,55 11,15 26,22 45,22 19,0 34,-7 44,-22 11,-14 17,-32 17,-55l0 -51zm325 51c0,35 -11,64 -32,87 -22,23 -50,34 -84,34 -35,0 -63,-11 -84,-34 -22,-23 -33,-52 -33,-87l0 -51c0,-35 11,-63 33,-86 21,-23 49,-34 83,-34 35,0 63,11 85,34 21,23 32,51 32,86l0 51zm-56 -51c0,-22 -5,-40 -16,-55 -11,-14 -26,-21 -45,-21 -19,0 -33,7 -44,21 -11,15 -16,33 -16,55l0 51c0,23 5,41 16,55 11,15 25,22 45,22 19,0 34,-7 44,-22 11,-14 16,-32 16,-55l0 -51zm156 54l0 114 -56 0 0 -284 97 0c32,0 57,7 74,22 18,15 27,35 27,62 0,14 -3,27 -11,37 -8,11 -19,20 -33,26 16,5 28,13 35,25 8,11 11,26 11,43l0 21c0,8 1,16 3,25 2,8 6,15 11,19l0 4 -58 0c-5,-4 -8,-11 -9,-21 -2,-9 -3,-19 -3,-28l0 -20c0,-14 -3,-25 -11,-33 -8,-8 -18,-12 -32,-12l-45 0zm0 -44l40 0c16,0 27,-3 35,-10 8,-7 11,-17 11,-30 0,-13 -3,-23 -11,-31 -8,-8 -19,-11 -34,-11l-41 0 0 82zm194 158l0 -284 98 0c34,0 62,11 84,33 22,22 33,51 33,85l0 47c0,35 -11,64 -33,86 -22,22 -50,33 -84,33l-98 0zm56 -240l0 196 42 0c18,0 33,-7 44,-21 11,-14 17,-32 17,-54l0 -47c0,-22 -6,-40 -17,-54 -11,-13 -26,-20 -44,-20l-42 0zm264 240l-56 0 0 -284 56 0 0 284zm280 0l-56 0 -112 -192 -1 0 0 192 -56 0 0 -284 56 0 112 191 1 0 0 -191 56 0 0 284zm200 -61l-90 0 -19 61 -58 0 94 -284 57 0 94 284 -59 0 -19 -61zm-76 -45l63 0 -31 -100 -1 0 -31 100zm358 -134l-80 0 0 240 -56 0 0 -240 -78 0 0 -44 214 0 0 44zm190 115l-103 0 0 81 122 0 0 44 -178 0 0 -284 178 0 0 44 -122 0 0 71 103 0 0 44zm587 125l-56 0 0 -118 -113 0 0 118 -56 0 0 -284 56 0 0 122 113 0 0 -122 56 0 0 284zm200 -61l-90 0 -19 61 -58 0 94 -284 57 0 94 284 -59 0 -19 -61zm-76 -45l63 0 -31 -100 -1 0 -31 100zm236 -8l0 114 -55 0 0 -284 96 0c32,0 57,7 75,22 18,15 27,35 27,62 0,14 -4,27 -12,37 -7,11 -18,20 -33,26 16,5 28,13 36,25 7,11 10,26 10,43l0 21c0,8 1,16 3,25 3,8 6,15 11,19l0 4 -57 0c-5,-4 -9,-11 -10,-21 -2,-9 -2,-19 -2,-28l0 -20c0,-14 -4,-25 -12,-33 -7,-8 -18,-12 -32,-12l-45 0zm0 -44l40 0c16,0 27,-3 35,-10 8,-7 12,-17 12,-30 0,-13 -4,-23 -12,-31 -8,-8 -19,-11 -34,-11l-41 0 0 82zm250 55l0 103 -56 0 0 -284 107 0c32,0 57,8 76,25 18,16 27,38 27,65 0,28 -9,50 -27,66 -19,17 -44,25 -76,25l-51 0zm0 -44l51 0c16,0 28,-4 36,-13 8,-9 12,-20 12,-33 0,-14 -4,-25 -12,-34 -8,-9 -20,-13 -36,-13l-51 0 0 93z"/>
  <path class="fil14" d="M8808 38243l0 1c1,38 -10,68 -34,89 -23,22 -55,33 -96,33 -42,0 -76,-14 -101,-41 -26,-28 -39,-63 -39,-107l0 -70c0,-44 13,-79 38,-107 25,-27 58,-41 98,-41 43,0 76,11 100,32 24,21 35,51 35,89l-1 2 -68 0c0,-23 -5,-40 -16,-51 -11,-12 -27,-17 -50,-17 -21,0 -37,8 -49,26 -11,17 -17,39 -17,66l0 71c0,28 6,50 18,67 13,17 30,26 52,26 21,0 36,-6 47,-17 10,-11 15,-28 15,-51l68 0zm2352 25c0,-14 -4,-25 -14,-33 -9,-8 -26,-16 -49,-24 -40,-12 -71,-27 -92,-43 -20,-17 -31,-40 -31,-69 0,-29 12,-53 35,-71 24,-19 54,-28 90,-28 39,0 70,10 93,30 24,20 35,46 35,78l-1 1 -68 0c0,-17 -5,-31 -16,-41 -10,-9 -25,-14 -44,-14 -17,0 -30,4 -40,13 -9,8 -14,19 -14,32 0,12 5,22 15,30 11,8 28,16 53,25 39,11 68,25 88,43 20,18 30,41 30,70 0,31 -12,55 -35,72 -23,18 -54,27 -92,27 -38,0 -70,-10 -97,-29 -27,-19 -40,-47 -39,-85l1 -2 67 0c0,21 6,37 18,47 13,10 29,15 50,15 18,0 33,-4 42,-12 10,-8 15,-19 15,-32zm-2082 -24c0,35 -11,64 -33,87 -21,22 -49,34 -84,34 -35,0 -62,-12 -84,-35 -21,-22 -32,-51 -32,-86l0 -51c0,-35 11,-64 32,-87 21,-23 49,-34 84,-34 34,0 62,11 84,34 22,23 33,52 33,87l0 51zm-56 -52c0,-22 -6,-40 -16,-54 -11,-14 -26,-21 -45,-21 -19,0 -34,7 -45,21 -10,14 -15,32 -15,54l0 52c0,22 5,41 16,55 10,14 25,21 44,21 19,0 34,-7 45,-21 10,-14 16,-33 16,-55l0 -52zm325 52c0,35 -10,64 -32,87 -21,22 -50,34 -84,34 -35,0 -63,-12 -84,-35 -22,-22 -32,-51 -32,-86l0 -51c0,-35 10,-64 32,-87 21,-23 49,-34 83,-34 35,0 63,11 85,34 22,23 32,52 32,87l0 51zm-55 -52c0,-22 -6,-40 -17,-54 -10,-14 -25,-21 -45,-21 -18,0 -33,7 -44,21 -10,14 -15,32 -15,54l0 52c0,22 5,41 15,55 11,14 26,21 45,21 19,0 34,-7 45,-21 10,-14 16,-33 16,-55l0 -52zm156 55l0 114 -56 0 0 -285 96 0c32,0 57,8 75,22 18,15 27,36 27,62 0,15 -4,27 -12,38 -7,11 -18,19 -33,26 17,5 28,13 36,24 7,12 10,26 10,43l0 21c0,8 2,17 4,25 2,9 5,15 10,19l0 5 -57 0c-5,-5 -9,-12 -10,-21 -2,-10 -2,-19 -2,-28l0 -20c0,-14 -4,-25 -12,-33 -7,-8 -18,-12 -32,-12l-44 0zm0 -44l39 0c16,0 28,-3 35,-10 8,-7 12,-17 12,-30 0,-13 -4,-24 -12,-31 -7,-8 -19,-12 -34,-12l-40 0 0 83zm194 158l0 -285 97 0c34,0 62,11 84,33 22,23 33,51 33,86l0 47c0,35 -11,63 -33,85 -22,22 -50,34 -84,34l-97 0zm56 -241l0 197 41 0c18,0 33,-7 44,-21 12,-14 17,-32 17,-54l0 -47c0,-22 -5,-40 -17,-54 -11,-14 -26,-21 -44,-21l-41 0zm263 241l-56 0 0 -285 56 0 0 285zm281 0l-56 0 -113 -192 -1 0 0 192 -56 0 0 -285 56 0 113 192 1 0 0 -192 56 0 0 285zm200 -62l-91 0 -18 62 -59 0 94 -285 58 0 93 285 -58 0 -19 -62zm-77 -45l63 0 -31 -100 -1 0 -31 100zm358 -134l-79 0 0 241 -56 0 0 -241 -79 0 0 -44 214 0 0 44zm190 116l-103 0 0 81 123 0 0 44 -179 0 0 -285 178 0 0 44 -122 0 0 72 103 0 0 44zm588 125l-56 0 0 -119 -114 0 0 119 -56 0 0 -285 56 0 0 122 114 0 0 -122 56 0 0 285zm200 -62l-91 0 -18 62 -59 0 94 -285 57 0 94 285 -58 0 -19 -62zm-77 -45l63 0 -31 -100 -1 0 -31 100zm237 -7l0 114 -56 0 0 -285 96 0c32,0 57,8 75,22 18,15 27,36 27,62 0,15 -4,27 -11,38 -8,11 -19,19 -34,26 17,5 29,13 36,24 7,12 11,26 11,43l0 21c0,8 1,17 3,25 2,9 6,15 11,19l0 5 -58 0c-5,-5 -8,-12 -10,-21 -1,-10 -2,-19 -2,-28l0 -20c0,-14 -4,-25 -11,-33 -8,-8 -19,-12 -33,-12l-44 0zm0 -44l39 0c16,0 28,-3 36,-10 7,-7 11,-17 11,-30 0,-13 -4,-24 -12,-31 -7,-8 -19,-12 -34,-12l-40 0 0 83zm250 54l0 104 -56 0 0 -285 106 0c33,0 58,8 76,25 19,17 28,39 28,66 0,27 -9,49 -28,66 -18,16 -43,24 -76,24l-50 0zm0 -44l50 0c16,0 28,-4 36,-13 8,-8 12,-19 12,-33 0,-13 -4,-25 -12,-34 -8,-8 -20,-13 -36,-13l-50 0 0 93z"/>
  <path class="fil13" d="M15711 31057l1 2c0,38 -11,67 -34,89 -24,21 -56,32 -97,32 -42,0 -75,-14 -101,-41 -26,-28 -38,-63 -38,-106l0 -71c0,-43 12,-79 37,-106 25,-28 58,-42 99,-42 42,0 75,11 99,32 24,21 36,51 35,89l0 2 -68 0c0,-23 -6,-40 -16,-51 -11,-11 -28,-17 -50,-17 -21,0 -38,9 -49,26 -12,17 -18,39 -18,66l0 72c0,27 6,49 19,66 12,18 29,26 51,26 21,0 37,-5 47,-16 10,-12 16,-29 16,-52l67 0zm2353 25c0,-14 -5,-25 -14,-33 -10,-8 -26,-16 -50,-23 -40,-13 -70,-27 -91,-44 -21,-17 -31,-40 -31,-69 0,-29 11,-53 35,-71 23,-18 53,-28 90,-28 38,0 69,10 93,30 23,20 35,46 34,78l-1 2 -67 0c0,-18 -6,-32 -16,-41 -11,-10 -25,-15 -44,-15 -18,0 -31,5 -40,13 -10,9 -15,19 -15,33 0,12 6,22 16,29 10,8 28,16 53,25 38,11 67,25 87,43 21,18 31,41 31,71 0,30 -12,54 -35,72 -24,17 -55,26 -93,26 -37,0 -70,-10 -96,-29 -27,-19 -40,-47 -40,-85l1 -1 68 0c0,21 6,36 18,46 12,10 28,15 49,15 19,0 33,-4 43,-12 10,-8 15,-19 15,-32zm-2083 -24c0,35 -11,64 -32,87 -22,23 -50,34 -85,34 -34,0 -62,-11 -84,-34 -21,-23 -32,-52 -32,-87l0 -51c0,-35 11,-63 32,-86 22,-23 50,-35 84,-35 35,0 63,12 84,35 22,23 33,51 33,86l0 51zm-56 -51c0,-22 -5,-41 -16,-55 -11,-14 -26,-21 -45,-21 -19,0 -34,7 -44,21 -11,14 -16,33 -16,55l0 51c0,23 5,41 16,55 11,15 25,22 44,22 20,0 34,-7 45,-22 11,-14 16,-32 16,-55l0 -51zm326 51c0,35 -11,64 -32,87 -22,23 -50,34 -85,34 -34,0 -62,-11 -84,-34 -21,-23 -32,-52 -32,-87l0 -51c0,-35 11,-63 32,-86 22,-23 49,-35 84,-35 34,0 63,12 84,35 22,23 33,51 33,86l0 51zm-56 -51c0,-22 -5,-41 -16,-55 -11,-14 -26,-21 -45,-21 -19,0 -34,7 -44,21 -11,14 -16,33 -16,55l0 51c0,23 5,41 16,55 10,15 25,22 44,22 19,0 34,-7 45,-22 11,-14 16,-32 16,-55l0 -51zm156 54l0 114 -56 0 0 -285 97 0c31,0 56,8 74,23 18,14 27,35 27,61 0,15 -4,28 -11,38 -8,11 -19,19 -33,26 16,5 28,13 35,25 7,11 11,26 11,43l0 21c0,8 1,16 3,25 2,8 6,15 11,19l0 4 -58 0c-5,-4 -8,-11 -10,-21 -1,-9 -2,-19 -2,-28l0 -20c0,-14 -4,-25 -11,-33 -8,-8 -19,-12 -33,-12l-44 0zm0 -44l40 0c15,0 27,-3 35,-10 7,-7 11,-17 11,-30 0,-13 -4,-23 -11,-31 -8,-8 -19,-12 -34,-12l-41 0 0 83zm194 158l0 -285 97 0c34,0 63,12 85,34 22,22 33,50 33,85l0 47c0,35 -11,64 -33,86 -22,22 -51,33 -85,33l-97 0zm56 -241l0 197 41 0c19,0 34,-7 45,-21 11,-14 17,-32 17,-54l0 -47c0,-22 -6,-40 -17,-54 -11,-14 -26,-21 -45,-21l-41 0zm263 241l-56 0 0 -285 56 0 0 285zm281 0l-56 0 -112 -192 -1 0 0 192 -56 0 0 -285 56 0 112 192 1 0 0 -192 56 0 0 285zm200 -61l-90 0 -19 61 -58 0 94 -285 57 0 94 285 -59 0 -19 -61zm-76 -45l63 0 -31 -100 -1 0 -31 100zm358 -135l-80 0 0 241 -56 0 0 -241 -78 0 0 -44 214 0 0 44zm190 116l-104 0 0 81 123 0 0 44 -179 0 0 -285 179 0 0 44 -123 0 0 72 104 0 0 44zm587 125l-56 0 0 -118 -113 0 0 118 -56 0 0 -285 56 0 0 123 113 0 0 -123 56 0 0 285zm200 -61l-90 0 -19 61 -58 0 94 -285 57 0 94 285 -59 0 -19 -61zm-76 -45l63 0 -31 -100 -1 0 -31 100zm236 -8l0 114 -56 0 0 -285 97 0c32,0 56,8 74,23 18,14 27,35 27,61 0,15 -3,28 -11,38 -8,11 -19,19 -33,26 16,5 28,13 35,25 7,11 11,26 11,43l0 21c0,8 1,16 3,25 2,8 6,15 11,19l0 4 -58 0c-5,-4 -8,-11 -9,-21 -2,-9 -3,-19 -3,-28l0 -20c0,-14 -3,-25 -11,-33 -8,-8 -18,-12 -32,-12l-45 0zm0 -44l40 0c16,0 27,-3 35,-10 8,-7 11,-17 11,-30 0,-13 -3,-23 -11,-31 -8,-8 -19,-12 -34,-12l-41 0 0 83zm250 55l0 103 -56 0 0 -285 107 0c32,0 57,9 76,25 18,17 27,39 27,66 0,28 -9,49 -27,66 -19,16 -44,25 -76,25l-51 0zm0 -44l51 0c15,0 27,-5 35,-13 8,-9 12,-20 12,-33 0,-14 -4,-25 -12,-34 -8,-9 -19,-14 -35,-14l-51 0 0 94z"/>
  <path class="fil13" d="M15711 38542l1 1c0,38 -11,68 -34,90 -24,21 -56,32 -97,32 -42,0 -75,-14 -101,-41 -26,-28 -38,-63 -38,-107l0 -70c0,-44 12,-79 37,-107 25,-27 58,-41 99,-41 42,0 75,11 99,32 24,21 36,51 35,89l0 2 -68 0c0,-23 -6,-40 -16,-51 -11,-11 -28,-17 -50,-17 -21,0 -38,9 -49,26 -12,17 -18,39 -18,66l0 71c0,28 6,50 19,67 12,17 29,26 51,26 21,0 37,-6 47,-17 10,-11 16,-28 16,-51l67 0zm2353 25c0,-14 -5,-25 -14,-33 -10,-8 -26,-16 -50,-24 -40,-12 -70,-26 -91,-43 -21,-17 -31,-40 -31,-69 0,-29 11,-53 35,-71 23,-19 53,-28 90,-28 38,0 69,10 93,30 23,20 35,46 34,78l-1 1 -67 0c0,-17 -6,-31 -16,-40 -11,-10 -25,-15 -44,-15 -18,0 -31,4 -40,13 -10,8 -15,19 -15,32 0,12 6,22 16,30 10,8 28,16 53,25 38,11 67,25 87,43 21,18 31,41 31,70 0,31 -12,55 -35,72 -24,18 -55,27 -93,27 -37,0 -70,-10 -96,-29 -27,-19 -40,-47 -40,-85l1 -1 68 0c0,21 6,36 18,46 12,10 28,15 49,15 19,0 33,-4 43,-12 10,-8 15,-19 15,-32zm-2083 -24c0,35 -11,64 -32,87 -22,22 -50,34 -85,34 -34,0 -62,-12 -84,-34 -21,-23 -32,-52 -32,-87l0 -51c0,-35 11,-64 32,-87 22,-22 50,-34 84,-34 35,0 63,12 84,34 22,23 33,52 33,87l0 51zm-56 -51c0,-23 -5,-41 -16,-55 -11,-14 -26,-21 -45,-21 -19,0 -34,7 -44,21 -11,14 -16,32 -16,55l0 51c0,23 5,41 16,55 11,14 25,21 44,21 20,0 34,-7 45,-21 11,-14 16,-32 16,-55l0 -51zm326 51c0,35 -11,64 -32,87 -22,22 -50,34 -85,34 -34,0 -62,-12 -84,-34 -21,-23 -32,-52 -32,-87l0 -51c0,-35 11,-64 32,-87 22,-22 49,-34 84,-34 34,0 63,12 84,34 22,23 33,52 33,87l0 51zm-56 -51c0,-23 -5,-41 -16,-55 -11,-14 -26,-21 -45,-21 -19,0 -34,7 -44,21 -11,14 -16,32 -16,55l0 51c0,23 5,41 16,55 10,14 25,21 44,21 19,0 34,-7 45,-21 11,-14 16,-32 16,-55l0 -51zm156 54l0 114 -56 0 0 -285 97 0c31,0 56,8 74,22 18,15 27,36 27,62 0,15 -4,27 -11,38 -8,11 -19,19 -33,26 16,5 28,13 35,24 7,12 11,26 11,43l0 21c0,8 1,17 3,25 2,9 6,15 11,19l0 5 -58 0c-5,-5 -8,-11 -10,-21 -1,-10 -2,-19 -2,-28l0 -20c0,-14 -4,-25 -11,-33 -8,-8 -19,-12 -33,-12l-44 0zm0 -44l40 0c15,0 27,-3 35,-10 7,-7 11,-17 11,-30 0,-13 -4,-24 -11,-31 -8,-8 -19,-12 -34,-12l-41 0 0 83zm194 158l0 -285 97 0c34,0 63,11 85,34 22,22 33,50 33,85l0 47c0,35 -11,63 -33,85 -22,23 -51,34 -85,34l-97 0zm56 -241l0 197 41 0c19,0 34,-7 45,-21 11,-14 17,-32 17,-54l0 -47c0,-22 -6,-40 -17,-54 -11,-14 -26,-21 -45,-21l-41 0zm263 241l-56 0 0 -285 56 0 0 285zm281 0l-56 0 -112 -192 -1 0 0 192 -56 0 0 -285 56 0 112 192 1 0 0 -192 56 0 0 285zm200 -62l-90 0 -19 62 -58 0 94 -285 57 0 94 285 -59 0 -19 -62zm-76 -44l63 0 -31 -101 -1 0 -31 101zm358 -135l-80 0 0 241 -56 0 0 -241 -78 0 0 -44 214 0 0 44zm190 116l-104 0 0 81 123 0 0 44 -179 0 0 -285 179 0 0 44 -123 0 0 72 104 0 0 44zm587 125l-56 0 0 -119 -113 0 0 119 -56 0 0 -285 56 0 0 122 113 0 0 -122 56 0 0 285zm200 -62l-90 0 -19 62 -58 0 94 -285 57 0 94 285 -59 0 -19 -62zm-76 -44l63 0 -31 -101 -1 0 -31 101zm236 -8l0 114 -56 0 0 -285 97 0c32,0 56,8 74,22 18,15 27,36 27,62 0,15 -3,27 -11,38 -8,11 -19,19 -33,26 16,5 28,13 35,24 7,12 11,26 11,43l0 21c0,8 1,17 3,25 2,9 6,15 11,19l0 5 -58 0c-5,-5 -8,-11 -9,-21 -2,-10 -3,-19 -3,-28l0 -20c0,-14 -3,-25 -11,-33 -8,-8 -18,-12 -32,-12l-45 0zm0 -44l40 0c16,0 27,-3 35,-10 8,-7 11,-17 11,-30 0,-13 -3,-24 -11,-31 -8,-8 -19,-12 -34,-12l-41 0 0 83zm250 54l0 104 -56 0 0 -285 107 0c32,0 57,9 76,25 18,17 27,39 27,66 0,27 -9,49 -27,66 -19,16 -44,24 -76,24l-51 0zm0 -43l51 0c15,0 27,-5 35,-13 8,-9 12,-20 12,-33 0,-14 -4,-25 -12,-34 -8,-9 -19,-14 -35,-14l-51 0 0 94z"/>
  <path class="fil14" d="M3749 38268l0 1c1,38 -11,68 -34,89 -23,22 -55,32 -96,32 -42,0 -76,-13 -102,-41 -25,-27 -38,-63 -38,-106l0 -71c0,-43 12,-78 37,-106 26,-28 58,-41 99,-41 43,0 76,10 100,31 24,22 35,51 35,90l-1 1 -68 0c0,-23 -5,-40 -16,-51 -11,-11 -27,-16 -50,-16 -21,0 -37,8 -49,25 -12,18 -17,40 -17,67l0 71c0,27 6,50 18,67 12,17 30,26 52,26 21,0 36,-6 47,-17 10,-11 15,-28 15,-51l68 0zm2352 25c0,-14 -5,-25 -14,-33 -9,-9 -26,-17 -49,-24 -40,-12 -71,-27 -92,-44 -21,-16 -31,-39 -31,-68 0,-29 12,-53 35,-72 24,-18 54,-27 90,-27 39,0 70,10 93,29 24,20 35,46 34,79l0 1 -68 0c0,-18 -5,-31 -16,-41 -10,-9 -25,-14 -44,-14 -17,0 -31,4 -40,13 -9,8 -14,19 -14,32 0,12 5,22 15,30 10,7 28,16 53,24 38,11 68,26 88,44 20,17 30,41 30,70 0,30 -12,54 -35,72 -23,18 -54,26 -92,26 -38,0 -70,-9 -97,-28 -27,-19 -40,-48 -39,-85l0 -2 68 0c0,21 6,37 18,47 12,9 29,14 50,14 18,0 32,-4 42,-12 10,-7 15,-18 15,-31zm-2083 -24c0,35 -10,64 -32,86 -22,23 -50,34 -84,34 -35,0 -63,-11 -84,-34 -22,-23 -32,-51 -32,-86l0 -52c0,-34 10,-63 32,-86 21,-23 49,-34 83,-34 35,0 63,11 85,34 22,23 32,52 32,86l0 52zm-55 -52c0,-22 -6,-40 -17,-54 -11,-15 -25,-22 -45,-22 -19,0 -33,7 -44,22 -10,14 -16,32 -16,54l0 52c0,22 6,41 16,55 11,14 26,21 45,21 19,0 34,-7 45,-21 10,-14 16,-33 16,-55l0 -52zm325 52c0,35 -11,64 -32,86 -22,23 -50,34 -84,34 -35,0 -63,-11 -84,-34 -22,-23 -32,-51 -32,-86l0 -52c0,-34 10,-63 32,-86 21,-23 49,-34 83,-34 35,0 63,11 85,34 21,23 32,52 32,86l0 52zm-56 -52c0,-22 -5,-40 -16,-54 -11,-15 -26,-22 -45,-22 -19,0 -33,7 -44,22 -10,14 -16,32 -16,54l0 52c0,22 6,41 16,55 11,14 26,21 45,21 19,0 34,-7 44,-21 11,-14 16,-33 16,-55l0 -52zm156 55l0 113 -55 0 0 -284 96 0c32,0 57,7 75,22 18,15 27,35 27,62 0,14 -4,27 -12,38 -8,10 -19,19 -33,25 16,5 28,14 35,25 8,12 11,26 11,43l0 21c0,8 1,16 3,25 3,9 6,15 11,19l0 4 -57 0c-6,-4 -9,-11 -10,-20 -2,-10 -2,-19 -2,-28l0 -20c0,-15 -4,-26 -12,-34 -7,-7 -18,-11 -32,-11l-45 0zm0 -44l40 0c16,0 27,-4 35,-11 8,-6 12,-16 12,-30 0,-13 -4,-23 -12,-31 -8,-7 -19,-11 -34,-11l-41 0 0 83zm194 157l0 -284 98 0c34,0 62,11 84,33 22,22 33,51 33,86l0 47c0,35 -11,63 -33,85 -22,22 -50,33 -84,33l-98 0zm56 -240l0 197 42 0c18,0 33,-7 44,-21 11,-14 17,-32 17,-54l0 -48c0,-21 -6,-39 -17,-53 -11,-14 -26,-21 -44,-21l-42 0zm264 240l-56 0 0 -284 56 0 0 284zm280 0l-55 0 -113 -192 -1 1 0 191 -56 0 0 -284 56 0 112 191 2 0 0 -191 55 0 0 284zm201 -61l-91 0 -19 61 -58 0 94 -284 57 0 94 284 -58 0 -19 -61zm-77 -45l63 0 -31 -100 -1 0 -31 100zm358 -134l-80 0 0 240 -56 0 0 -240 -78 0 0 -44 214 0 0 44zm190 115l-103 0 0 82 123 0 0 43 -179 0 0 -284 178 0 0 44 -122 0 0 71 103 0 0 44zm587 125l-56 0 0 -118 -113 0 0 118 -56 0 0 -284 56 0 0 122 113 0 0 -122 56 0 0 284zm200 -61l-90 0 -19 61 -58 0 94 -284 57 0 94 284 -59 0 -19 -61zm-76 -45l63 0 -31 -100 -1 0 -31 100zm237 -7l0 113 -56 0 0 -284 96 0c32,0 57,7 75,22 18,15 27,35 27,62 0,14 -4,27 -12,38 -7,10 -18,19 -33,25 17,5 28,14 36,25 7,12 10,26 10,43l0 21c0,8 1,16 4,25 2,9 5,15 10,19l0 4 -57 0c-5,-4 -9,-11 -10,-20 -2,-10 -2,-19 -2,-28l0 -20c0,-15 -4,-26 -12,-34 -7,-7 -18,-11 -32,-11l-44 0zm0 -44l39 0c16,0 28,-4 35,-11 8,-6 12,-16 12,-30 0,-13 -4,-23 -12,-31 -8,-7 -19,-11 -34,-11l-40 0 0 83zm250 54l0 103 -56 0 0 -284 106 0c32,0 57,8 76,25 18,17 28,38 28,66 0,27 -10,49 -28,65 -19,17 -44,25 -76,25l-50 0zm0 -44l50 0c16,0 28,-4 36,-13 8,-8 12,-19 12,-33 0,-14 -4,-25 -12,-34 -8,-9 -20,-13 -36,-13l-50 0 0 93z"/>
  <path class="fil15" d="M7731 8467c-346,-307 -859,-386 -1299,-155 -583,307 -816,1041 -520,1643l0 0 1 1c299,625 1059,869 1659,555 579,-305 826,-1017 578,-1625 93,-109 158,-270 85,-384 -96,-152 -372,-119 -503,-35l-1 0zm426 85c-63,-98 -282,-66 -376,-6l-283 180 -576 -301c-18,-9 -44,-11 -61,0l-182 115c-16,10 -36,37 -3,67l420 375 -266 169 -214 -81c-14,-5 -30,-3 -42,4l-142 91c-14,8 -11,21 0,31l297 265 114 380c4,14 15,22 28,14l142 -91c12,-7 21,-22 22,-36l16 -228 266 -169 163 538c13,43 45,36 61,26l182 -116c17,-11 27,-35 26,-55l-29 -650 283 -180c94,-59 216,-244 154,-342zm-580 13c-169,-131 -377,-205 -590,-211l-22 -11c-47,-25 -108,-26 -154,3l-39 25c-91,18 -182,49 -268,95 -499,262 -691,903 -429,1433 258,523 877,739 1389,486l2 3c-548,271 -1205,50 -1478,-501 -277,-560 -53,-1250 500,-1540 412,-216 889,-151 1228,130l-139 88zm-534 -182c187,8 369,74 524,189l-73 46 -451 -235zm-464 247c-408,218 -565,744 -351,1178 213,431 724,620 1145,392l4 9c-456,226 -996,45 -1224,-415 -234,-474 -43,-1058 428,-1305 11,-6 23,-12 35,-17 -51,40 -63,104 -37,158zm151 150c-18,8 -37,16 -55,26 -115,60 -204,152 -263,261l-30 19c-55,35 -66,101 -35,151 -36,153 -21,322 55,475 161,326 564,490 886,315l1 4c-375,179 -804,53 -986,-313 -181,-366 -34,-819 327,-1028l100 90zm246 1118c75,4 153,-11 225,-46l1 2c-88,43 -177,65 -261,67l35 -23zm-457 -500c-1,79 16,160 54,236 39,79 98,143 167,188l14 46c3,9 7,18 11,26 -117,-42 -218,-129 -283,-262 -52,-104 -72,-216 -62,-323l99 89zm390 -458c-51,6 -101,21 -149,46 -14,7 -27,15 -40,24l-71 -27c-30,-11 -63,-12 -92,-2 47,-55 106,-103 176,-140 14,-7 28,-14 43,-20l133 119z"/>
  <path class="fil12" d="M9592 9455l1 2c1,67 -19,120 -61,158 -41,38 -98,57 -171,57 -74,0 -134,-24 -179,-73 -46,-48 -68,-111 -68,-188l0 -125c0,-77 22,-140 66,-189 45,-49 103,-73 175,-73 75,0 134,19 177,56 42,38 63,91 62,159l-1 2 -121 0c0,-40 -9,-70 -28,-90 -20,-20 -49,-30 -89,-30 -37,0 -66,16 -87,46 -21,30 -31,70 -31,118l0 126c0,48 11,88 33,118 22,31 52,46 91,46 37,0 65,-10 83,-29 19,-20 28,-51 28,-91l120 0zm4168 44c0,-25 -9,-44 -25,-59 -17,-14 -46,-28 -87,-41 -71,-22 -126,-48 -163,-78 -36,-29 -55,-70 -55,-121 0,-52 21,-94 63,-127 41,-32 94,-49 159,-49 68,0 123,18 165,53 41,35 62,81 60,138l-1 3 -120 0c0,-32 -9,-56 -28,-73 -18,-16 -44,-25 -78,-25 -31,0 -54,8 -71,23 -17,15 -25,34 -25,57 0,22 9,39 27,53 18,13 50,28 94,43 68,20 119,45 155,77 36,32 54,73 54,125 0,54 -21,96 -62,127 -42,32 -96,47 -164,47 -67,0 -124,-17 -171,-50 -48,-34 -71,-85 -70,-152l1 -2 120 0c0,37 11,64 33,82 21,18 50,26 87,26 33,0 58,-7 76,-21 17,-14 26,-33 26,-56zm-3690 -43c0,62 -19,114 -58,154 -38,40 -88,60 -149,60 -61,0 -111,-20 -149,-60 -38,-41 -57,-92 -57,-154l0 -90c0,-62 19,-113 57,-153 38,-41 87,-61 148,-61 62,0 111,20 150,61 38,40 58,91 58,153l0 90zm-99 -91c0,-39 -10,-71 -29,-97 -19,-25 -46,-37 -80,-37 -33,0 -59,12 -78,37 -19,26 -28,58 -28,97l0 91c0,40 9,73 28,98 19,25 45,38 79,38 34,0 60,-13 79,-38 19,-25 29,-58 29,-98l0 -91zm577 91c0,62 -19,114 -58,154 -38,40 -88,60 -149,60 -61,0 -111,-20 -149,-60 -38,-41 -57,-92 -57,-154l0 -90c0,-62 19,-113 57,-153 38,-41 87,-61 148,-61 62,0 112,20 150,61 39,40 58,91 58,153l0 90zm-99 -91c0,-39 -10,-71 -29,-97 -19,-25 -46,-37 -80,-37 -33,0 -59,12 -78,37 -19,26 -28,58 -28,97l0 91c0,40 10,73 28,98 19,25 45,38 79,38 34,0 60,-13 79,-38 19,-25 29,-58 29,-98l0 -91zm276 97l0 201 -99 0 0 -504 171 0c57,0 101,13 132,39 32,27 48,63 48,110 0,26 -7,48 -20,67 -14,19 -33,34 -59,45 29,9 50,24 63,44 13,21 19,46 19,77l0 36c0,15 2,29 6,45 3,15 10,26 19,34l0 7 -102 0c-9,-7 -15,-20 -18,-37 -2,-17 -4,-33 -4,-49l0 -36c0,-25 -6,-45 -20,-58 -13,-14 -32,-21 -57,-21l-79 0zm0 -78l70 0c28,0 49,-6 63,-18 13,-12 20,-30 20,-54 0,-23 -7,-41 -21,-55 -13,-13 -33,-20 -60,-20l-72 0 0 147zm344 279l0 -504 172 0c61,0 111,20 150,59 39,40 58,90 58,152l0 83c0,62 -19,112 -58,151 -39,39 -89,59 -150,59l-172 0zm99 -426l0 349 73 0c33,0 59,-13 79,-38 20,-24 30,-56 30,-95l0 -84c0,-39 -10,-70 -30,-95 -20,-25 -46,-37 -79,-37l-73 0zm467 426l-99 0 0 -504 99 0 0 504zm497 0l-99 0 -199 -340 -2 1 0 339 -99 0 0 -504 99 0 199 340 2 -1 0 -339 99 0 0 504zm355 -109l-160 0 -34 109 -103 0 166 -504 102 0 166 504 -104 0 -33 -109zm-136 -79l112 0 -55 -177 -2 0 -55 177zm635 -238l-142 0 0 426 -99 0 0 -426 -139 0 0 -78 380 0 0 78zm336 205l-183 0 0 144 218 0 0 77 -317 0 0 -504 316 0 0 78 -217 0 0 127 183 0 0 78zm1041 221l-99 0 0 -209 -202 0 0 209 -99 0 0 -504 99 0 0 217 202 0 0 -217 99 0 0 504zm354 -109l-160 0 -33 109 -103 0 166 -504 102 0 166 504 -104 0 -34 -109zm-135 -79l111 0 -54 -177 -2 0 -55 177zm419 -13l0 201 -99 0 0 -504 171 0c56,0 100,13 132,39 32,27 48,63 48,110 0,26 -7,48 -20,67 -14,19 -33,34 -59,45 29,9 50,24 63,44 13,21 19,46 19,77l0 36c0,15 2,29 6,45 3,15 10,26 19,34l0 7 -102 0c-10,-7 -15,-20 -18,-37 -3,-17 -4,-33 -4,-49l0 -36c0,-25 -7,-45 -20,-58 -14,-14 -32,-21 -57,-21l-79 0zm0 -78l70 0c28,0 49,-6 62,-18 14,-12 21,-30 21,-54 0,-23 -7,-41 -21,-55 -13,-13 -33,-20 -60,-20l-72 0 0 147zm443 96l0 183 -99 0 0 -504 189 0c57,0 101,15 134,44 32,30 49,69 49,117 0,48 -17,87 -49,116 -33,30 -77,44 -134,44l-90 0zm0 -78l90 0c27,0 48,-7 63,-23 14,-15 21,-34 21,-58 0,-25 -7,-44 -21,-60 -14,-16 -35,-24 -63,-24l-90 0 0 165z"/>
  <g id="_1901157854544">
   <path class="fil16" d="M7731 12389c-346,-307 -859,-386 -1299,-155 -583,306 -816,1041 -520,1642l0 0 1 2c299,624 1059,869 1659,554 579,-304 826,-1016 578,-1624 93,-109 158,-271 85,-385 -96,-151 -372,-118 -503,-34l-1 0z"/>
   <path class="fil5" d="M8157 12473c-63,-98 -282,-65 -376,-6l-283 180 -576 -301c-18,-9 -44,-11 -61,0l-182 116c-16,10 -36,37 -3,66l420 376 -266 169 -214 -82c-14,-5 -30,-3 -42,5l-142 90c-14,9 -11,21 0,31l297 265 114 380c4,15 15,23 28,14l142 -90c12,-8 21,-22 22,-36l16 -228 266 -170 163 539c13,43 45,35 61,25l182 -115c17,-11 27,-35 26,-56l-29 -649 283 -180c94,-60 216,-245 154,-343z"/>
   <path class="fil5" d="M7577 12487c-169,-131 -377,-206 -590,-212l-22 -11c-47,-25 -108,-25 -154,4l-39 25c-91,18 -182,49 -268,94 -499,262 -691,904 -429,1433 258,523 877,739 1389,487l2 2c-548,271 -1205,51 -1478,-501 -277,-560 -53,-1249 500,-1540 412,-216 889,-150 1228,130l-139 89z"/>
   <path class="fil5" d="M7043 12305c187,7 369,73 524,188l-73 47 -451 -235z"/>
   <path class="fil5" d="M6579 12552c-408,218 -565,744 -351,1178 213,431 724,620 1145,392l4 9c-456,226 -996,45 -1224,-416 -234,-473 -43,-1057 428,-1304 11,-6 23,-12 35,-18 -51,41 -63,105 -37,159z"/>
   <path class="fil5" d="M6730 12702c-18,7 -37,16 -55,25 -115,61 -204,153 -263,262l-30 19c-55,35 -66,100 -35,151 -36,153 -21,321 55,475 161,325 564,490 886,315l1 4c-375,179 -804,53 -986,-313 -181,-367 -34,-820 327,-1028l100 90z"/>
   <path class="fil5" d="M6976 13820c75,3 153,-11 225,-46l1 1c-88,43 -177,65 -261,67l35 -22z"/>
   <path class="fil5" d="M6519 13319c-1,79 16,160 54,237 39,79 98,142 167,187l14 46c3,10 7,18 11,26 -117,-41 -218,-129 -283,-262 -52,-104 -72,-215 -62,-323l99 89z"/>
   <path class="fil5" d="M6909 12861c-51,6 -101,21 -149,46 -14,8 -27,16 -40,24l-71 -27c-30,-11 -63,-11 -92,-2 47,-55 106,-103 176,-139 14,-8 28,-15 43,-21l133 119z"/>
   <path class="fil12" d="M9592 13376l1 3c1,67 -19,119 -61,158 -41,38 -98,57 -171,57 -74,0 -134,-25 -179,-73 -46,-49 -68,-112 -68,-189l0 -125c0,-76 22,-139 66,-188 45,-49 103,-73 175,-73 75,0 134,18 177,56 42,37 63,90 62,158l-1 3 -121 0c0,-41 -9,-71 -28,-90 -20,-20 -49,-30 -89,-30 -37,0 -66,15 -87,46 -21,30 -31,69 -31,117l0 126c0,49 11,88 33,119 22,30 52,46 91,46 37,0 65,-10 83,-30 19,-20 28,-50 28,-91l120 0zm4168 44c0,-24 -9,-44 -25,-58 -17,-15 -46,-29 -87,-42 -71,-22 -126,-47 -163,-77 -36,-30 -55,-70 -55,-122 0,-51 21,-94 63,-126 41,-33 94,-49 159,-49 68,0 123,17 165,52 41,36 62,82 60,139l-1 2 -120 0c0,-31 -9,-55 -28,-72 -18,-17 -44,-25 -78,-25 -31,0 -54,7 -71,22 -17,15 -25,34 -25,58 0,21 9,38 27,52 18,14 50,28 94,44 68,19 119,45 155,77 36,31 54,73 54,124 0,54 -21,97 -62,128 -42,31 -96,47 -164,47 -67,0 -124,-17 -171,-51 -48,-34 -71,-84 -70,-151l1 -3 120 0c0,38 11,65 33,83 21,17 50,26 87,26 33,0 58,-7 76,-21 17,-14 26,-33 26,-57zm-3690 -42c0,62 -19,113 -58,153 -38,41 -88,61 -149,61 -61,0 -111,-20 -149,-61 -38,-40 -57,-91 -57,-153l0 -91c0,-61 19,-112 57,-153 38,-40 87,-61 148,-61 62,0 111,21 150,61 38,41 58,92 58,153l0 91zm-99 -91c0,-40 -10,-72 -29,-97 -19,-25 -46,-38 -80,-38 -33,0 -59,13 -78,38 -19,25 -28,57 -28,97l0 91c0,40 9,72 28,98 19,25 45,37 79,37 34,0 60,-12 79,-37 19,-26 29,-58 29,-98l0 -91zm577 91c0,62 -19,113 -58,153 -38,41 -88,61 -149,61 -61,0 -111,-20 -149,-61 -38,-40 -57,-91 -57,-153l0 -91c0,-61 19,-112 57,-153 38,-40 87,-61 148,-61 62,0 112,21 150,61 39,41 58,92 58,153l0 91zm-99 -91c0,-40 -10,-72 -29,-97 -19,-25 -46,-38 -80,-38 -33,0 -59,13 -78,38 -19,25 -28,57 -28,97l0 91c0,40 10,72 28,98 19,25 45,37 79,37 34,0 60,-12 79,-37 19,-26 29,-58 29,-98l0 -91zm276 96l0 202 -99 0 0 -504 171 0c57,0 101,13 132,39 32,26 48,63 48,109 0,26 -7,49 -20,67 -14,19 -33,34 -59,46 29,9 50,23 63,44 13,20 19,46 19,76l0 37c0,14 2,29 6,44 3,16 10,27 19,34l0 8 -102 0c-9,-8 -15,-20 -18,-37 -2,-17 -4,-34 -4,-50l0 -35c0,-25 -6,-45 -20,-59 -13,-14 -32,-21 -57,-21l-79 0zm0 -78l70 0c28,0 49,-6 63,-18 13,-12 20,-30 20,-53 0,-23 -7,-41 -21,-55 -13,-14 -33,-20 -60,-20l-72 0 0 146zm344 280l0 -504 172 0c61,0 111,19 150,59 39,39 58,89 58,151l0 84c0,61 -19,112 -58,151 -39,39 -89,59 -150,59l-172 0zm99 -426l0 348 73 0c33,0 59,-12 79,-37 20,-25 30,-57 30,-95l0 -85c0,-38 -10,-70 -30,-94 -20,-25 -46,-37 -79,-37l-73 0zm467 426l-99 0 0 -504 99 0 0 504zm497 0l-99 0 -199 -340 -2 0 0 340 -99 0 0 -504 99 0 199 339 2 0 0 -339 99 0 0 504zm355 -109l-160 0 -34 109 -103 0 166 -504 102 0 166 504 -104 0 -33 -109zm-136 -79l112 0 -55 -178 -2 0 -55 178zm635 -238l-142 0 0 426 -99 0 0 -426 -139 0 0 -78 380 0 0 78zm336 204l-183 0 0 144 218 0 0 78 -317 0 0 -504 316 0 0 78 -217 0 0 126 183 0 0 78zm1041 222l-99 0 0 -210 -202 0 0 210 -99 0 0 -504 99 0 0 216 202 0 0 -216 99 0 0 504zm354 -109l-160 0 -33 109 -103 0 166 -504 102 0 166 504 -104 0 -34 -109zm-135 -79l111 0 -54 -178 -2 0 -55 178zm419 -14l0 202 -99 0 0 -504 171 0c56,0 100,13 132,39 32,26 48,63 48,109 0,26 -7,49 -20,67 -14,19 -33,34 -59,46 29,9 50,23 63,44 13,20 19,46 19,76l0 37c0,14 2,29 6,44 3,16 10,27 19,34l0 8 -102 0c-10,-8 -15,-20 -18,-37 -3,-17 -4,-34 -4,-50l0 -35c0,-25 -7,-45 -20,-59 -14,-14 -32,-21 -57,-21l-79 0zm0 -78l70 0c28,0 49,-6 62,-18 14,-12 21,-30 21,-53 0,-23 -7,-41 -21,-55 -13,-14 -33,-20 -60,-20l-72 0 0 146zm443 97l0 183 -99 0 0 -504 189 0c57,0 101,14 134,44 32,29 49,68 49,117 0,48 -17,87 -49,116 -33,29 -77,44 -134,44l-90 0zm0 -78l90 0c27,0 48,-8 63,-23 14,-15 21,-35 21,-59 0,-24 -7,-44 -21,-60 -14,-16 -35,-23 -63,-23l-90 0 0 165z"/>
  </g>
  <g id="_1901157851792">
   <path class="fil17" d="M10131 23722c-346,-308 -860,-386 -1300,-155 -583,306 -815,1041 -520,1642l0 0 1 2c299,624 1060,869 1659,554 580,-304 826,-1016 578,-1625 93,-108 158,-270 86,-384 -97,-151 -372,-118 -504,-34l0 0z"/>
   <path class="fil5" d="M10556 23806c-62,-98 -282,-65 -375,-6l-283 180 -576 -301c-18,-9 -44,-11 -61,0l-182 116c-16,10 -37,36 -3,66l419 375 -266 170 -214 -82c-13,-5 -30,-3 -42,5l-142 90c-13,9 -10,21 1,31l296 265 115 380c4,15 14,23 27,14l142 -90c12,-8 21,-22 22,-36l17 -229 266 -169 162 539c13,43 46,35 62,25l182 -116c17,-10 26,-35 25,-55l-28 -649 283 -180c93,-60 216,-245 153,-343z"/>
   <path class="fil5" d="M9977 23820c-170,-131 -378,-206 -591,-212l-21 -11c-48,-25 -109,-25 -154,4l-40 25c-91,17 -181,49 -268,94 -498,262 -691,904 -429,1433 259,523 878,739 1389,487l2 2c-548,271 -1205,51 -1477,-501 -277,-560 -53,-1250 500,-1540 411,-216 889,-150 1228,130l-139 89z"/>
   <path class="fil5" d="M9443 23638c187,7 369,73 524,188l-74 47 -450 -235z"/>
   <path class="fil5" d="M8979 23885c-408,218 -566,744 -351,1178 213,430 724,620 1145,392l4 9c-456,226 -997,45 -1225,-416 -234,-473 -42,-1057 428,-1304 12,-7 24,-12 35,-18 -50,41 -63,105 -36,159z"/>
   <path class="fil5" d="M9130 24034c-19,8 -37,16 -55,26 -115,60 -205,153 -264,262l-30 19c-55,35 -65,100 -34,150 -37,154 -21,322 55,476 161,325 564,490 885,315l2 4c-375,179 -805,53 -986,-313 -181,-367 -35,-820 326,-1028l101 89z"/>
   <path class="fil5" d="M9375 25153c76,3 153,-11 225,-47l1 2c-88,43 -176,65 -261,67l35 -22z"/>
   <path class="fil5" d="M8918 24652c0,79 17,160 55,237 39,79 97,142 167,187l14 46c2,9 6,18 11,26 -118,-41 -218,-129 -284,-262 -51,-104 -71,-215 -62,-323l99 89z"/>
   <path class="fil5" d="M9308 24194c-50,6 -100,21 -148,46 -14,8 -28,16 -41,24l-71 -27c-29,-11 -62,-11 -92,-2 47,-55 106,-103 176,-139 14,-8 29,-15 43,-21l133 119z"/>
   <path class="fil13" d="M11991 24709l1 2c1,68 -19,120 -60,158 -42,39 -98,57 -171,58 -74,-1 -134,-25 -179,-73 -46,-49 -69,-112 -69,-189l0 -125c0,-76 22,-139 67,-188 44,-49 102,-73 175,-73 75,0 134,18 176,56 42,37 63,90 62,158l-1 3 -120 0c0,-41 -10,-71 -29,-90 -19,-20 -49,-30 -88,-30 -38,0 -66,15 -87,45 -21,31 -31,70 -31,118l0 126c0,49 11,88 33,119 21,30 52,46 91,46 37,0 65,-10 83,-30 18,-20 27,-50 27,-91l120 0zm4168 44c0,-24 -8,-44 -25,-58 -16,-15 -45,-29 -87,-42 -71,-22 -125,-48 -162,-77 -37,-30 -55,-71 -55,-122 0,-51 20,-94 62,-126 42,-33 95,-49 159,-49 68,0 123,17 165,52 42,36 62,82 61,139l-1 2 -120 0c0,-31 -10,-55 -28,-72 -19,-17 -45,-25 -79,-25 -30,0 -54,7 -71,22 -16,15 -25,34 -25,58 0,21 10,38 28,52 18,14 49,28 93,44 68,19 120,45 156,76 35,32 53,74 53,125 0,54 -21,97 -62,128 -41,31 -96,46 -164,47 -66,-1 -123,-17 -171,-51 -47,-34 -71,-84 -69,-151l1 -3 120 0c0,38 10,65 32,82 21,18 51,27 87,27 34,0 59,-7 76,-21 17,-14 26,-33 26,-57zm-3690 -42c0,62 -19,113 -57,153 -38,41 -88,61 -150,61 -61,0 -110,-20 -148,-61 -38,-40 -57,-91 -57,-153l0 -91c0,-61 19,-112 57,-153 37,-40 87,-61 148,-61 61,0 111,21 149,61 39,41 58,92 58,153l0 91zm-99 -91c0,-40 -9,-72 -29,-97 -19,-25 -45,-38 -79,-38 -34,0 -60,13 -79,38 -18,25 -27,57 -27,97l0 91c0,40 9,72 28,97 18,26 45,38 78,38 34,0 61,-12 80,-38 19,-25 28,-57 28,-97l0 -91zm577 91c0,62 -19,113 -57,153 -38,41 -88,61 -149,61 -62,0 -111,-20 -149,-61 -38,-40 -57,-91 -57,-153l0 -91c0,-61 19,-112 57,-153 38,-40 87,-61 148,-61 61,0 111,21 150,61 38,41 57,92 57,153l0 91zm-99 -91c0,-40 -9,-72 -28,-97 -20,-25 -46,-38 -80,-38 -34,0 -60,13 -78,38 -19,25 -28,57 -28,97l0 91c0,40 9,72 28,97 19,26 45,38 79,38 34,0 60,-12 79,-38 19,-25 28,-57 28,-97l0 -91zm277 96l0 201 -99 0 0 -503 171 0c56,0 100,13 132,39 32,26 48,63 48,109 0,26 -7,49 -21,67 -13,19 -33,34 -59,46 30,9 51,23 63,44 13,20 20,46 20,76l0 37c0,14 1,29 5,44 4,15 10,27 19,34l0 7 -102 0c-9,-7 -15,-19 -17,-36 -3,-17 -4,-34 -4,-50l0 -35c0,-26 -7,-45 -20,-59 -14,-14 -33,-21 -58,-21l-78 0zm0 -78l70 0c28,0 48,-6 62,-18 14,-12 20,-30 20,-53 0,-23 -6,-41 -20,-55 -14,-14 -34,-20 -60,-20l-72 0 0 146zm343 279l0 -503 173 0c60,0 110,19 149,59 39,39 59,89 59,151l0 83c0,62 -20,113 -59,152 -39,39 -89,58 -149,58l-173 0zm100 -425l0 348 73 0c32,0 59,-12 79,-37 19,-25 29,-57 29,-96l0 -84c0,-38 -10,-70 -29,-95 -20,-24 -47,-36 -79,-36l-73 0zm466 425l-99 0 0 -503 99 0 0 503zm498 0l-99 0 -200 -339 -2 0 0 339 -99 0 0 -503 99 0 200 339 2 0 0 -339 99 0 0 503zm354 -108l-160 0 -33 108 -104 0 167 -503 101 0 166 503 -103 0 -34 -108zm-135 -79l111 0 -54 -178 -2 0 -55 178zm634 -238l-141 0 0 425 -99 0 0 -425 -139 0 0 -78 379 0 0 78zm337 204l-184 0 0 144 218 0 0 77 -317 0 0 -503 317 0 0 78 -218 0 0 126 184 0 0 78zm1040 221l-99 0 0 -209 -201 0 0 209 -99 0 0 -503 99 0 0 216 201 0 0 -216 99 0 0 503zm355 -108l-160 0 -34 108 -103 0 167 -503 101 0 166 503 -104 0 -33 -108zm-136 -79l112 0 -55 -178 -2 0 -55 178zm420 -14l0 201 -99 0 0 -503 170 0c57,0 101,13 133,39 31,26 47,63 47,109 0,26 -6,49 -20,67 -13,19 -33,34 -59,46 29,9 50,23 63,44 13,20 19,46 19,76l0 37c0,14 2,29 6,44 4,15 10,27 19,34l0 7 -102 0c-9,-7 -15,-19 -17,-36 -3,-17 -4,-34 -4,-50l0 -35c0,-26 -7,-45 -21,-59 -13,-14 -32,-21 -57,-21l-78 0zm0 -78l70 0c28,0 48,-6 62,-18 13,-12 20,-30 20,-53 0,-23 -7,-41 -20,-55 -14,-14 -34,-20 -61,-20l-71 0 0 146zm442 97l0 182 -99 0 0 -503 189 0c57,0 102,14 134,44 33,29 49,68 49,117 0,48 -16,86 -49,116 -32,29 -77,44 -134,44l-90 0zm0 -78l90 0c28,0 49,-8 63,-23 14,-16 21,-35 21,-59 0,-24 -7,-44 -21,-60 -14,-16 -35,-23 -63,-23l-90 0 0 165z"/>
  </g>
  <path class="fil5" d="M5003 28883c-346,-308 -860,-386 -1300,-155 -583,306 -815,1041 -520,1642l0 0 1 1c299,625 1060,870 1659,555 580,-305 826,-1016 578,-1625 93,-108 158,-270 86,-384 -97,-151 -372,-119 -504,-35l0 1zm425 84c-62,-98 -282,-66 -375,-6l-283 180 -576 -301c-18,-9 -44,-11 -61,0l-182 116c-16,10 -37,36 -3,66l419 375 -266 170 -214 -82c-13,-5 -30,-3 -42,5l-142 90c-13,8 -10,21 1,31l296 265 115 380c4,14 14,22 27,14l142 -90c12,-8 21,-22 22,-36l17 -229 266 -169 162 539c13,42 46,35 62,25l182 -116c17,-11 26,-35 25,-55l-28 -649 283 -181c93,-59 216,-244 153,-342zm-579 14c-170,-131 -378,-206 -591,-212l-21 -11c-48,-25 -109,-26 -154,3l-40 26c-91,17 -181,48 -268,94 -498,262 -691,903 -429,1433 259,523 878,739 1389,487l2 2c-548,271 -1205,51 -1477,-501 -277,-560 -53,-1250 500,-1540 411,-216 889,-151 1228,130l-139 89zm-534 -182c187,7 369,73 524,188l-74 47 -450 -235zm-464 247c-408,218 -566,744 -351,1177 213,431 724,621 1145,393l4 8c-456,226 -997,46 -1225,-415 -234,-474 -42,-1058 428,-1305 12,-6 24,-12 35,-17 -50,40 -63,105 -36,159zm151 149c-19,8 -37,16 -55,26 -115,60 -205,153 -264,262l-30 19c-55,35 -65,100 -34,150 -37,154 -21,322 55,475 161,326 564,491 885,316l2 3c-375,180 -805,54 -986,-312 -181,-367 -35,-820 326,-1029l101 90zm245 1118c76,4 153,-10 225,-46l1 2c-88,43 -176,65 -261,67l35 -23zm-457 -500c0,79 17,160 55,236 39,79 97,143 167,188l14 46c2,9 6,18 11,26 -118,-41 -218,-129 -284,-262 -51,-104 -71,-215 -62,-323l99 89zm390 -458c-50,6 -100,21 -148,46 -14,7 -28,16 -41,24l-71 -27c-29,-11 -62,-11 -92,-2 47,-55 106,-103 176,-139 14,-8 29,-15 43,-21l133 119z"/>
  <path class="fil13" d="M6863 29870l1 2c1,68 -19,120 -60,158 -41,38 -98,57 -171,57 -74,0 -134,-24 -179,-72 -46,-49 -69,-112 -69,-189l0 -125c0,-77 22,-139 67,-188 44,-49 102,-74 175,-74 75,0 134,19 176,57 42,37 63,90 62,158l-1 3 -120 0c0,-41 -10,-71 -29,-91 -19,-19 -49,-29 -88,-29 -38,0 -66,15 -87,45 -21,31 -31,70 -31,118l0 126c0,49 11,88 33,119 21,30 52,45 91,45 37,0 65,-9 83,-29 18,-20 27,-50 27,-91l120 0zm4168 44c0,-24 -8,-44 -25,-59 -16,-14 -45,-28 -87,-41 -71,-22 -125,-48 -162,-77 -37,-30 -55,-71 -55,-122 0,-52 20,-94 62,-127 42,-32 95,-49 159,-49 68,0 124,18 165,53 42,35 62,81 61,139l-1 2 -120 0c0,-31 -10,-55 -28,-72 -19,-17 -45,-26 -79,-26 -30,0 -54,8 -71,23 -16,15 -25,34 -25,57 0,22 10,39 28,53 18,14 49,28 93,44 68,19 120,45 156,76 35,32 53,73 53,125 0,54 -21,96 -62,128 -41,31 -96,46 -164,46 -66,0 -123,-17 -171,-50 -47,-34 -71,-84 -69,-151l1 -3 120 0c0,37 10,65 32,82 21,18 51,27 87,27 34,0 59,-7 76,-21 17,-15 26,-33 26,-57zm-3690 -42c0,62 -19,113 -57,153 -38,40 -88,61 -150,61 -61,0 -110,-21 -148,-61 -38,-40 -57,-92 -57,-153l0 -91c0,-62 19,-113 57,-153 38,-41 87,-61 148,-61 61,0 111,20 149,61 39,40 58,91 58,153l0 91zm-99 -92c0,-39 -9,-71 -29,-96 -19,-25 -45,-38 -79,-38 -34,0 -60,13 -79,38 -18,25 -27,57 -27,96l0 92c0,40 9,72 28,97 18,25 45,38 78,38 34,0 61,-13 80,-38 19,-25 28,-57 28,-97l0 -92zm577 92c0,62 -19,113 -57,153 -38,40 -88,61 -149,61 -62,0 -111,-21 -149,-61 -38,-40 -57,-92 -57,-153l0 -91c0,-62 19,-113 57,-153 38,-41 87,-61 148,-61 61,0 111,20 150,61 38,40 57,91 57,153l0 91zm-99 -92c0,-39 -9,-71 -28,-96 -20,-25 -46,-38 -80,-38 -34,0 -60,13 -78,38 -19,25 -28,57 -28,96l0 92c0,40 9,72 28,97 19,25 45,38 79,38 34,0 60,-13 79,-38 19,-25 28,-57 28,-97l0 -92zm277 97l0 201 -99 0 0 -504 171 0c56,0 100,14 132,40 32,26 48,62 48,109 0,26 -7,48 -21,67 -13,19 -33,34 -59,46 30,8 51,23 63,44 13,20 20,46 20,76l0 37c0,14 1,29 5,44 4,15 10,27 19,34l0 7 -102 0c-9,-7 -15,-19 -17,-36 -3,-17 -4,-34 -4,-50l0 -35c0,-26 -7,-45 -20,-59 -14,-14 -33,-21 -58,-21l-78 0zm0 -78l70 0c28,0 48,-6 62,-18 14,-12 20,-30 20,-53 0,-23 -6,-42 -20,-55 -14,-14 -34,-21 -60,-21l-72 0 0 147zm344 279l0 -504 172 0c60,0 110,20 149,59 39,40 59,90 59,152l0 83c0,62 -20,112 -59,152 -39,39 -89,58 -149,58l-172 0zm99 -426l0 349 73 0c32,0 59,-13 79,-37 19,-25 29,-57 29,-96l0 -84c0,-38 -10,-70 -29,-95 -20,-24 -47,-37 -79,-37l-73 0zm466 426l-99 0 0 -504 99 0 0 504zm498 0l-99 0 -200 -340 -2 1 0 339 -99 0 0 -504 99 0 200 340 2 0 0 -340 99 0 0 504zm354 -108l-160 0 -33 108 -104 0 167 -504 101 0 166 504 -103 0 -34 -108zm-135 -80l111 0 -54 -177 -2 0 -55 177zm634 -238l-141 0 0 426 -99 0 0 -426 -139 0 0 -78 379 0 0 78zm337 205l-184 0 0 144 218 0 0 77 -317 0 0 -504 317 0 0 78 -218 0 0 127 184 0 0 78zm1040 221l-99 0 0 -209 -201 0 0 209 -99 0 0 -504 99 0 0 217 201 0 0 -217 99 0 0 504zm355 -108l-160 0 -34 108 -103 0 167 -504 101 0 166 504 -104 0 -33 -108zm-136 -80l112 0 -55 -177 -2 0 -55 177zm420 -13l0 201 -99 0 0 -504 170 0c57,0 101,14 133,40 32,26 47,62 47,109 0,26 -6,48 -20,67 -13,19 -33,34 -59,46 29,8 50,23 63,44 13,20 19,46 19,76l0 37c0,14 2,29 6,44 4,15 10,27 19,34l0 7 -102 0c-9,-7 -15,-19 -17,-36 -3,-17 -4,-34 -4,-50l0 -35c0,-26 -7,-45 -21,-59 -13,-14 -32,-21 -57,-21l-78 0zm0 -78l70 0c28,0 48,-6 62,-18 14,-12 20,-30 20,-53 0,-23 -7,-42 -20,-55 -14,-14 -34,-21 -61,-21l-71 0 0 147zm442 97l0 182 -99 0 0 -504 189 0c57,0 102,15 134,45 33,29 49,68 49,116 0,49 -16,87 -49,117 -32,29 -77,44 -134,44l-90 0zm0 -78l90 0c28,0 49,-8 63,-23 14,-16 21,-35 21,-59 0,-24 -7,-44 -21,-60 -14,-16 -35,-24 -63,-24l-90 0 0 166z"/>
  <path class="fil18" d="M15322 39903l3945 0c181,0 329,148 329,329l0 3945c0,181 -148,329 -329,329l-3945 0c-181,0 -329,-148 -329,-329l0 -3945c0,-181 148,-329 329,-329z"/>
  <path class="fil3" d="M1943 39849l12163 0c271,0 493,221 493,493l0 3616c0,271 -222,493 -493,493l-12163 0c-271,0 -493,-222 -493,-493l0 -3616c0,-272 222,-493 493,-493z"/>
  <path class="fil5" d="M17850 41308c-263,-234 -654,-294 -988,-118 -443,233 -620,791 -395,1249l-1 0 1 1c228,475 806,661 1262,421 440,-231 628,-772 439,-1235 71,-83 120,-206 65,-292 -73,-115 -282,-90 -383,-27l0 1zm324 64c-48,-75 -215,-50 -286,-5l-215 137 -438 -229c-14,-7 -34,-8 -47,0l-138 88c-12,8 -28,28 -2,51l319 285 -203 129 -162 -62c-10,-4 -23,-3 -32,3l-108 69c-10,6 -8,16 0,23l226 202 87 289c3,11 11,17 21,11l108 -69c9,-6 16,-17 16,-27l13 -174 202 -129 124 410c10,32 35,27 47,19l138 -88c13,-8 20,-27 19,-42l-21 -494 215 -137c71,-45 164,-186 117,-260zm-441 10c-129,-100 -287,-156 -449,-161l-17 -8c-36,-19 -82,-20 -117,2l-30 20c-69,13 -138,37 -203,71 -380,199 -526,687 -327,1090 197,398 668,562 1057,370l1 2c-417,206 -916,38 -1123,-381 -211,-426 -41,-950 380,-1171 313,-164 676,-115 934,99l-106 67zm-406 -138c142,6 281,55 398,143l-56 36 -342 -179zm-353 188c-310,165 -430,565 -267,895 162,328 550,472 871,299l3 6c-347,172 -758,35 -931,-316 -178,-360 -33,-804 325,-992 9,-4 18,-9 27,-13 -39,31 -48,79 -28,121zm115 113c-14,6 -28,13 -42,20 -88,46 -156,116 -201,199l-22 14c-42,27 -50,77 -27,115 -27,117 -15,245 42,361 123,248 429,373 674,240l1 3c-285,136 -612,40 -750,-238 -137,-279 -26,-623 249,-782l76 68zm186 851c58,3 117,-9 172,-35l0 1c-66,32 -134,49 -198,51l26 -17zm-347 -381c-1,60 13,122 41,180 30,60 75,108 128,143l10 35c2,7 5,13 8,19 -89,-31 -165,-98 -215,-199 -39,-79 -54,-164 -47,-245l75 67zm297 -348c-39,4 -77,16 -113,35 -11,5 -21,12 -31,18l-54 -20c-22,-9 -48,-9 -70,-2 36,-42 81,-78 134,-106 10,-6 21,-11 32,-16l102 91z"/>
  <path class="fil13" d="M15711 43481l1 1c0,38 -11,68 -34,89 -24,22 -56,32 -97,32 -42,0 -75,-13 -101,-41 -26,-27 -38,-63 -38,-106l0 -71c0,-43 12,-78 37,-106 25,-27 58,-41 99,-41 42,0 75,10 99,32 24,21 36,50 35,89l0 1 -68 0c0,-22 -6,-39 -16,-51 -11,-11 -28,-16 -50,-16 -21,0 -38,8 -49,25 -12,18 -18,40 -18,67l0 71c0,27 6,50 19,67 12,17 29,26 51,26 21,0 37,-6 47,-17 10,-11 16,-28 16,-51l67 0zm2353 25c0,-14 -5,-25 -14,-33 -10,-9 -26,-17 -50,-24 -40,-12 -70,-27 -91,-44 -21,-16 -31,-39 -31,-68 0,-29 11,-53 35,-72 23,-18 53,-27 90,-27 38,0 69,10 93,30 23,19 35,45 34,78l-1 1 -67 0c0,-18 -6,-31 -16,-41 -11,-9 -25,-14 -44,-14 -18,0 -31,4 -40,13 -10,8 -15,19 -15,32 0,12 6,22 16,30 10,8 28,16 53,24 38,11 67,26 87,44 21,17 31,41 31,70 0,30 -12,54 -35,72 -24,18 -55,26 -93,26 -37,0 -70,-9 -96,-28 -27,-19 -40,-48 -40,-85l1 -2 68 0c0,21 6,37 18,47 12,9 28,14 49,14 19,0 33,-4 43,-12 10,-7 15,-18 15,-31zm-2083 -24c0,35 -11,64 -32,86 -22,23 -50,34 -85,34 -34,0 -62,-11 -84,-34 -21,-23 -32,-51 -32,-86l0 -51c0,-35 11,-64 32,-87 22,-23 50,-34 84,-34 35,0 63,11 84,34 22,23 33,52 33,87l0 51zm-56 -52c0,-22 -5,-40 -16,-54 -11,-15 -26,-22 -45,-22 -19,0 -34,7 -44,22 -11,14 -16,32 -16,54l0 52c0,22 5,41 16,55 11,14 25,21 44,21 20,0 34,-7 45,-21 11,-14 16,-33 16,-55l0 -52zm326 52c0,35 -11,64 -32,86 -22,23 -50,34 -85,34 -34,0 -62,-11 -84,-34 -21,-23 -32,-51 -32,-86l0 -51c0,-35 11,-64 32,-87 22,-23 49,-34 84,-34 34,0 63,11 84,34 22,23 33,52 33,87l0 51zm-56 -52c0,-22 -5,-40 -16,-54 -11,-15 -26,-22 -45,-22 -19,0 -34,7 -44,22 -11,14 -16,32 -16,54l0 52c0,22 5,41 16,55 10,14 25,21 44,21 19,0 34,-7 45,-21 11,-14 16,-33 16,-55l0 -52zm156 55l0 113 -56 0 0 -284 97 0c31,0 56,7 74,22 18,15 27,36 27,62 0,15 -4,27 -11,38 -8,10 -19,19 -33,25 16,5 28,14 35,25 7,12 11,26 11,43l0 21c0,8 1,16 3,25 2,9 6,15 11,19l0 4 -58 0c-5,-4 -8,-11 -10,-20 -1,-10 -2,-19 -2,-28l0 -20c0,-15 -4,-26 -11,-34 -8,-7 -19,-11 -33,-11l-44 0zm0 -44l40 0c15,0 27,-4 35,-10 7,-7 11,-17 11,-31 0,-13 -4,-23 -11,-31 -8,-7 -19,-11 -34,-11l-41 0 0 83zm194 157l0 -284 97 0c34,0 63,11 85,33 22,22 33,51 33,86l0 47c0,35 -11,63 -33,85 -22,22 -51,33 -85,33l-97 0zm56 -240l0 197 41 0c19,0 34,-7 45,-21 11,-14 17,-32 17,-54l0 -48c0,-21 -6,-39 -17,-53 -11,-14 -26,-21 -45,-21l-41 0zm263 240l-56 0 0 -284 56 0 0 284zm281 0l-56 0 -112 -191 -1 0 0 191 -56 0 0 -284 56 0 112 192 1 -1 0 -191 56 0 0 284zm200 -61l-90 0 -19 61 -58 0 94 -284 57 0 94 284 -59 0 -19 -61zm-76 -45l63 0 -31 -100 -1 0 -31 100zm358 -134l-80 0 0 240 -56 0 0 -240 -78 0 0 -44 214 0 0 44zm190 115l-104 0 0 82 123 0 0 43 -179 0 0 -284 179 0 0 44 -123 0 0 71 104 0 0 44zm587 125l-56 0 0 -118 -113 0 0 118 -56 0 0 -284 56 0 0 122 113 0 0 -122 56 0 0 284zm200 -61l-90 0 -19 61 -58 0 94 -284 57 0 94 284 -59 0 -19 -61zm-76 -45l63 0 -31 -100 -1 0 -31 100zm236 -7l0 113 -56 0 0 -284 97 0c32,0 56,7 74,22 18,15 27,36 27,62 0,15 -3,27 -11,38 -8,10 -19,19 -33,25 16,5 28,14 35,25 7,12 11,26 11,43l0 21c0,8 1,16 3,25 2,9 6,15 11,19l0 4 -58 0c-5,-4 -8,-11 -9,-20 -2,-10 -3,-19 -3,-28l0 -20c0,-15 -3,-26 -11,-34 -8,-7 -18,-11 -32,-11l-45 0zm0 -44l40 0c16,0 27,-4 35,-10 8,-7 11,-17 11,-31 0,-13 -3,-23 -11,-31 -8,-7 -19,-11 -34,-11l-41 0 0 83zm250 54l0 103 -56 0 0 -284 107 0c32,0 57,8 76,25 18,17 27,39 27,66 0,27 -9,49 -27,65 -19,17 -44,25 -76,25l-51 0zm0 -44l51 0c15,0 27,-4 35,-13 8,-8 12,-19 12,-33 0,-14 -4,-25 -12,-34 -8,-9 -19,-13 -35,-13l-51 0 0 93z"/>
  <path class="fil5" d="M5003 41251c-346,-307 -860,-386 -1300,-155 -583,306 -815,1041 -520,1643l0 0 1 1c299,625 1060,869 1659,554 580,-304 826,-1016 578,-1624 93,-109 158,-270 86,-384 -97,-152 -372,-119 -504,-35l0 0zm425 85c-62,-98 -282,-66 -375,-7l-283 181 -576 -301c-18,-10 -44,-11 -61,-1l-182 116c-16,10 -37,37 -3,67l419 375 -266 169 -214 -81c-13,-5 -30,-3 -42,4l-142 91c-13,8 -10,21 1,31l296 264 115 381c4,14 14,22 27,14l142 -91c12,-7 21,-22 22,-36l17 -228 266 -169 162 538c13,43 46,36 62,26l182 -116c17,-11 26,-35 25,-55l-28 -650 283 -180c93,-59 216,-244 153,-342zm-579 13c-170,-131 -378,-205 -591,-211l-21 -12c-48,-24 -109,-25 -154,4l-40 25c-91,18 -181,49 -268,94 -498,262 -691,904 -429,1433 259,524 878,739 1389,487l2 3c-548,271 -1205,50 -1477,-501 -277,-560 -53,-1250 500,-1541 411,-216 889,-150 1228,131l-139 88zm-534 -182c187,8 369,74 524,189l-74 46 -450 -235zm-464 247c-408,218 -566,744 -351,1178 213,431 724,620 1145,392l4 9c-456,226 -997,45 -1225,-416 -234,-473 -42,-1057 428,-1304 12,-6 24,-12 35,-18 -50,41 -63,105 -36,159zm151 150c-19,7 -37,16 -55,25 -115,61 -205,153 -264,262l-30 19c-55,35 -65,101 -34,151 -37,153 -21,322 55,475 161,326 564,490 885,315l2 4c-375,179 -805,53 -986,-313 -181,-366 -35,-819 326,-1028l101 90zm245 1118c76,4 153,-11 225,-46l1 2c-88,42 -176,64 -261,66l35 -22zm-457 -500c0,79 17,160 55,236 39,79 97,143 167,188l14 46c2,9 6,18 11,26 -118,-42 -218,-130 -284,-262 -51,-104 -71,-216 -62,-323l99 89zm390 -458c-50,6 -100,21 -148,46 -14,7 -28,15 -41,24l-71 -27c-29,-11 -62,-12 -92,-2 47,-56 106,-103 176,-140 14,-7 29,-14 43,-20l133 119z"/>
  <path class="fil3" d="M2392 45905c-346,-308 -859,-386 -1299,-155 -583,306 -816,1041 -520,1642l0 0 1 2c299,624 1059,869 1659,554 579,-304 826,-1016 578,-1625 93,-108 158,-270 85,-384 -96,-151 -372,-118 -503,-34l-1 0zm426 84c-63,-98 -282,-65 -376,-6l-283 180 -576 -301c-18,-9 -44,-11 -61,0l-182 116c-16,10 -36,37 -3,66l420 376 -266 169 -214 -82c-14,-5 -30,-3 -42,5l-142 90c-14,9 -11,21 0,31l297 265 114 380c4,15 15,23 28,14l142 -90c12,-8 21,-22 22,-36l16 -229 266 -169 163 539c13,43 45,35 61,25l182 -116c17,-10 27,-35 26,-55l-29 -649 283 -180c94,-60 216,-245 154,-343zm-580 14c-169,-131 -377,-206 -590,-212l-22 -11c-47,-25 -108,-25 -154,4l-39 25c-91,18 -182,49 -268,94 -499,262 -691,904 -429,1433 258,523 877,739 1389,487l2 2c-548,271 -1205,51 -1478,-501 -277,-560 -53,-1249 500,-1540 412,-216 889,-150 1228,130l-139 89zm-534 -182c187,7 369,73 524,188l-73 47 -451 -235zm-464 247c-408,218 -565,744 -351,1178 213,431 724,620 1145,392l4 9c-456,226 -996,45 -1224,-416 -234,-473 -43,-1057 428,-1304 11,-7 23,-12 35,-18 -51,41 -63,105 -37,159zm151 149c-18,8 -37,17 -55,26 -115,61 -204,153 -263,262l-30 19c-55,35 -66,100 -35,150 -36,154 -21,322 55,476 161,325 564,490 886,315l1 4c-375,179 -804,53 -985,-313 -182,-367 -35,-820 326,-1028l100 89zm246 1119c75,3 153,-11 225,-47l1 2c-88,43 -177,65 -261,67l35 -22zm-457 -501c-1,79 16,160 54,237 39,79 98,142 167,187l14 46c3,9 7,18 11,26 -117,-41 -218,-129 -283,-262 -52,-104 -72,-215 -62,-323l99 89zm390 -458c-51,6 -101,21 -149,46 -14,8 -27,16 -40,24l-71 -27c-30,-11 -63,-11 -92,-2 47,-55 106,-103 176,-139 14,-8 28,-15 43,-21l133 119z"/>
  <path class="fil13" d="M6863 42238l1 3c1,67 -19,120 -60,158 -41,38 -98,57 -171,57 -74,0 -134,-24 -179,-73 -46,-48 -69,-111 -69,-188l0 -125c0,-77 22,-140 67,-189 44,-49 102,-73 175,-73 75,0 134,19 176,56 42,38 63,91 62,159l-1 2 -120 0c0,-40 -10,-70 -29,-90 -19,-20 -49,-30 -88,-30 -38,0 -66,16 -87,46 -21,30 -31,70 -31,118l0 126c0,48 11,88 33,118 21,31 52,46 91,46 37,0 65,-10 83,-29 18,-20 27,-51 27,-92l120 0zm4168 45c0,-25 -8,-44 -25,-59 -16,-15 -45,-28 -87,-41 -71,-22 -125,-48 -162,-78 -37,-30 -55,-70 -55,-121 0,-52 20,-94 62,-127 42,-33 95,-49 159,-49 68,0 124,18 165,53 42,35 62,81 61,138l-1 3 -120 0c0,-32 -10,-56 -28,-73 -19,-17 -45,-25 -79,-25 -30,0 -54,8 -71,23 -16,15 -25,34 -25,57 0,21 10,39 28,53 18,13 49,28 93,43 68,20 120,45 156,77 35,32 53,73 53,125 0,54 -21,96 -62,127 -41,31 -96,47 -164,47 -66,0 -123,-17 -171,-51 -47,-33 -71,-84 -69,-151l1 -2 120 0c0,37 10,64 32,82 21,18 51,26 87,26 34,0 59,-7 76,-21 17,-14 26,-33 26,-56zm-3690 -43c0,62 -19,113 -57,154 -38,40 -88,60 -150,60 -61,0 -110,-20 -148,-60 -38,-41 -57,-92 -57,-154l0 -90c0,-62 19,-113 57,-153 38,-41 87,-61 148,-61 61,0 111,20 149,61 39,40 58,91 58,153l0 90zm-99 -91c0,-39 -9,-71 -29,-97 -19,-25 -45,-37 -79,-37 -34,0 -60,12 -79,37 -18,26 -27,58 -27,97l0 91c0,40 9,73 28,98 18,25 45,38 78,38 34,0 61,-13 80,-38 19,-25 28,-58 28,-98l0 -91zm577 91c0,62 -19,113 -57,154 -38,40 -88,60 -149,60 -62,0 -111,-20 -149,-60 -38,-41 -57,-92 -57,-154l0 -90c0,-62 19,-113 57,-153 38,-41 87,-61 148,-61 61,0 111,20 150,61 38,40 57,91 57,153l0 90zm-99 -91c0,-39 -9,-71 -28,-97 -20,-25 -46,-37 -80,-37 -34,0 -60,12 -78,37 -19,26 -28,58 -28,97l0 91c0,40 9,73 28,98 19,25 45,38 79,38 34,0 60,-13 79,-38 19,-25 28,-58 28,-98l0 -91zm277 97l0 201 -99 0 0 -504 171 0c56,0 100,13 132,39 32,27 48,63 48,110 0,26 -7,48 -21,67 -13,19 -33,34 -59,45 30,9 51,24 63,44 13,21 20,46 20,76l0 37c0,14 1,29 5,45 4,15 10,26 19,34l0 7 -102 0c-9,-8 -15,-20 -17,-37 -3,-17 -4,-33 -4,-49l0 -36c0,-25 -7,-45 -20,-59 -14,-14 -33,-20 -58,-20l-78 0zm0 -78l70 0c28,0 48,-6 62,-18 14,-12 20,-30 20,-54 0,-23 -6,-41 -20,-55 -14,-13 -34,-20 -60,-20l-72 0 0 147zm344 279l0 -504 172 0c60,0 110,20 149,59 39,39 59,90 59,152l0 83c0,62 -20,112 -59,151 -39,39 -89,59 -149,59l-172 0zm99 -426l0 348 73 0c32,0 59,-12 79,-37 19,-25 29,-56 29,-95l0 -84c0,-39 -10,-70 -29,-95 -20,-25 -47,-37 -79,-37l-73 0zm466 426l-99 0 0 -504 99 0 0 504zm498 0l-99 0 -200 -340 -2 0 0 340 -99 0 0 -504 99 0 200 339 2 0 0 -339 99 0 0 504zm354 -109l-160 0 -33 109 -104 0 167 -504 101 0 166 504 -103 0 -34 -109zm-135 -79l111 0 -54 -178 -2 0 -55 178zm634 -238l-141 0 0 426 -99 0 0 -426 -139 0 0 -78 379 0 0 78zm337 204l-184 0 0 144 218 0 0 78 -317 0 0 -504 317 0 0 78 -218 0 0 127 184 0 0 77zm1040 222l-99 0 0 -209 -201 0 0 209 -99 0 0 -504 99 0 0 217 201 0 0 -217 99 0 0 504zm355 -109l-160 0 -34 109 -103 0 167 -504 101 0 166 504 -104 0 -33 -109zm-136 -79l112 0 -55 -178 -2 0 -55 178zm420 -13l0 201 -99 0 0 -504 170 0c57,0 101,13 133,39 32,27 47,63 47,110 0,26 -6,48 -20,67 -13,19 -33,34 -59,45 29,9 50,24 63,44 13,21 19,46 19,76l0 37c0,14 2,29 6,45 4,15 10,26 19,34l0 7 -102 0c-9,-8 -15,-20 -17,-37 -3,-17 -4,-33 -4,-49l0 -36c0,-25 -7,-45 -21,-59 -13,-14 -32,-20 -57,-20l-78 0zm0 -78l70 0c28,0 48,-6 62,-18 14,-12 20,-30 20,-54 0,-23 -7,-41 -20,-55 -14,-13 -34,-20 -61,-20l-71 0 0 147zm442 96l0 183 -99 0 0 -504 189 0c57,0 102,15 134,44 33,30 49,69 49,117 0,48 -16,87 -49,116 -32,30 -77,44 -134,44l-90 0zm0 -78l90 0c28,0 49,-7 63,-23 14,-15 21,-35 21,-58 0,-25 -7,-45 -21,-60 -14,-16 -35,-24 -63,-24l-90 0 0 165z"/>
  <path class="fil14" d="M4253 46892l1 3c1,67 -19,119 -61,157 -41,39 -98,57 -171,58 -74,-1 -133,-25 -179,-73 -46,-49 -68,-112 -68,-189l0 -125c0,-76 22,-139 66,-188 45,-49 103,-73 175,-73 75,0 134,18 177,56 42,37 63,90 62,158l-1 3 -121 0c0,-41 -9,-71 -28,-90 -20,-20 -49,-30 -89,-30 -37,0 -66,15 -87,46 -21,30 -31,69 -31,117l0 126c0,49 11,88 33,119 22,30 52,46 91,46 37,0 65,-10 83,-30 19,-20 28,-50 28,-91l120 0zm4168 44c0,-24 -9,-44 -25,-58 -17,-15 -46,-29 -87,-42 -71,-22 -126,-48 -163,-77 -36,-30 -55,-70 -55,-122 0,-51 21,-94 63,-126 41,-33 94,-49 159,-49 68,0 123,17 165,52 41,36 62,82 60,139l-1 2 -120 0c0,-31 -9,-55 -28,-72 -18,-17 -44,-25 -78,-25 -31,0 -54,7 -71,22 -17,15 -25,34 -25,58 0,21 9,38 27,52 18,14 50,28 94,44 68,19 119,45 155,76 36,32 54,74 54,125 0,54 -21,97 -62,128 -42,31 -96,46 -164,47 -67,-1 -124,-17 -171,-51 -48,-34 -71,-84 -70,-151l1 -3 120 0c0,38 11,65 33,83 21,17 50,26 87,26 33,0 58,-7 76,-21 17,-14 26,-33 26,-57zm-3690 -42c0,62 -19,113 -58,153 -38,41 -88,61 -149,61 -61,0 -111,-20 -149,-61 -38,-40 -57,-91 -57,-153l0 -91c0,-61 19,-112 57,-153 38,-40 87,-61 148,-61 62,0 111,21 150,61 38,41 58,92 58,153l0 91zm-99 -91c0,-40 -10,-72 -29,-97 -19,-25 -46,-38 -80,-38 -33,0 -59,13 -78,38 -19,25 -28,57 -28,97l0 91c0,40 9,72 28,97 19,26 45,38 79,38 34,0 60,-12 79,-38 19,-25 29,-57 29,-97l0 -91zm577 91c0,62 -19,113 -58,153 -38,41 -88,61 -149,61 -61,0 -111,-20 -149,-61 -38,-40 -57,-91 -57,-153l0 -91c0,-61 19,-112 57,-153 38,-40 88,-61 148,-61 62,0 112,21 150,61 39,41 58,92 58,153l0 91zm-99 -91c0,-40 -10,-72 -29,-97 -19,-25 -46,-38 -80,-38 -33,0 -59,13 -78,38 -19,25 -28,57 -28,97l0 91c0,40 10,72 28,97 19,26 45,38 79,38 34,0 60,-12 79,-38 19,-25 29,-57 29,-97l0 -91zm276 96l0 201 -99 0 0 -503 171 0c57,0 101,13 132,39 32,26 48,63 48,109 0,26 -7,49 -20,67 -14,19 -33,34 -59,46 29,9 50,23 63,44 13,20 19,46 19,76l0 37c0,14 2,29 6,44 3,15 10,27 19,34l0 7 -102 0c-9,-7 -15,-19 -18,-36 -2,-17 -4,-34 -4,-50l0 -35c0,-25 -6,-45 -20,-59 -13,-14 -32,-21 -57,-21l-79 0zm0 -78l70 0c28,0 49,-6 63,-18 13,-12 20,-30 20,-53 0,-23 -7,-41 -21,-55 -13,-14 -33,-20 -60,-20l-72 0 0 146zm344 279l0 -503 172 0c61,0 111,19 150,59 39,39 58,89 58,151l0 83c0,62 -19,113 -58,152 -39,39 -89,58 -150,58l-172 0zm99 -425l0 348 73 0c33,0 59,-12 79,-37 20,-25 30,-57 30,-96l0 -84c0,-38 -10,-70 -30,-94 -20,-25 -46,-37 -79,-37l-73 0zm467 425l-99 0 0 -503 99 0 0 503zm497 0l-99 0 -199 -339 -2 0 0 339 -99 0 0 -503 99 0 199 339 2 0 0 -339 99 0 0 503zm355 -108l-160 0 -34 108 -103 0 166 -503 102 0 166 503 -104 0 -33 -108zm-136 -79l112 0 -55 -178 -2 0 -55 178zm635 -238l-142 0 0 425 -99 0 0 -425 -139 0 0 -78 380 0 0 78zm336 204l-183 0 0 144 218 0 0 77 -317 0 0 -503 316 0 0 78 -217 0 0 126 183 0 0 78zm1041 221l-99 0 0 -209 -202 0 0 209 -99 0 0 -503 99 0 0 216 202 0 0 -216 99 0 0 503zm354 -108l-160 0 -33 108 -103 0 166 -503 102 0 166 503 -104 0 -34 -108zm-135 -79l111 0 -54 -178 -2 0 -55 178zm419 -14l0 201 -99 0 0 -503 171 0c56,0 100,13 132,39 32,26 48,63 48,109 0,26 -7,49 -20,67 -14,19 -33,34 -59,46 29,9 50,23 63,44 13,20 19,46 19,76l0 37c0,14 2,29 6,44 3,15 10,27 19,34l0 7 -102 0c-10,-7 -15,-19 -18,-36 -3,-17 -4,-34 -4,-50l0 -35c0,-25 -7,-45 -20,-59 -13,-14 -32,-21 -57,-21l-79 0zm0 -78l70 0c28,0 49,-6 62,-18 14,-12 21,-30 21,-53 0,-23 -7,-41 -21,-55 -13,-14 -33,-20 -60,-20l-72 0 0 146zm443 97l0 182 -99 0 0 -503 189 0c57,0 101,14 134,44 32,29 49,68 49,117 0,48 -17,87 -49,116 -33,29 -77,44 -134,44l-90 0zm0 -78l90 0c27,0 48,-8 63,-23 14,-15 21,-35 21,-59 0,-24 -7,-44 -21,-60 -14,-16 -35,-23 -63,-23l-90 0 0 165z"/>
  <g id="_1901157843024">
   <path class="fil3" d="M13286 45905c-347,-308 -860,-386 -1300,-155 -583,306 -815,1041 -520,1642l0 0 1 2c299,624 1060,869 1659,554 580,-304 826,-1016 578,-1625 93,-108 158,-270 85,-384 -96,-151 -371,-118 -503,-34l0 0z"/>
   <path class="fil5" d="M12463 46377c-51,6 -101,21 -149,46 -14,8 -27,16 -40,24l-71 -27c-29,-11 -62,-11 -92,-2 47,-55 106,-103 176,-139 14,-8 28,-15 43,-21l133 119z"/>
   <path class="fil5" d="M12073 46835c-1,79 17,160 54,237 39,79 98,142 168,187l13 46c3,9 7,18 11,26 -117,-41 -218,-129 -283,-262 -52,-104 -72,-215 -62,-323l99 89z"/>
   <path class="fil5" d="M12530 47336c75,3 153,-11 225,-47l1 2c-88,43 -177,65 -261,67l35 -22z"/>
   <path class="fil5" d="M12285 46217c-19,8 -37,17 -55,26 -116,61 -205,153 -264,262l-30 19c-55,35 -66,100 -35,150 -36,154 -21,322 55,476 161,325 564,490 886,315l2 4c-376,179 -805,53 -986,-313 -181,-367 -35,-820 326,-1028l101 89z"/>
   <path class="fil5" d="M12133 46068c-408,218 -565,744 -350,1178 212,431 723,620 1144,392l5 9c-457,226 -997,45 -1225,-416 -234,-473 -43,-1057 428,-1304 11,-7 23,-12 35,-18 -51,41 -63,105 -37,159z"/>
   <path class="fil5" d="M12597 45821c188,7 370,73 524,188l-73 47 -451 -235z"/>
   <path class="fil5" d="M13131 46003c-169,-131 -377,-206 -590,-212l-22 -11c-47,-25 -108,-25 -153,4l-40 25c-91,18 -182,49 -268,94 -499,262 -691,904 -429,1433 259,523 877,739 1389,487l2 2c-548,271 -1205,51 -1478,-501 -277,-560 -53,-1249 500,-1540 412,-216 889,-150 1229,130l-140 89z"/>
   <path class="fil5" d="M13711 45989c-63,-98 -282,-65 -375,-6l-283 180 -577 -301c-18,-9 -43,-11 -61,0l-182 116c-15,10 -36,37 -3,66l420 376 -266 169 -214 -82c-13,-5 -30,-3 -42,5l-142 90c-13,9 -10,21 1,31l296 265 114 380c5,15 15,23 28,14l142 -90c12,-8 21,-22 22,-36l17 -229 266 -169 162 539c13,43 46,35 61,25l182 -116c18,-10 27,-35 26,-55l-29 -649 283 -180c94,-60 216,-245 154,-343z"/>
   <path class="fil14" d="M15146 46892l1 3c1,67 -19,119 -60,157 -42,39 -99,57 -171,58 -75,-1 -134,-25 -180,-73 -45,-49 -68,-112 -68,-189l0 -125c0,-76 22,-139 66,-188 45,-49 103,-73 175,-73 76,0 134,18 177,56 42,37 63,90 62,158l-1 3 -121 0c0,-41 -9,-71 -28,-90 -19,-20 -49,-30 -89,-30 -37,0 -66,15 -87,46 -20,30 -31,69 -31,117l0 126c0,49 11,88 33,119 22,30 52,46 92,46 37,0 64,-10 83,-30 18,-20 27,-50 27,-91l120 0zm4168 44c0,-24 -8,-44 -25,-58 -16,-15 -46,-29 -87,-42 -71,-22 -125,-48 -162,-77 -37,-30 -56,-70 -56,-122 0,-51 21,-94 63,-126 41,-33 94,-49 159,-49 68,0 123,17 165,52 42,36 62,82 60,139l0 2 -121 0c0,-31 -9,-55 -28,-72 -18,-17 -44,-25 -78,-25 -30,0 -54,7 -71,22 -17,15 -25,34 -25,58 0,21 9,38 27,52 18,14 50,28 94,44 68,19 120,45 155,76 36,32 54,74 54,125 0,54 -21,97 -62,128 -41,31 -96,46 -164,47 -66,-1 -123,-17 -171,-51 -48,-34 -71,-84 -69,-151l0 -3 120 0c0,38 11,65 33,83 21,17 50,26 87,26 33,0 58,-7 76,-21 17,-14 26,-33 26,-57zm-3690 -42c0,62 -19,113 -58,153 -38,41 -88,61 -149,61 -61,0 -111,-20 -149,-61 -38,-40 -57,-91 -57,-153l0 -91c0,-61 19,-112 57,-153 38,-40 88,-61 148,-61 62,0 112,21 150,61 39,41 58,92 58,153l0 91zm-99 -91c0,-40 -10,-72 -29,-97 -19,-25 -46,-38 -80,-38 -33,0 -59,13 -78,38 -19,25 -28,57 -28,97l0 91c0,40 10,72 28,97 19,26 45,38 79,38 34,0 60,-12 79,-38 19,-25 29,-57 29,-97l0 -91zm577 91c0,62 -19,113 -57,153 -39,41 -88,61 -150,61 -61,0 -110,-20 -148,-61 -38,-40 -57,-91 -57,-153l0 -91c0,-61 19,-112 56,-153 38,-40 88,-61 149,-61 61,0 111,21 149,61 39,41 58,92 58,153l0 91zm-99 -91c0,-40 -9,-72 -29,-97 -19,-25 -45,-38 -79,-38 -34,0 -60,13 -79,38 -18,25 -28,57 -28,97l0 91c0,40 10,72 29,97 18,26 45,38 78,38 34,0 61,-12 80,-38 19,-25 28,-57 28,-97l0 -91zm276 96l0 201 -99 0 0 -503 171 0c57,0 101,13 132,39 32,26 48,63 48,109 0,26 -7,49 -20,67 -14,19 -33,34 -59,46 29,9 50,23 63,44 13,20 19,46 19,76l0 37c0,14 2,29 6,44 4,15 10,27 19,34l0 7 -102 0c-9,-7 -15,-19 -18,-36 -2,-17 -3,-34 -3,-50l0 -35c0,-25 -7,-45 -21,-59 -13,-14 -32,-21 -57,-21l-79 0zm0 -78l71 0c27,0 48,-6 62,-18 13,-12 20,-30 20,-53 0,-23 -7,-41 -20,-55 -14,-14 -34,-20 -61,-20l-72 0 0 146zm344 279l0 -503 173 0c60,0 110,19 149,59 39,39 59,89 59,151l0 83c0,62 -20,113 -59,152 -39,39 -89,58 -149,58l-173 0zm99 -425l0 348 74 0c32,0 58,-12 78,-37 20,-25 30,-57 30,-96l0 -84c0,-38 -10,-70 -30,-94 -20,-25 -46,-37 -78,-37l-74 0zm467 425l-99 0 0 -503 99 0 0 503zm497 0l-99 0 -199 -339 -2 0 0 339 -99 0 0 -503 99 0 199 339 2 0 0 -339 99 0 0 503zm355 -108l-160 0 -33 108 -104 0 167 -503 101 0 166 503 -103 0 -34 -108zm-136 -79l112 0 -55 -178 -2 0 -55 178zm635 -238l-141 0 0 425 -100 0 0 -425 -139 0 0 -78 380 0 0 78zm336 204l-183 0 0 144 218 0 0 77 -317 0 0 -503 316 0 0 78 -217 0 0 126 183 0 0 78zm1041 221l-99 0 0 -209 -201 0 0 209 -99 0 0 -503 99 0 0 216 201 0 0 -216 99 0 0 503zm355 -108l-161 0 -33 108 -103 0 166 -503 102 0 166 503 -104 0 -33 -108zm-136 -79l111 0 -54 -178 -2 0 -55 178zm419 -14l0 201 -99 0 0 -503 171 0c57,0 101,13 132,39 32,26 48,63 48,109 0,26 -7,49 -20,67 -14,19 -33,34 -59,46 29,9 50,23 63,44 13,20 19,46 19,76l0 37c0,14 2,29 6,44 3,15 10,27 19,34l0 7 -102 0c-9,-7 -15,-19 -18,-36 -2,-17 -4,-34 -4,-50l0 -35c0,-25 -6,-45 -20,-59 -13,-14 -32,-21 -57,-21l-79 0zm0 -78l70 0c28,0 49,-6 63,-18 13,-12 20,-30 20,-53 0,-23 -7,-41 -21,-55 -13,-14 -33,-20 -60,-20l-72 0 0 146zm443 97l0 182 -99 0 0 -503 189 0c57,0 101,14 134,44 33,29 49,68 49,117 0,48 -16,87 -49,116 -33,29 -77,44 -134,44l-90 0zm0 -78l90 0c28,0 48,-8 63,-23 14,-15 21,-35 21,-59 0,-24 -7,-44 -21,-60 -14,-16 -35,-23 -63,-23l-90 0 0 165z"/>
  </g>
 </g>
</svg>
