<?xml version="1.0" encoding="UTF-8"?>
<!DOCTYPE svg PUBLIC "-//W3C//DTD SVG 1.1//EN" "http://www.w3.org/Graphics/SVG/1.1/DTD/svg11.dtd">
<!-- Creator: CorelDRAW X7 -->
<svg xmlns="http://www.w3.org/2000/svg" xml:space="preserve" width="99.331mm" height="24.6915mm" version="1.1" style="shape-rendering:geometricPrecision; text-rendering:geometricPrecision; image-rendering:optimizeQuality; fill-rule:evenodd; clip-rule:evenodd"
viewBox="0 0 90878 22590"
 xmlns:xlink="http://www.w3.org/1999/xlink">
 <defs>
  <style type="text/css">
   <![CDATA[
    .fil1 {fill:#FEFEFE}
    .fil0 {fill:#373435}
    .fil2 {fill:#373435;fill-rule:nonzero}
   ]]>
  </style>
 </defs>
 <g id="Capa_x0020_1">
  <metadata id="CorelCorpID_0Corel-Layer"/>
  <g id="_1901355745920">
   <path class="fil0" d="M17819 2641c-3167,-2811 -7866,-3530 -11888,-1418 -5335,2802 -7461,9525 -4758,15028l0 -1 6 13c2739,5716 9697,7952 15180,5072 5303,-2785 7557,-9296 5289,-14863 849,-995 1443,-2473 780,-3515 -881,-1385 -3401,-1085 -4607,-317l-2 1z"/>
   <path class="fil1" d="M10293 6963c-461,55 -921,192 -1358,422 -129,68 -252,142 -371,221l-650 -248c-268,-102 -569,-105 -842,-19 432,-505 971,-941 1610,-1276 130,-69 262,-132 395,-189l1216 1089z"/>
   <path class="fil1" d="M6727 11154c-8,723 151,1465 496,2163 357,723 894,1306 1530,1718l126 419c25,85 59,164 101,237 -1077,-377 -1994,-1181 -2595,-2396 -470,-951 -652,-1972 -567,-2954l909 813z"/>
   <path class="fil1" d="M10905 15732c692,35 1399,-98 2060,-422l9 17c-805,390 -1616,592 -2390,610l321 -205z"/>
   <path class="fil1" d="M8662 5503c-170,69 -338,146 -504,233 -1054,554 -1872,1398 -2414,2396l-273 174c-504,321 -598,919 -316,1377 -331,1404 -190,2944 503,4348 1473,2979 5160,4484 8101,2885l17 34c-3433,1639 -7364,487 -9020,-2864 -1657,-3352 -318,-7498 2987,-9406l919 823z"/>
   <path class="fil1" d="M7279 4134c-3735,1993 -5173,6805 -3211,10776 1949,3941 6621,5673 10473,3588l40 80c-4173,2068 -9118,414 -11203,-3803 -2141,-4331 -390,-9674 3912,-11933 108,-57 216,-110 324,-161 -464,370 -579,957 -335,1453z"/>
   <path class="fil1" d="M11524 1874c1712,69 3377,670 4793,1723l-671 427 -4122 -2150z"/>
   <path class="fil1" d="M16409 3538c-1551,-1199 -3454,-1881 -5404,-1935l-197 -103c-432,-226 -989,-232 -1406,33l-361 230c-836,163 -1661,447 -2453,863 -4563,2396 -6321,8266 -3926,13110 2367,4788 8029,6761 12711,4453l16 24c-5015,2478 -11023,462 -13518,-4585 -2533,-5125 -485,-11433 4576,-14091 3763,-1976 8131,-1376 11235,1191l-1273 810z"/>
   <path class="fil1" d="M21711 3413c-571,-896 -2580,-599 -3434,-56l-2589 1648 -5273 -2751c-165,-86 -400,-103 -557,-4l-1664 1060c-145,92 -333,336 -28,608l3836 3433 -2434 1549 -1957 -748c-120,-45 -275,-25 -383,43l-1301 828c-120,77 -92,191 9,282l2708 2424 1049 3480c39,130 132,203 252,127l1301 -828c108,-69 191,-200 201,-328l152 -2090 2433 -1549 1485 4929c119,391 419,324 563,232l1665 -1060c157,-99 241,-320 233,-505l-260 -5942 2589 -1648c854,-543 1974,-2238 1404,-3134z"/>
   <path class="fil2" d="M34840 11674l8 23c10,616 -173,1097 -551,1445 -379,349 -899,522 -1564,523 -678,-1 -1226,-223 -1641,-667 -418,-445 -626,-1020 -626,-1724l0 -1144c0,-701 203,-1277 610,-1724 406,-447 939,-670 1598,-670 689,0 1227,172 1615,515 388,343 576,825 567,1448l-8 24 -1102 0c0,-370 -87,-646 -262,-825 -175,-181 -445,-272 -810,-272 -339,0 -604,139 -793,418 -191,278 -285,637 -285,1078l0 1152c0,443 100,805 301,1085 200,279 478,418 836,418 339,0 592,-90 759,-270 167,-181 250,-459 250,-833l1098 0zm38132 404c0,-222 -75,-400 -226,-535 -151,-134 -417,-261 -798,-380 -651,-201 -1147,-436 -1485,-708 -337,-273 -506,-643 -506,-1113 0,-471 190,-858 571,-1158 381,-298 865,-448 1455,-448 626,0 1130,161 1511,482 382,323 567,745 554,1267l-8 23 -1098 0c0,-287 -86,-508 -257,-662 -171,-155 -409,-232 -718,-232 -278,0 -496,69 -648,207 -152,136 -229,312 -229,525 0,196 83,355 249,481 166,126 452,258 857,399 621,178 1094,413 1421,702 326,289 489,669 489,1141 0,494 -189,883 -567,1168 -377,285 -877,427 -1498,428 -608,-1 -1130,-156 -1566,-464 -436,-309 -647,-769 -634,-1381l8 -23 1098 0c0,340 98,590 295,751 196,160 463,242 799,242 303,0 534,-65 693,-195 159,-128 238,-301 238,-517zm-33760 -387c0,567 -175,1035 -525,1404 -349,368 -805,552 -1366,553 -559,-1 -1013,-185 -1360,-554 -348,-370 -522,-838 -522,-1403l0 -830c0,-563 174,-1030 521,-1401 346,-370 798,-555 1355,-555 561,0 1017,185 1369,555 352,371 528,838 528,1401l0 830zm-904 -835c0,-360 -88,-654 -264,-884 -176,-230 -418,-345 -729,-345 -306,0 -545,115 -716,345 -171,230 -256,524 -256,884l0 835c0,365 86,662 258,893 172,230 412,344 720,344 311,0 553,-114 726,-344 174,-231 261,-528 261,-893l0 -835zm5279 835c0,567 -175,1035 -525,1404 -350,368 -805,552 -1366,553 -559,-1 -1013,-185 -1361,-554 -347,-370 -521,-838 -521,-1403l0 -830c0,-563 174,-1030 520,-1401 347,-370 798,-555 1356,-555 560,0 1017,185 1369,555 352,371 528,838 528,1401l0 830zm-904 -835c0,-360 -88,-654 -264,-884 -176,-230 -419,-345 -729,-345 -307,0 -545,115 -717,345 -170,230 -255,524 -255,884l0 835c0,365 86,662 257,893 172,230 413,344 721,344 311,0 552,-114 726,-344 174,-231 261,-528 261,-893l0 -835zm2527 883l0 1842 -906 0 0 -4610 1564 0c516,0 919,120 1210,360 291,240 436,574 436,1002 0,236 -61,441 -184,612 -124,172 -303,312 -540,416 267,80 459,215 577,402 116,188 175,421 175,697l0 339c0,128 17,263 52,404 33,140 92,244 174,311l0 67 -934 0c-83,-68 -136,-179 -160,-336 -24,-156 -35,-307 -35,-452l0 -326c0,-230 -62,-410 -186,-537 -123,-128 -297,-191 -522,-191l-721 0zm0 -713l642 0c256,0 444,-55 569,-165 124,-109 186,-272 186,-487 0,-211 -63,-379 -188,-504 -125,-124 -308,-186 -551,-186l-658 0 0 1342zm3146 2555l0 -4610 1576 0c553,0 1008,180 1367,540 358,360 537,822 537,1386l0 763c0,565 -179,1026 -537,1384 -359,358 -814,537 -1367,537l-1576 0zm906 -3897l0 3188 670 0c298,0 539,-113 721,-340 181,-227 272,-518 272,-872l0 -770c0,-352 -91,-642 -272,-868 -182,-225 -423,-338 -721,-338l-670 0zm4269 3897l-907 0 0 -4610 907 0 0 4610zm4552 0l-907 0 -1822 -3109 -19 3 0 3106 -906 0 0 -4610 906 0 1823 3106 18 -3 0 -3103 907 0 0 4610zm3244 -994l-1466 0 -304 994 -946 0 1524 -4610 928 0 1519 4610 -948 0 -307 -994zm-1242 -725l1021 0 -499 -1625 -19 0 -503 1625zm5805 -2178l-1292 0 0 3897 -906 0 0 -3897 -1273 0 0 -713 3471 0 0 713zm3080 1871l-1677 0 0 1317 1994 0 0 709 -2900 0 0 -4610 2893 0 0 713 -1987 0 0 1159 1677 0 0 712zm9521 2026l-907 0 0 -1915 -1841 0 0 1915 -906 0 0 -4610 906 0 0 1982 1841 0 0 -1982 907 0 0 4610zm3244 -994l-1466 0 -304 994 -946 0 1523 -4610 929 0 1518 4610 -947 0 -307 -994zm-1242 -725l1021 0 -499 -1625 -19 0 -503 1625zm3837 -123l0 1842 -906 0 0 -4610 1564 0c516,0 919,120 1209,360 292,240 437,574 437,1002 0,236 -62,441 -185,612 -124,172 -303,312 -539,416 267,80 459,215 576,402 117,188 175,421 175,697l0 339c0,128 17,263 52,404 34,140 93,244 175,311l0 67 -935 0c-82,-68 -135,-179 -160,-336 -23,-156 -34,-307 -34,-452l0 -326c0,-230 -62,-410 -186,-537 -123,-128 -297,-191 -522,-191l-721 0zm0 -713l642 0c256,0 444,-55 569,-165 124,-109 186,-272 186,-487 0,-211 -63,-379 -188,-504 -125,-124 -308,-186 -551,-186l-658 0 0 1342zm4051 883l0 1672 -906 0 0 -4610 1729 0c520,0 928,135 1227,405 298,270 447,626 447,1068 0,441 -149,795 -447,1063 -299,268 -707,402 -1227,402l-823 0zm0 -712l823 0c253,0 444,-70 574,-211 131,-140 196,-318 196,-536 0,-222 -64,-405 -194,-550 -129,-144 -321,-216 -576,-216l-823 0 0 1513z"/>
  </g>
 </g>
</svg>
