<?xml version="1.0" encoding="UTF-8"?>
<!DOCTYPE svg PUBLIC "-//W3C//DTD SVG 1.1//EN" "http://www.w3.org/Graphics/SVG/1.1/DTD/svg11.dtd">
<!-- Creator: CorelDRAW X7 -->
<svg xmlns="http://www.w3.org/2000/svg" xml:space="preserve" width="215.9mm" height="500mm" version="1.1" style="shape-rendering:geometricPrecision; text-rendering:geometricPrecision; image-rendering:optimizeQuality; fill-rule:evenodd; clip-rule:evenodd"
viewBox="0 0 21590 50000"
 xmlns:xlink="http://www.w3.org/1999/xlink">
 <defs>
  <style type="text/css">
   <![CDATA[
    .fil5 {fill:#FEFEFE}
    .fil17 {fill:#D2D3D5}
    .fil3 {fill:#373435}
    .fil13 {fill:#FEFEFE;fill-rule:nonzero}
    .fil12 {fill:#373435;fill-rule:nonzero}
    .fil14 {fill:#373435;fill-rule:nonzero}
    .fil11 {fill:url(#id0)}
    .fil8 {fill:url(#id1)}
    .fil0 {fill:url(#id2)}
    .fil1 {fill:url(#id3)}
    .fil6 {fill:url(#id4)}
    .fil7 {fill:url(#id5)}
    .fil4 {fill:url(#id6)}
    .fil15 {fill:url(#id7)}
    .fil10 {fill:url(#id8)}
    .fil9 {fill:url(#id9)}
    .fil2 {fill:url(#id10)}
    .fil16 {fill:url(#id11)}
   ]]>
  </style>
  <linearGradient id="id0" gradientUnits="userSpaceOnUse" x1="16082.7" y1="18818.1" x2="21303.3" y2="18818.1">
   <stop offset="0" style="stop-opacity:1; stop-color:#00AFEF"/>
   <stop offset="1" style="stop-opacity:1; stop-color:#3E4095"/>
  </linearGradient>
  <linearGradient id="id1" gradientUnits="userSpaceOnUse" xlink:href="#id0" x1="10859.1" y1="18840" x2="15410.3" y2="18840">
  </linearGradient>
  <linearGradient id="id2" gradientUnits="objectBoundingBox" xlink:href="#id0" x1="0%" y1="55.544%" x2="127.354%" y2="55.544%">
  </linearGradient>
  <linearGradient id="id3" gradientUnits="objectBoundingBox" xlink:href="#id0" x1="0%" y1="55.544%" x2="127.354%" y2="55.544%">
  </linearGradient>
  <linearGradient id="id4" gradientUnits="userSpaceOnUse" xlink:href="#id0" x1="2896.52" y1="4353.1" x2="7447.69" y2="4353.1">
  </linearGradient>
  <linearGradient id="id5" gradientUnits="userSpaceOnUse" xlink:href="#id0" x1="79.95" y1="18840" x2="4631.12" y2="18840">
  </linearGradient>
  <linearGradient id="id6" gradientUnits="userSpaceOnUse" xlink:href="#id0" x1="2337.03" y1="25211.2" x2="5131.47" y2="25211.2">
  </linearGradient>
  <linearGradient id="id7" gradientUnits="userSpaceOnUse" xlink:href="#id0" x1="5270.53" y1="11618.7" x2="8945.27" y2="11618.7">
  </linearGradient>
  <linearGradient id="id8" gradientUnits="userSpaceOnUse" xlink:href="#id0" x1="5408.69" y1="18840" x2="9959.88" y2="18840">
  </linearGradient>
  <linearGradient id="id9" gradientUnits="userSpaceOnUse" xlink:href="#id0" x1="13818.5" y1="4353.1" x2="18369.7" y2="4353.1">
  </linearGradient>
  <linearGradient id="id10" gradientUnits="userSpaceOnUse" xlink:href="#id0" x1="5396.33" y1="17715" x2="10127.8" y2="19921.3">
  </linearGradient>
  <linearGradient id="id11" gradientUnits="userSpaceOnUse" xlink:href="#id0" x1="7670.01" y1="25469.1" x2="11344.8" y2="25469.1">
  </linearGradient>
 </defs>
 <g id="Capa_x0020_1">
  <metadata id="CorelCorpID_0Corel-Layer"/>
  <path class="fil0" d="M1680 22984l3945 0c181,0 329,148 329,328l0 3945c0,181 -148,329 -329,329l-3945 0c-180,0 -328,-148 -328,-329l0 -3945c0,-180 148,-328 328,-328z"/>
  <path class="fil1" d="M15322 28145l3945 0c181,0 329,148 329,328l0 3945c0,181 -148,329 -329,329l-3945 0c-181,0 -329,-148 -329,-329l0 -3945c0,-180 148,-328 329,-328z"/>
  <path class="fil2" d="M6133 16859l3023 0c138,0 252,114 252,252l0 3023c0,139 -114,252 -252,252l-3023 0c-139,0 -252,-113 -252,-252l0 -3023c0,-138 113,-252 252,-252z"/>
  <path class="fil3" d="M15322 35629l3945 0c181,0 329,148 329,329l0 3945c0,181 -148,328 -329,328l-3945 0c-181,0 -329,-147 -329,-328l0 -3945c0,-181 148,-329 329,-329z"/>
  <path class="fil0" d="M6973 22984l12162 0c272,0 493,222 493,493l0 3616c0,271 -221,493 -493,493l-12162 0c-271,0 -493,-222 -493,-493l0 -3616c0,-271 222,-493 493,-493z"/>
  <path class="fil1" d="M1943 28145l12163 0c271,0 493,222 493,493l0 3616c0,271 -222,493 -493,493l-12163 0c-271,0 -493,-222 -493,-493l0 -3616c0,-271 222,-493 493,-493z"/>
  <path class="fil4" d="M4208 24388c-263,-234 -653,-294 -988,-118 -443,233 -620,792 -395,1249l0 0 0 1c228,475 806,661 1262,422 441,-232 628,-773 440,-1236 70,-82 120,-205 64,-292 -73,-115 -282,-90 -383,-26l0 0z"/>
  <path class="fil3" d="M10947 36734c-264,-233 -654,-293 -988,-117 -444,232 -621,791 -396,1249l0 -1 1 2c227,475 806,661 1261,421 441,-231 628,-773 440,-1235 71,-83 120,-206 65,-292 -73,-116 -283,-91 -383,-27l0 0z"/>
  <path class="fil5" d="M17850 29549c-263,-234 -654,-294 -988,-118 -443,233 -620,792 -395,1249l-1 0 1 1c228,475 806,661 1262,422 440,-232 628,-773 439,-1236 71,-83 120,-205 65,-292 -73,-115 -282,-90 -383,-26l0 0zm324 64c-48,-75 -215,-50 -286,-5l-215 137 -438 -228c-14,-8 -34,-9 -47,-1l-138 88c-12,8 -28,28 -2,51l319 285 -203 129 -162 -62c-10,-4 -23,-2 -32,3l-108 69c-10,7 -8,16 0,24l226 201 87 289c3,11 11,17 21,11l108 -69c9,-6 16,-17 16,-27l13 -174 202 -129 124 410c10,32 35,27 47,19l138 -88c13,-8 20,-26 19,-42l-21 -494 215 -137c71,-45 164,-186 117,-260zm-441 10c-129,-99 -287,-156 -449,-161l-17 -8c-36,-19 -82,-19 -117,3l-30 19c-69,13 -138,37 -203,71 -380,200 -526,687 -327,1090 197,398 668,562 1057,370l1 2c-417,206 -916,39 -1123,-381 -211,-426 -41,-950 380,-1171 313,-164 676,-114 934,99l-106 67zm-406 -138c142,6 281,56 398,143l-56 36 -342 -179zm-353 188c-310,165 -430,565 -267,895 162,328 550,472 871,299l3 6c-347,172 -758,35 -931,-316 -178,-360 -33,-804 325,-992 9,-4 18,-9 27,-13 -39,31 -48,80 -28,121zm115 114c-14,5 -28,12 -42,19 -88,46 -156,116 -201,199l-22 15c-42,26 -50,76 -27,114 -27,117 -15,245 42,361 123,248 429,373 674,240l1 3c-285,136 -612,41 -750,-238 -137,-279 -26,-623 249,-782l76 69zm186 850c58,3 117,-8 172,-35l0 1c-66,33 -134,49 -198,51l26 -17zm-347 -381c-1,60 13,122 41,180 30,60 75,109 128,143l10 35c2,7 5,13 8,19 -89,-31 -165,-98 -215,-199 -39,-79 -54,-164 -47,-245l75 67zm297 -348c-39,4 -77,16 -113,35 -11,6 -21,12 -31,18l-54 -20c-22,-9 -48,-9 -70,-2 36,-42 81,-78 134,-106 10,-6 21,-11 32,-16l102 91z"/>
  <path class="fil5" d="M17850 37033c-263,-233 -654,-293 -988,-117 -443,233 -620,791 -395,1249l-1 0 1 1c228,475 806,661 1262,421 440,-231 628,-772 439,-1235 71,-83 120,-206 65,-292 -73,-115 -282,-90 -383,-27l0 0zm324 65c-48,-75 -215,-50 -286,-5l-215 137 -438 -229c-14,-7 -34,-8 -47,0l-138 88c-12,8 -28,28 -2,51l319 285 -203 129 -162 -62c-10,-4 -23,-3 -32,3l-108 69c-10,6 -8,16 0,23l226 202 87 289c3,11 11,17 21,11l108 -69c9,-6 16,-17 16,-27l13 -174 202 -129 124 410c10,32 35,27 47,19l138 -88c13,-8 20,-27 19,-42l-21 -494 215 -137c71,-45 164,-186 117,-260zm-441 10c-129,-100 -287,-156 -449,-161l-17 -8c-36,-19 -82,-20 -117,2l-30 20c-69,13 -138,37 -203,71 -380,199 -526,687 -327,1090 197,398 668,562 1057,370l1 2c-417,206 -916,38 -1123,-381 -211,-426 -41,-950 380,-1171 313,-165 676,-115 934,99l-106 67zm-406 -138c142,5 281,55 398,143l-56 35 -342 -178zm-353 188c-310,165 -430,565 -267,895 162,328 550,472 871,298l3 7c-347,172 -758,35 -931,-316 -178,-360 -33,-804 325,-992 9,-5 18,-9 27,-13 -39,31 -48,79 -28,121zm115 113c-14,6 -28,13 -42,20 -88,46 -156,116 -201,199l-22 14c-42,27 -50,77 -27,115 -27,116 -15,245 42,361 123,248 429,373 674,240l1 3c-285,136 -612,40 -750,-238 -137,-279 -26,-623 249,-782l76 68zm186 851c58,2 117,-9 172,-35l0 1c-66,32 -134,49 -198,51l26 -17zm-347 -381c-1,60 13,122 41,180 30,60 75,108 128,143l10 34c2,8 5,14 8,20 -89,-31 -165,-98 -215,-199 -39,-79 -54,-164 -47,-246l75 68zm297 -348c-39,4 -77,16 -113,35 -11,5 -21,12 -31,18l-54 -20c-22,-9 -48,-9 -70,-2 36,-42 81,-78 134,-106 10,-6 21,-11 32,-16l102 91z"/>
  <path class="fil3" d="M5887 36759c-263,-234 -653,-293 -988,-118 -443,233 -620,792 -395,1249l0 0 0 1c228,475 806,661 1262,422 441,-232 628,-773 440,-1235 70,-83 120,-206 65,-293 -74,-115 -283,-90 -383,-26l-1 0zm324 64c-48,-74 -215,-50 -285,-4l-216 137 -438 -229c-14,-7 -33,-9 -46,0l-139 88c-12,7 -27,28 -2,50l319 286 -202 128 -163 -62c-10,-4 -23,-2 -32,4l-108 69c-10,6 -8,15 1,23l225 201 87 290c3,11 11,17 21,10l108 -69c9,-5 16,-16 17,-27l12 -174 203 -128 123 409c10,33 35,27 47,20l138 -88c13,-9 20,-27 20,-42l-22 -494 215 -137c71,-45 164,-186 117,-261zm-441 11c-129,-100 -287,-157 -449,-161l-16 -9c-36,-18 -82,-19 -117,3l-30 19c-70,14 -138,37 -204,72 -379,199 -525,687 -326,1090 196,398 667,561 1056,370l1 2c-416,206 -916,38 -1123,-381 -211,-426 -40,-951 380,-1172 313,-164 676,-114 934,99l-106 68zm-406 -139c143,6 281,56 399,144l-56 35 -343 -179zm-353 188c-310,166 -430,566 -266,896 161,327 550,471 870,298l3 7c-347,172 -758,34 -931,-316 -178,-360 -32,-804 325,-992 9,-5 18,-9 27,-14 -38,31 -48,80 -28,121zm115 114c-14,6 -28,12 -42,19 -87,46 -155,117 -200,200l-23 14c-42,27 -50,76 -26,114 -28,117 -16,245 42,362 122,247 429,372 673,240l1 2c-285,137 -612,41 -749,-238 -138,-278 -27,-623 248,-781l76 68zm187 850c57,3 116,-8 171,-35l1 2c-67,32 -135,49 -199,50l27 -17zm-348 -380c0,60 13,121 42,179 29,61 74,109 127,143l10 35c2,7 5,14 9,20 -90,-32 -166,-98 -216,-199 -39,-79 -54,-164 -47,-246l75 68zm297 -349c-38,5 -77,16 -113,35 -11,6 -21,12 -31,19l-54 -21c-22,-8 -47,-9 -70,-1 36,-42 81,-79 134,-107 11,-5 22,-10 33,-15l101 90z"/>
  <path class="fil6" d="M4925 3597c-62,8 -124,26 -183,57 -18,9 -35,19 -51,30l-88 -33c-36,-14 -77,-15 -114,-3 59,-68 132,-127 218,-173 18,-9 36,-18 54,-25l164 147zm-482 567c-1,98 20,199 67,293 48,98 121,177 207,233l17 57c3,11 8,22 14,32 -146,-51 -270,-160 -352,-325 -63,-128 -88,-267 -76,-400l123 110zm565 620c94,5 190,-13 279,-57l1 2c-109,53 -218,80 -323,83l43 -28zm-303 -1385c-23,10 -46,20 -69,32 -142,75 -253,189 -326,324l-37 24c-68,43 -81,124 -43,186 -45,190 -26,399 68,589 199,403 698,607 1097,390l2 5c-465,222 -997,66 -1221,-388 -224,-453 -43,-1015 404,-1273l125 111zm-188 -185c-505,270 -700,921 -434,1459 264,533 896,768 1418,486l5 10c-565,280 -1234,57 -1517,-514 -290,-587 -52,-1310 530,-1616 14,-7 29,-15 44,-22 -63,51 -79,130 -46,197zm575 -306c232,10 457,91 649,233l-91 58 -558 -291zm661 226c-210,-163 -467,-255 -731,-263l-27 -13c-58,-31 -134,-32 -190,4l-49 31c-113,22 -225,61 -332,117 -618,324 -856,1119 -532,1775 321,648 1087,915 1721,603l2 3c-679,335 -1492,62 -1830,-621 -343,-694 -65,-1548 620,-1907 509,-268 1101,-187 1521,161l-173 110zm191 -122c-428,-380 -1065,-478 -1609,-192 -722,379 -1010,1290 -644,2034l0 0 1 2c370,774 1312,1077 2055,687 717,-377 1023,-1259 716,-2012 115,-135 195,-335 105,-476 -119,-188 -460,-147 -624,-43l0 0zm527 105c-77,-122 -349,-82 -465,-8l-350 223 -714 -372c-22,-12 -54,-14 -75,-1l-226 144c-19,12 -45,45 -4,82l520 465 -330 209 -265 -101c-16,-6 -37,-3 -51,6l-177 112c-16,10 -12,26 2,38l366 328 142 471c6,18 18,28 34,18l176 -113c15,-9 26,-27 28,-44l20 -283 330 -210 201 668c16,53 56,44 76,31l225 -143c21,-14 33,-44 32,-69l-35 -804 350 -223c116,-74 267,-303 190,-424z"/>
  <path class="fil7" d="M2109 18084c-63,7 -125,26 -184,57 -17,9 -34,19 -50,30l-88 -34c-36,-13 -77,-14 -114,-2 58,-68 131,-127 218,-173 17,-9 35,-18 53,-25l165 147zm-483 567c-1,98 21,199 67,293 49,98 121,177 207,233l17 56c4,12 8,23 14,32 -146,-50 -270,-159 -351,-324 -64,-129 -88,-267 -77,-400l123 110zm566 620c93,5 189,-13 279,-57l1 2c-109,53 -219,80 -324,83l44 -28zm-304 -1385c-23,10 -46,20 -68,32 -143,75 -254,189 -327,324l-37 24c-68,43 -81,124 -43,186 -44,190 -25,399 68,589 200,403 699,607 1097,390l2 5c-464,222 -997,66 -1221,-388 -224,-453 -43,-1015 405,-1273l124 111zm-187 -185c-506,270 -700,921 -435,1459 264,533 897,768 1418,486l5 10c-565,280 -1234,56 -1516,-514 -290,-587 -53,-1310 529,-1616 15,-8 30,-15 44,-22 -63,50 -78,130 -45,197zm575 -306c231,9 457,91 648,233l-91 58 -557 -291zm661 225c-210,-162 -468,-254 -732,-262l-26 -14c-59,-30 -134,-31 -191,5l-49 31c-113,22 -225,61 -332,117 -617,324 -855,1119 -531,1775 320,648 1087,915 1721,602l2 4c-679,335 -1492,62 -1830,-621 -343,-694 -66,-1548 619,-1908 510,-267 1101,-186 1521,162l-172 109zm191 -121c-429,-381 -1065,-478 -1610,-192 -722,379 -1010,1289 -644,2034l0 0 1 2c371,774 1313,1076 2055,687 718,-377 1023,-1259 716,-2012 115,-135 195,-335 106,-476 -120,-188 -461,-147 -624,-43l0 0zm526 104c-77,-121 -349,-81 -464,-7l-351 223 -714 -372c-22,-12 -54,-14 -75,-1l-225 143c-20,13 -45,46 -4,83l519 465 -329 209 -265 -101c-16,-6 -37,-3 -52,6l-176 112c-16,10 -13,26 1,38l367 328 142 471c5,18 17,28 34,17l176 -112c14,-9 26,-27 27,-44l21 -283 329 -210 201 668c16,53 57,43 76,31l226 -143c21,-14 32,-44 31,-69l-35 -804 350 -223c116,-74 268,-303 190,-425z"/>
  <g id="_1901317630736">
   <path class="fil8" d="M13907 17499c-429,-381 -1065,-478 -1609,-192 -723,379 -1010,1289 -644,2034l-1 0 1 2c371,774 1313,1076 2055,687 718,-377 1023,-1259 716,-2012 115,-135 196,-335 106,-476 -120,-188 -461,-147 -624,-43l0 0z"/>
   <path class="fil5" d="M14434 17603c-78,-121 -350,-81 -465,-7l-351 223 -713 -372c-23,-12 -55,-14 -76,-1l-225 143c-20,13 -45,46 -4,83l519 465 -329 209 -265 -101c-16,-6 -37,-3 -52,6l-176 112c-16,10 -12,26 1,38l367 328 142 471c5,18 18,28 34,17l176 -112c15,-9 26,-27 27,-44l21 -283 329 -210 201 668c16,53 57,43 76,31l226 -143c21,-14 32,-44 31,-69l-35 -804 351 -223c115,-74 267,-303 190,-425z"/>
   <path class="fil5" d="M13716 17620c-210,-162 -468,-254 -732,-262l-26 -14c-59,-30 -134,-31 -191,5l-48 31c-114,22 -225,61 -332,117 -618,324 -856,1119 -532,1775 320,648 1087,915 1721,602l2 4c-679,335 -1492,62 -1830,-621 -343,-694 -66,-1548 619,-1908 510,-267 1101,-186 1521,162l-172 109z"/>
   <path class="fil5" d="M13055 17395c231,9 457,91 649,233l-91 58 -558 -291z"/>
   <path class="fil5" d="M12480 17701c-506,270 -700,921 -435,1459 264,533 897,768 1418,486l5 10c-564,280 -1234,56 -1516,-514 -290,-587 -53,-1310 530,-1616 14,-8 29,-15 43,-22 -62,50 -78,130 -45,197z"/>
   <path class="fil5" d="M12667 17886c-23,10 -46,20 -68,32 -143,75 -253,189 -327,324l-37 24c-68,43 -81,124 -43,186 -44,190 -25,399 69,589 199,403 698,607 1096,390l3 5c-465,222 -997,66 -1222,-388 -224,-453 -42,-1015 405,-1273l124 111z"/>
   <path class="fil5" d="M12971 19271c94,5 189,-13 279,-57l1 2c-109,53 -219,80 -324,83l44 -28z"/>
   <path class="fil5" d="M12405 18651c-1,98 21,199 67,293 49,98 121,177 208,233l17 56c3,12 8,23 13,32 -145,-50 -270,-159 -351,-324 -64,-129 -88,-267 -77,-400l123 110z"/>
   <path class="fil5" d="M12888 18084c-62,7 -125,26 -184,57 -17,9 -34,19 -50,30l-88 -34c-36,-13 -77,-14 -114,-2 59,-68 131,-127 218,-173 18,-9 35,-18 53,-25l165 147z"/>
  </g>
  <path class="fil5" d="M4532 24452c-48,-75 -215,-50 -286,-5l-215 137 -438 -228c-14,-7 -33,-9 -46,-1l-139 88c-12,8 -27,28 -2,51l319 285 -202 129 -163 -62c-10,-4 -23,-2 -32,3l-108 69c-10,7 -8,16 1,24l225 201 87 289c3,11 11,17 21,11l108 -69c9,-6 16,-16 17,-27l12 -174 203 -129 123 410c10,33 35,27 47,19l138 -88c13,-8 20,-26 20,-42l-22 -494 215 -137c71,-45 164,-185 117,-260z"/>
  <path class="fil5" d="M11270 36799c-47,-75 -214,-50 -285,-5l-215 137 -439 -229c-13,-7 -33,-8 -46,0l-138 88c-12,8 -28,28 -3,51l319 285 -202 129 -163 -63c-10,-3 -23,-2 -32,4l-108 69c-10,6 -7,16 1,23l225 202 87 289c4,11 11,17 21,11l108 -69c9,-6 16,-17 17,-28l13 -173 202 -129 123 410c10,32 35,27 47,19l139 -88c13,-8 20,-27 19,-42l-22 -494 216 -137c70,-45 164,-186 116,-260z"/>
  <path class="fil5" d="M4091 24462c-129,-99 -287,-156 -449,-160l-16 -9c-36,-19 -83,-19 -117,3l-30 19c-70,13 -138,37 -204,72 -379,199 -526,687 -326,1089 196,398 667,562 1056,370l1 2c-416,206 -916,39 -1123,-381 -211,-426 -40,-950 380,-1171 313,-164 676,-114 934,99l-106 67z"/>
  <path class="fil5" d="M10830 36809c-129,-100 -288,-156 -450,-161l-16 -8c-36,-19 -82,-20 -117,2l-30 19c-69,14 -138,38 -204,72 -379,199 -525,687 -326,1090 197,398 667,562 1056,370l2 2c-417,206 -916,38 -1124,-381 -210,-426 -40,-951 380,-1171 313,-165 676,-115 934,99l-105 67z"/>
  <path class="fil5" d="M3685 24324c142,6 281,56 398,143l-55 36 -343 -179z"/>
  <path class="fil5" d="M10423 36671c143,5 281,55 399,143l-56 35 -343 -178z"/>
  <path class="fil5" d="M3332 24512c-310,166 -430,566 -267,896 162,327 551,471 871,298l3 6c-347,172 -758,35 -931,-316 -178,-360 -32,-804 325,-992 9,-4 18,-9 27,-13 -38,31 -48,80 -28,121z"/>
  <path class="fil5" d="M10071 36858c-311,166 -430,566 -267,896 162,328 550,472 870,298l4 7c-347,172 -758,34 -932,-316 -178,-360 -32,-804 326,-992 8,-5 17,-9 26,-13 -38,30 -48,79 -27,120z"/>
  <path class="fil5" d="M3447 24626c-14,5 -28,12 -42,19 -87,46 -155,116 -200,199l-23 15c-42,26 -50,76 -26,114 -28,117 -16,245 42,362 122,247 428,372 673,239l1 3c-285,136 -612,41 -749,-238 -138,-278 -27,-623 248,-782l76 69z"/>
  <path class="fil5" d="M10186 36972c-15,6 -29,12 -42,20 -88,46 -156,116 -201,199l-23 14c-42,27 -49,77 -26,115 -27,116 -16,244 42,361 122,248 429,373 673,240l2 3c-286,136 -612,40 -750,-238 -138,-279 -26,-624 248,-782l77 68z"/>
  <path class="fil5" d="M3634 25476c57,3 116,-8 171,-35l1 1c-67,33 -135,49 -199,51l27 -17z"/>
  <path class="fil5" d="M10372 37822c57,3 116,-8 171,-35l1 2c-67,32 -134,49 -199,50l27 -17z"/>
  <path class="fil5" d="M3286 25095c0,60 13,122 42,180 29,60 74,109 127,143l10 35c2,7 5,13 9,19 -90,-31 -166,-98 -216,-199 -39,-79 -54,-164 -47,-245l75 67z"/>
  <path class="fil5" d="M10025 37442c-1,60 12,122 41,180 30,60 74,108 127,142l11 35c2,7 5,14 8,20 -90,-31 -166,-98 -216,-199 -39,-79 -54,-164 -47,-246l76 68z"/>
  <g id="_1901317621232">
   <path class="fil9" d="M16866 3012c-428,-380 -1065,-478 -1609,-192 -722,379 -1010,1290 -644,2034l0 0 1 2c370,774 1312,1077 2055,687 717,-377 1023,-1259 716,-2012 114,-135 195,-335 105,-476 -119,-188 -460,-147 -624,-43l0 0z"/>
   <path class="fil5" d="M17393 3117c-77,-122 -349,-82 -465,-8l-350 223 -714 -372c-22,-12 -54,-14 -75,-1l-226 144c-19,12 -45,45 -4,82l520 465 -330 209 -265 -101c-16,-6 -37,-3 -51,6l-177 112c-16,10 -12,26 2,38l366 328 142 471c6,18 18,28 34,18l176 -113c15,-9 26,-27 28,-44l20 -283 330 -210 201 668c16,53 56,44 76,31l225 -143c21,-14 33,-44 32,-69l-35 -804 350 -223c116,-74 267,-303 190,-424z"/>
   <path class="fil5" d="M16675 3134c-210,-163 -467,-255 -731,-263l-27 -13c-58,-31 -134,-32 -190,4l-49 31c-113,22 -225,61 -332,117 -618,324 -856,1119 -532,1775 321,648 1087,915 1721,603l2 3c-679,335 -1492,62 -1830,-621 -343,-694 -65,-1548 620,-1907 509,-268 1101,-187 1521,161l-173 110z"/>
   <path class="fil5" d="M16014 2908c232,10 457,91 649,233l-91 58 -558 -291z"/>
   <path class="fil5" d="M15439 3214c-505,270 -700,921 -434,1459 264,533 896,768 1418,486l5 10c-565,280 -1234,57 -1517,-514 -290,-587 -52,-1310 530,-1616 14,-7 29,-15 44,-22 -63,51 -79,130 -46,197z"/>
   <path class="fil5" d="M15627 3399c-23,10 -46,20 -69,32 -142,75 -253,189 -326,324l-37 24c-69,43 -81,124 -43,186 -45,190 -26,399 68,589 199,403 698,607 1097,390l2 5c-465,222 -997,66 -1221,-388 -225,-453 -43,-1015 404,-1273l125 111z"/>
   <path class="fil5" d="M15930 4784c94,5 190,-13 279,-57l1 2c-109,53 -218,80 -323,83l43 -28z"/>
   <path class="fil5" d="M15365 4164c-1,98 20,199 67,293 48,98 121,177 207,233l17 57c3,11 8,22 14,32 -146,-51 -270,-160 -352,-325 -63,-128 -88,-267 -76,-400l123 110z"/>
   <path class="fil5" d="M15847 3597c-62,8 -124,26 -183,57 -18,9 -35,19 -51,30l-88 -33c-36,-14 -77,-15 -114,-3 59,-68 132,-127 218,-173 18,-9 36,-18 54,-25l164 147z"/>
  </g>
  <g id="_1901317614704">
   <path class="fil10" d="M8456 17499c-428,-381 -1064,-478 -1609,-192 -722,379 -1010,1289 -644,2034l0 0 1 2c371,774 1312,1076 2055,687 718,-377 1023,-1259 716,-2012 115,-135 195,-335 105,-476 -119,-188 -460,-147 -623,-43l-1 0z"/>
   <path class="fil5" d="M8983 17603c-77,-121 -349,-81 -465,-7l-350 223 -714 -372c-22,-12 -54,-14 -75,-1l-226 143c-19,13 -45,46 -3,83l519 465 -329 209 -266 -101c-16,-6 -37,-3 -51,6l-176 112c-17,10 -13,26 1,38l366 328 142 471c6,18 18,28 34,17l177 -112c14,-9 26,-27 27,-44l20 -283 330 -210 201 668c16,53 56,43 76,31l225 -143c22,-14 33,-44 32,-69l-35 -804 350 -223c116,-74 267,-303 190,-425z"/>
   <path class="fil5" d="M8266 17620c-210,-162 -468,-254 -732,-262l-27 -14c-58,-30 -134,-31 -190,5l-49 31c-113,22 -225,61 -332,117 -618,324 -856,1119 -531,1775 320,648 1087,915 1720,602l2 4c-678,335 -1492,62 -1829,-621 -343,-694 -66,-1548 619,-1908 509,-267 1101,-186 1521,162l-172 109z"/>
   <path class="fil5" d="M7604 17395c232,9 457,91 649,233l-91 58 -558 -291z"/>
   <path class="fil5" d="M7030 17701c-506,270 -701,921 -435,1459 264,533 896,768 1418,486l5 10c-565,280 -1234,56 -1516,-514 -290,-587 -53,-1310 529,-1616 15,-8 29,-15 44,-22 -63,50 -78,130 -45,197z"/>
   <path class="fil5" d="M7217 17886c-23,10 -46,20 -68,32 -143,75 -254,189 -327,324l-37 24c-68,43 -81,124 -43,186 -45,190 -26,399 68,589 200,403 699,607 1097,390l2 5c-465,222 -997,66 -1221,-388 -224,-453 -43,-1015 404,-1273l125 111z"/>
   <path class="fil5" d="M7520 19271c94,5 190,-13 279,-57l2 2c-109,53 -219,80 -324,83l43 -28z"/>
   <path class="fil5" d="M6955 18651c-1,98 20,199 67,293 48,98 121,177 207,233l17 56c4,12 8,23 14,32 -146,-50 -270,-159 -351,-324 -64,-129 -89,-267 -77,-400l123 110z"/>
   <path class="fil5" d="M7438 18084c-63,7 -125,26 -184,57 -18,9 -34,19 -50,30l-88 -34c-37,-13 -78,-14 -114,-2 58,-68 131,-127 218,-173 17,-9 35,-18 53,-25l165 147z"/>
  </g>
  <g id="_1901317613168">
   <path class="fil11" d="M17064 16859l3023 0c138,0 252,114 252,252l0 3023c0,139 -114,252 -252,252l-3023 0c-139,0 -252,-113 -252,-252l0 -3023c0,-138 113,-252 252,-252z"/>
   <path class="fil5" d="M19311 17602c-391,-347 -972,-436 -1469,-175 -658,346 -921,1176 -587,1855l0 0 1 2c338,706 1197,982 1874,626 655,-344 934,-1148 653,-1835 105,-123 179,-306 97,-434 -109,-171 -420,-134 -569,-39l0 0zm480 95c-70,-111 -318,-74 -424,-7l-320 204 -651 -340c-20,-11 -49,-13 -69,-1l-205 131c-18,12 -41,42 -4,75l474 424 -300 192 -242 -93c-15,-5 -34,-3 -47,6l-161 102c-15,9 -11,23 1,35l335 299 129 430c5,16 16,25 31,15l161 -102c13,-8 23,-25 25,-40l18 -258 301 -192 183 609c15,48 52,40 70,29l205 -131c20,-12 30,-40 29,-63l-32 -733 320 -204c105,-67 244,-276 173,-387zm-654 15c-192,-148 -427,-232 -668,-239l-24 -12c-54,-28 -122,-29 -174,4l-45 28c-103,20 -205,55 -302,107 -564,296 -781,1021 -485,1619 292,591 991,835 1570,550l2 3c-620,306 -1362,57 -1670,-566 -313,-633 -60,-1412 565,-1741 465,-244 1004,-170 1388,147l-157 100zm-604 -205c212,8 417,83 592,213l-83 53 -509 -266zm-524 279c-461,246 -639,841 -397,1331 241,487 818,700 1294,443l5 10c-516,255 -1126,51 -1384,-470 -264,-535 -48,-1195 483,-1474 14,-6 27,-13 40,-19 -57,45 -71,118 -41,179zm171 169c-21,9 -42,18 -63,29 -130,68 -231,173 -298,296l-33 21c-63,40 -74,114 -39,170 -41,174 -24,364 62,537 182,368 637,554 1000,357l2 4c-424,202 -909,60 -1114,-354 -204,-414 -39,-926 369,-1161l114 101zm277 1263c85,5 172,-12 254,-52l1 2c-99,49 -199,73 -295,76l40 -26zm-516 -565c-1,89 18,181 61,267 44,89 110,161 189,212l16 52c3,11 7,20 12,29 -133,-46 -246,-145 -320,-296 -59,-117 -81,-243 -71,-364l113 100zm440 -518c-57,7 -114,24 -168,53 -15,8 -31,17 -45,27l-81 -31c-33,-12 -70,-13 -104,-2 54,-62 120,-116 199,-158 16,-8 33,-16 49,-23l150 134z"/>
  </g>
  <path class="fil5" d="M3583 24747c-39,5 -77,16 -113,35 -11,6 -21,12 -31,19l-54 -21c-22,-9 -47,-9 -70,-2 36,-42 81,-78 134,-106 11,-5 22,-11 33,-15l101 90z"/>
  <path class="fil5" d="M10321 37094c-38,4 -76,16 -113,35 -10,5 -21,11 -31,18l-54 -21c-22,-8 -47,-8 -70,-1 36,-42 81,-78 134,-106 11,-6 22,-11 33,-16l101 91z"/>
  <path class="fil12" d="M2461 6551l1 3c1,62 -18,110 -56,145 -38,35 -90,52 -157,52 -68,0 -123,-22 -165,-67 -42,-44 -63,-102 -63,-173l0 -115c0,-70 21,-128 62,-173 41,-45 94,-67 160,-67 70,0 124,17 163,51 39,35 57,83 57,146l-1 2 -111 0c0,-37 -9,-64 -26,-83 -18,-18 -45,-27 -82,-27 -34,0 -60,14 -79,42 -20,28 -29,64 -29,108l0 116c0,45 10,81 30,109 20,28 48,42 84,42 34,0 60,-9 76,-27 17,-18 26,-46 26,-84l110 0zm3831 41c0,-22 -8,-40 -23,-54 -15,-13 -42,-26 -80,-38 -65,-20 -115,-44 -149,-71 -34,-27 -51,-65 -51,-112 0,-47 19,-86 57,-116 39,-30 87,-45 147,-45 63,0 113,16 151,48 39,33 57,75 56,127l-1 3 -110 0c0,-29 -9,-51 -26,-67 -17,-15 -41,-23 -72,-23 -28,0 -50,7 -65,21 -15,13 -23,31 -23,53 0,19 8,35 25,48 17,12 45,26 86,40 62,18 110,41 143,70 33,29 49,68 49,115 0,50 -19,89 -57,117 -38,29 -88,43 -151,43 -61,0 -113,-15 -157,-46 -44,-31 -65,-78 -64,-139l1 -2 111 0c0,34 9,59 29,75 20,16 47,24 80,24 31,0 54,-6 70,-19 16,-13 24,-30 24,-52zm-3392 -39c0,57 -17,104 -53,141 -35,37 -80,56 -137,56 -56,0 -102,-19 -137,-56 -34,-37 -52,-84 -52,-141l0 -83c0,-57 18,-104 52,-141 35,-37 81,-56 137,-56 56,0 102,19 137,56 35,37 53,84 53,141l0 83zm-91 -84c0,-36 -9,-66 -26,-89 -18,-23 -42,-34 -73,-34 -31,0 -55,11 -72,34 -18,23 -26,53 -26,89l0 84c0,37 9,67 26,90 17,23 41,34 72,34 31,0 56,-11 73,-34 18,-23 26,-53 26,-90l0 -84zm531 84c0,57 -18,104 -53,141 -35,37 -81,56 -137,56 -57,0 -102,-19 -137,-56 -35,-37 -52,-84 -52,-141l0 -83c0,-57 17,-104 52,-141 35,-37 80,-56 136,-56 56,0 102,19 138,56 35,37 53,84 53,141l0 83zm-91 -84c0,-36 -9,-66 -27,-89 -17,-23 -42,-34 -73,-34 -31,0 -55,11 -72,34 -17,23 -26,53 -26,89l0 84c0,37 9,67 26,90 18,23 42,34 73,34 31,0 55,-11 73,-34 17,-23 26,-53 26,-90l0 -84zm254 89l0 185 -91 0 0 -463 157 0c52,0 92,12 121,36 30,24 44,58 44,101 0,23 -6,44 -18,61 -13,17 -31,31 -54,42 26,8 46,22 57,40 12,19 18,43 18,70l0 34c0,13 2,27 5,41 4,14 9,25 18,31l0 7 -94 0c-8,-7 -14,-18 -16,-34 -3,-15 -4,-31 -4,-45l0 -33c0,-23 -6,-41 -18,-54 -13,-13 -30,-19 -53,-19l-72 0zm0 -72l64 0c26,0 45,-5 57,-16 13,-11 19,-28 19,-49 0,-21 -6,-38 -19,-51 -12,-12 -31,-19 -55,-19l-66 0 0 135zm316 257l0 -463 158 0c56,0 101,18 137,54 36,36 54,83 54,139l0 77c0,57 -18,103 -54,139 -36,36 -81,54 -137,54l-158 0zm91 -392l0 321 67 0c30,0 54,-12 73,-34 18,-23 27,-52 27,-88l0 -77c0,-36 -9,-65 -27,-88 -19,-22 -43,-34 -73,-34l-67 0zm429 392l-91 0 0 -463 91 0 0 463zm457 0l-91 0 -183 -312 -2 0 0 312 -91 0 0 -463 91 0 183 312 2 0 0 -312 91 0 0 463zm326 -100l-147 0 -31 100 -95 0 153 -463 93 0 153 463 -95 0 -31 -100zm-125 -73l103 0 -50 -163 -2 0 -51 163zm583 -219l-129 0 0 392 -91 0 0 -392 -128 0 0 -71 348 0 0 71zm310 188l-169 0 0 133 201 0 0 71 -292 0 0 -463 291 0 0 71 -200 0 0 117 169 0 0 71zm956 204l-91 0 0 -192 -185 0 0 192 -91 0 0 -463 91 0 0 199 185 0 0 -199 91 0 0 463zm326 -100l-147 0 -30 100 -96 0 154 -463 93 0 152 463 -95 0 -31 -100zm-124 -73l102 0 -50 -163 -2 0 -50 163zm385 -12l0 185 -91 0 0 -463 157 0c52,0 93,12 122,36 29,24 44,58 44,101 0,23 -7,44 -19,61 -12,17 -30,31 -54,42 27,8 46,22 58,40 11,19 17,43 17,70l0 34c0,13 2,27 6,41 3,14 9,25 17,31l0 7 -94 0c-8,-7 -13,-18 -16,-34 -2,-15 -3,-31 -3,-45l0 -33c0,-23 -7,-41 -19,-54 -12,-13 -30,-19 -53,-19l-72 0zm0 -72l65 0c25,0 44,-5 57,-16 12,-11 18,-28 18,-49 0,-21 -6,-38 -18,-51 -13,-12 -31,-19 -56,-19l-66 0 0 135zm407 89l0 168 -91 0 0 -463 174 0c52,0 93,13 123,41 30,27 45,62 45,107 0,44 -15,80 -45,107 -30,27 -71,40 -123,40l-83 0zm0 -72l83 0c25,0 44,-7 57,-21 14,-14 20,-32 20,-54 0,-22 -6,-40 -19,-55 -13,-14 -33,-22 -58,-22l-83 0 0 152z"/>
  <path class="fil12" d="M13383 6551l1 3c1,62 -18,110 -56,145 -38,35 -90,52 -157,52 -68,0 -123,-22 -165,-67 -42,-44 -63,-102 -63,-173l0 -115c0,-70 21,-128 62,-173 41,-45 94,-67 160,-67 70,0 124,17 163,51 39,35 57,83 56,146l0 2 -111 0c0,-37 -9,-64 -26,-83 -18,-18 -45,-27 -82,-27 -34,0 -60,14 -79,42 -20,28 -29,64 -29,108l0 116c0,45 10,81 30,109 20,28 48,42 84,42 34,0 60,-9 76,-27 17,-18 26,-46 26,-84l110 0zm3831 41c0,-22 -8,-40 -23,-54 -15,-13 -42,-26 -80,-38 -65,-20 -115,-44 -149,-71 -34,-27 -51,-65 -51,-112 0,-47 19,-86 57,-116 39,-30 87,-45 147,-45 63,0 113,16 151,48 39,33 57,75 56,127l-1 3 -110 0c0,-29 -9,-51 -26,-67 -17,-15 -41,-23 -72,-23 -28,0 -50,7 -65,21 -15,13 -23,31 -23,53 0,19 8,35 25,48 17,12 45,26 86,40 62,18 110,41 143,70 33,29 49,68 49,115 0,50 -19,89 -57,117 -38,29 -88,43 -151,43 -61,0 -113,-15 -157,-46 -44,-31 -65,-78 -64,-139l1 -2 110 0c0,34 10,59 30,75 20,16 47,24 80,24 31,0 54,-6 70,-19 16,-13 24,-30 24,-52zm-3392 -39c0,57 -17,104 -53,141 -35,37 -80,56 -137,56 -56,0 -102,-19 -137,-56 -34,-37 -52,-84 -52,-141l0 -83c0,-57 18,-104 52,-141 35,-37 81,-56 137,-56 56,0 102,19 137,56 35,37 53,84 53,141l0 83zm-91 -84c0,-36 -9,-66 -26,-89 -18,-23 -42,-34 -73,-34 -31,0 -55,11 -72,34 -18,23 -26,53 -26,89l0 84c0,37 9,67 26,90 17,23 41,34 72,34 31,0 56,-11 73,-34 18,-23 26,-53 26,-90l0 -84zm531 84c0,57 -18,104 -53,141 -35,37 -81,56 -137,56 -57,0 -102,-19 -137,-56 -35,-37 -52,-84 -52,-141l0 -83c0,-57 17,-104 52,-141 35,-37 80,-56 136,-56 56,0 102,19 138,56 35,37 53,84 53,141l0 83zm-91 -84c0,-36 -9,-66 -27,-89 -17,-23 -42,-34 -73,-34 -31,0 -55,11 -72,34 -17,23 -26,53 -26,89l0 84c0,37 9,67 26,90 18,23 42,34 73,34 31,0 55,-11 73,-34 17,-23 26,-53 26,-90l0 -84zm254 89l0 185 -91 0 0 -463 157 0c52,0 92,12 121,36 30,24 44,58 44,101 0,23 -6,44 -18,61 -13,17 -31,31 -55,42 27,8 47,22 58,40 12,19 18,43 18,70l0 34c0,13 2,27 5,41 4,14 9,25 18,31l0 7 -94 0c-8,-7 -14,-18 -16,-34 -3,-15 -4,-31 -4,-45l0 -33c0,-23 -6,-41 -18,-54 -13,-13 -30,-19 -53,-19l-72 0zm0 -72l64 0c26,0 45,-5 57,-16 13,-11 19,-28 19,-49 0,-21 -6,-38 -19,-51 -12,-12 -31,-19 -55,-19l-66 0 0 135zm316 257l0 -463 158 0c56,0 101,18 137,54 36,36 54,83 54,139l0 77c0,57 -18,103 -54,139 -36,36 -81,54 -137,54l-158 0zm91 -392l0 321 67 0c30,0 54,-12 73,-34 18,-23 27,-52 27,-88l0 -77c0,-36 -9,-65 -27,-88 -19,-22 -43,-34 -73,-34l-67 0zm429 392l-91 0 0 -463 91 0 0 463zm457 0l-91 0 -183 -312 -2 0 0 312 -91 0 0 -463 91 0 183 312 2 0 0 -312 91 0 0 463zm326 -100l-147 0 -31 100 -95 0 153 -463 93 0 153 463 -95 0 -31 -100zm-125 -73l103 0 -50 -163 -2 0 -51 163zm583 -219l-129 0 0 392 -91 0 0 -392 -128 0 0 -71 348 0 0 71zm310 188l-169 0 0 133 201 0 0 71 -292 0 0 -463 291 0 0 71 -200 0 0 117 169 0 0 71zm956 204l-91 0 0 -192 -185 0 0 192 -91 0 0 -463 91 0 0 199 185 0 0 -199 91 0 0 463zm326 -100l-147 0 -31 100 -95 0 154 -463 93 0 152 463 -95 0 -31 -100zm-124 -73l102 0 -50 -163 -2 0 -50 163zm385 -12l0 185 -91 0 0 -463 157 0c52,0 92,12 122,36 29,24 44,58 44,101 0,23 -7,44 -19,61 -12,17 -30,31 -54,42 27,8 46,22 58,40 11,19 17,43 17,70l0 34c0,13 2,27 6,41 3,14 9,25 17,31l0 7 -94 0c-8,-7 -13,-18 -16,-34 -2,-15 -3,-31 -3,-45l0 -33c0,-23 -7,-41 -19,-54 -12,-13 -30,-19 -53,-19l-72 0zm0 -72l65 0c25,0 44,-5 57,-16 12,-11 18,-28 18,-49 0,-21 -6,-38 -18,-51 -13,-12 -31,-19 -56,-19l-66 0 0 135zm407 89l0 168 -91 0 0 -463 174 0c52,0 93,13 123,41 30,27 45,62 45,107 0,44 -15,80 -45,107 -30,27 -71,40 -123,40l-83 0zm0 -72l83 0c25,0 44,-7 57,-21 14,-14 20,-32 20,-54 0,-22 -6,-40 -19,-55 -13,-14 -33,-22 -58,-22l-83 0 0 152z"/>
  <path class="fil13" d="M2070 26561l0 1c1,38 -11,68 -34,90 -23,21 -55,32 -96,32 -42,0 -76,-14 -102,-41 -25,-28 -38,-63 -38,-107l0 -70c0,-44 12,-79 37,-107 25,-27 58,-41 99,-41 42,0 76,11 100,32 24,21 35,51 35,89l-1 2 -68 0c0,-23 -5,-40 -16,-51 -11,-11 -28,-17 -50,-17 -21,0 -37,9 -49,26 -12,17 -18,39 -18,66l0 71c0,28 7,50 19,67 12,17 30,26 52,26 21,0 36,-6 46,-17 11,-11 16,-28 16,-51l68 0zm2352 25c0,-14 -5,-25 -14,-33 -9,-8 -26,-16 -49,-24 -41,-12 -71,-26 -92,-43 -21,-17 -31,-40 -31,-69 0,-29 12,-53 35,-71 24,-19 53,-28 90,-28 38,0 70,10 93,30 24,20 35,46 34,78l0 1 -68 0c0,-17 -5,-31 -16,-40 -10,-10 -25,-15 -44,-15 -17,0 -31,4 -40,13 -10,8 -14,19 -14,32 0,12 5,22 15,30 10,8 28,16 53,25 38,11 67,25 88,43 20,18 30,41 30,70 0,31 -12,55 -35,72 -23,18 -54,27 -93,27 -37,0 -69,-10 -96,-29 -27,-19 -40,-47 -39,-85l0 -1 68 0c0,21 6,36 18,46 12,10 29,15 49,15 19,0 33,-4 43,-12 10,-8 15,-19 15,-32zm-2083 -24c0,35 -11,64 -32,87 -22,22 -50,34 -84,34 -35,0 -63,-12 -84,-34 -22,-23 -32,-52 -32,-87l0 -51c0,-35 10,-64 32,-87 21,-22 49,-34 83,-34 35,0 63,12 85,34 21,23 32,52 32,87l0 51zm-55 -52c0,-22 -6,-40 -17,-54 -11,-14 -26,-21 -45,-21 -19,0 -33,7 -44,21 -10,14 -16,32 -16,54l0 52c0,23 6,41 16,55 11,14 26,21 45,21 19,0 34,-7 44,-21 11,-14 17,-32 17,-55l0 -52zm325 52c0,35 -11,64 -32,87 -22,22 -50,34 -84,34 -35,0 -63,-12 -84,-34 -22,-23 -33,-52 -33,-87l0 -51c0,-35 11,-64 33,-87 21,-22 49,-34 83,-34 35,0 63,12 85,34 21,23 32,52 32,87l0 51zm-56 -52c0,-22 -5,-40 -16,-54 -11,-14 -26,-21 -45,-21 -19,0 -33,7 -44,21 -11,14 -16,32 -16,54l0 52c0,23 5,41 16,55 11,14 25,21 45,21 19,0 34,-7 44,-21 11,-14 16,-32 16,-55l0 -52zm156 55l0 114 -56 0 0 -285 97 0c32,0 57,8 74,22 18,15 27,36 27,62 0,15 -3,27 -11,38 -8,11 -19,19 -33,26 16,5 28,13 35,24 8,12 11,26 11,43l0 21c0,8 1,17 3,25 2,9 6,15 11,19l0 5 -58 0c-5,-5 -8,-11 -9,-21 -2,-10 -3,-19 -3,-28l0 -20c0,-14 -3,-25 -11,-33 -8,-8 -18,-12 -32,-12l-45 0zm0 -44l40 0c16,0 27,-3 35,-10 8,-7 11,-17 11,-30 0,-13 -3,-24 -11,-31 -8,-8 -19,-12 -34,-12l-41 0 0 83zm194 158l0 -285 98 0c34,0 62,11 84,34 22,22 33,50 33,85l0 47c0,35 -11,63 -33,85 -22,23 -50,34 -84,34l-98 0zm56 -241l0 197 42 0c18,0 33,-7 44,-21 11,-14 17,-32 17,-54l0 -47c0,-22 -6,-40 -17,-54 -11,-14 -26,-21 -44,-21l-42 0zm264 241l-56 0 0 -285 56 0 0 285zm280 0l-56 0 -112 -192 -1 0 0 192 -56 0 0 -285 56 0 112 192 1 0 0 -192 56 0 0 285zm200 -62l-90 0 -19 62 -58 0 94 -285 57 0 94 285 -59 0 -19 -62zm-76 -44l63 0 -31 -101 -1 0 -31 101zm358 -135l-80 0 0 241 -56 0 0 -241 -78 0 0 -44 214 0 0 44zm190 116l-103 0 0 81 122 0 0 44 -178 0 0 -285 178 0 0 44 -122 0 0 72 103 0 0 44zm587 125l-56 0 0 -119 -113 0 0 119 -56 0 0 -285 56 0 0 122 113 0 0 -122 56 0 0 285zm200 -62l-90 0 -19 62 -58 0 94 -285 57 0 94 285 -59 0 -19 -62zm-76 -44l63 0 -31 -101 -1 0 -31 101zm236 -8l0 114 -55 0 0 -285 96 0c32,0 57,8 75,22 18,15 27,36 27,62 0,15 -4,27 -12,38 -7,11 -18,19 -33,26 16,5 28,13 36,24 7,12 10,26 10,43l0 21c0,8 1,17 3,25 3,9 6,15 11,19l0 5 -57 0c-5,-5 -9,-11 -10,-21 -2,-10 -2,-19 -2,-28l0 -20c0,-14 -4,-25 -12,-33 -7,-8 -18,-12 -32,-12l-45 0zm0 -44l40 0c16,0 27,-3 35,-10 8,-7 12,-17 12,-30 0,-13 -4,-24 -12,-31 -8,-8 -19,-12 -34,-12l-41 0 0 83zm250 54l0 104 -56 0 0 -285 107 0c32,0 57,9 76,25 18,17 27,39 27,66 0,27 -9,49 -27,66 -19,16 -44,24 -76,24l-51 0zm0 -43l51 0c16,0 28,-5 36,-13 8,-9 12,-20 12,-34 0,-13 -4,-25 -12,-33 -8,-9 -20,-14 -36,-14l-51 0 0 94z"/>
  <path class="fil14" d="M8808 38907l0 2c1,38 -10,68 -34,89 -23,22 -55,32 -96,32 -42,0 -76,-13 -101,-41 -26,-27 -39,-63 -39,-106l0 -71c0,-43 13,-79 38,-106 25,-28 58,-41 98,-41 43,0 76,10 100,31 24,21 35,51 35,90l-1 1 -68 0c0,-23 -5,-40 -16,-51 -11,-11 -27,-17 -50,-17 -21,0 -37,9 -49,26 -11,17 -17,40 -17,67l0 71c0,27 6,49 18,67 13,17 30,26 52,26 21,0 36,-6 47,-17 10,-11 15,-28 15,-52l68 0zm2352 25c0,-13 -4,-24 -14,-33 -9,-8 -26,-16 -49,-23 -40,-12 -71,-27 -92,-44 -20,-17 -31,-39 -31,-68 0,-29 12,-53 35,-72 24,-18 54,-27 90,-27 39,0 70,9 93,29 24,20 35,46 35,78l-1 2 -68 0c0,-18 -5,-31 -16,-41 -10,-10 -25,-14 -44,-14 -17,0 -30,4 -40,12 -9,9 -14,20 -14,33 0,12 5,22 15,30 11,7 28,15 53,24 39,11 68,26 88,43 20,18 30,42 30,71 0,30 -12,54 -35,72 -23,17 -54,26 -92,26 -38,0 -70,-9 -97,-28 -27,-19 -40,-48 -39,-86l1 -1 67 0c0,21 6,36 18,46 13,10 29,15 50,15 18,0 33,-4 42,-12 10,-8 15,-18 15,-32zm-2082 -23c0,35 -11,63 -33,86 -21,23 -49,34 -84,34 -35,0 -62,-11 -84,-34 -21,-23 -32,-52 -32,-86l0 -52c0,-34 11,-63 32,-86 21,-23 49,-34 84,-34 34,0 62,11 84,34 22,23 33,52 33,86l0 52zm-56 -52c0,-22 -6,-40 -16,-55 -11,-14 -26,-21 -45,-21 -19,0 -34,7 -45,21 -10,15 -15,33 -15,55l0 52c0,22 5,40 16,55 10,14 25,21 44,21 19,0 34,-7 45,-21 10,-15 16,-33 16,-55l0 -52zm325 52c0,35 -10,63 -32,86 -21,23 -50,34 -84,34 -35,0 -63,-11 -84,-34 -22,-23 -32,-52 -32,-86l0 -52c0,-34 10,-63 32,-86 21,-23 49,-34 83,-34 35,0 63,11 85,34 22,23 32,52 32,86l0 52zm-55 -52c0,-22 -6,-40 -17,-55 -10,-14 -25,-21 -45,-21 -18,0 -33,7 -44,21 -10,15 -15,33 -15,55l0 52c0,22 5,40 15,55 11,14 26,21 45,21 19,0 34,-7 45,-21 10,-15 16,-33 16,-55l0 -52zm156 54l0 114 -56 0 0 -284 96 0c32,0 57,7 75,22 18,15 27,35 27,62 0,14 -4,27 -12,38 -7,10 -18,19 -33,25 17,5 28,13 36,25 7,12 10,26 10,43l0 21c0,8 2,16 4,25 2,8 5,15 10,19l0 4 -57 0c-5,-4 -9,-11 -10,-21 -2,-9 -2,-19 -2,-27l0 -21c0,-14 -4,-25 -12,-33 -7,-8 -18,-12 -32,-12l-44 0zm0 -43l39 0c16,0 28,-4 35,-11 8,-6 12,-16 12,-30 0,-13 -4,-23 -12,-31 -7,-7 -19,-11 -34,-11l-40 0 0 83zm194 157l0 -284 97 0c34,0 62,11 84,33 22,22 33,51 33,86l0 47c0,34 -11,63 -33,85 -22,22 -50,33 -84,33l-97 0zm56 -240l0 196 41 0c18,0 33,-7 44,-21 12,-14 17,-32 17,-53l0 -48c0,-22 -5,-39 -17,-53 -11,-14 -26,-21 -44,-21l-41 0zm263 240l-56 0 0 -284 56 0 0 284zm281 0l-56 0 -113 -192 -1 1 0 191 -56 0 0 -284 56 0 113 191 1 0 0 -191 56 0 0 284zm200 -61l-91 0 -18 61 -59 0 94 -284 58 0 93 284 -58 0 -19 -61zm-77 -45l63 0 -31 -100 -1 0 -31 100zm358 -134l-79 0 0 240 -56 0 0 -240 -79 0 0 -44 214 0 0 44zm190 115l-103 0 0 81 123 0 0 44 -179 0 0 -284 178 0 0 44 -122 0 0 71 103 0 0 44zm588 125l-56 0 0 -118 -114 0 0 118 -56 0 0 -284 56 0 0 122 114 0 0 -122 56 0 0 284zm200 -61l-91 0 -18 61 -59 0 94 -284 57 0 94 284 -58 0 -19 -61zm-77 -45l63 0 -31 -100 -1 0 -31 100zm237 -8l0 114 -56 0 0 -284 96 0c32,0 57,7 75,22 18,15 27,35 27,62 0,14 -4,27 -11,38 -8,10 -19,19 -34,25 17,5 29,13 36,25 7,12 11,26 11,43l0 21c0,8 1,16 3,25 2,8 6,15 11,19l0 4 -58 0c-5,-4 -8,-11 -10,-21 -1,-9 -2,-19 -2,-27l0 -21c0,-14 -4,-25 -11,-33 -8,-8 -19,-12 -33,-12l-44 0zm0 -43l39 0c16,0 28,-4 36,-11 7,-6 11,-16 11,-30 0,-13 -4,-23 -12,-31 -7,-7 -19,-11 -34,-11l-40 0 0 83zm250 54l0 103 -56 0 0 -284 106 0c33,0 58,8 76,25 19,16 28,38 28,66 0,27 -9,49 -28,65 -18,17 -43,25 -76,25l-50 0zm0 -44l50 0c16,0 28,-4 36,-13 8,-9 12,-20 12,-33 0,-14 -4,-25 -12,-34 -8,-9 -20,-13 -36,-13l-50 0 0 93z"/>
  <path class="fil13" d="M15711 31722l1 1c0,38 -11,68 -34,89 -24,22 -56,33 -97,33 -42,0 -75,-14 -101,-42 -26,-27 -38,-62 -38,-106l0 -70c0,-44 12,-79 37,-107 25,-27 58,-41 99,-41 42,0 75,10 99,32 24,21 36,51 35,89l0 1 -68 0c0,-22 -6,-39 -16,-50 -11,-12 -28,-17 -50,-17 -21,0 -38,8 -49,26 -12,17 -18,39 -18,66l0 71c0,27 6,50 19,67 12,17 29,26 51,26 21,0 37,-6 47,-17 10,-11 16,-28 16,-51l67 0zm2353 25c0,-14 -5,-25 -14,-33 -10,-9 -26,-16 -50,-24 -40,-12 -70,-27 -91,-43 -21,-17 -31,-40 -31,-69 0,-29 11,-53 35,-71 23,-19 53,-28 90,-28 38,0 69,10 93,30 23,20 35,46 34,78l-1 1 -67 0c0,-18 -6,-31 -16,-41 -11,-9 -25,-14 -44,-14 -18,0 -31,4 -40,13 -10,8 -15,19 -15,32 0,12 6,22 16,30 10,8 28,16 53,24 38,11 67,26 87,44 21,18 31,41 31,70 0,31 -12,55 -35,72 -24,18 -55,27 -93,27 -37,0 -70,-10 -96,-29 -27,-19 -40,-47 -40,-85l1 -2 68 0c0,21 6,37 18,47 12,10 28,15 49,15 19,0 33,-4 43,-12 10,-8 15,-19 15,-32zm-2083 -24c0,35 -11,64 -32,86 -22,23 -50,35 -85,35 -34,0 -62,-12 -84,-35 -21,-22 -32,-51 -32,-86l0 -51c0,-35 11,-64 32,-87 22,-23 50,-34 84,-34 35,0 63,11 84,34 22,23 33,52 33,87l0 51zm-56 -52c0,-22 -5,-40 -16,-54 -11,-14 -26,-21 -45,-21 -19,0 -34,7 -44,21 -11,14 -16,32 -16,54l0 52c0,22 5,41 16,55 11,14 25,21 44,21 20,0 34,-7 45,-21 11,-14 16,-33 16,-55l0 -52zm326 52c0,35 -11,64 -32,86 -22,23 -50,35 -85,35 -34,0 -62,-12 -84,-35 -21,-22 -32,-51 -32,-86l0 -51c0,-35 11,-64 32,-87 22,-23 49,-34 84,-34 34,0 63,11 84,34 22,23 33,52 33,87l0 51zm-56 -52c0,-22 -5,-40 -16,-54 -11,-14 -26,-21 -45,-21 -19,0 -34,7 -44,21 -11,14 -16,32 -16,54l0 52c0,22 5,41 16,55 10,14 25,21 44,21 19,0 34,-7 45,-21 11,-14 16,-33 16,-55l0 -52zm156 55l0 113 -56 0 0 -284 97 0c31,0 56,7 74,22 18,15 27,36 27,62 0,15 -4,27 -11,38 -8,10 -19,19 -33,26 16,4 28,13 35,24 7,12 11,26 11,43l0 21c0,8 1,16 3,25 2,9 6,15 11,19l0 4 -58 0c-5,-4 -8,-11 -10,-20 -1,-10 -2,-19 -2,-28l0 -20c0,-14 -4,-26 -11,-33 -8,-8 -19,-12 -33,-12l-44 0zm0 -44l40 0c15,0 27,-4 35,-10 7,-7 11,-17 11,-30 0,-13 -4,-24 -11,-31 -8,-8 -19,-12 -34,-12l-41 0 0 83zm194 157l0 -284 97 0c34,0 63,11 85,33 22,23 33,51 33,86l0 47c0,35 -11,63 -33,85 -22,22 -51,33 -85,33l-97 0zm56 -240l0 197 41 0c19,0 34,-7 45,-21 11,-14 17,-32 17,-54l0 -48c0,-21 -6,-39 -17,-53 -11,-14 -26,-21 -45,-21l-41 0zm263 240l-56 0 0 -284 56 0 0 284zm281 0l-56 0 -112 -191 -1 0 0 191 -56 0 0 -284 56 0 112 192 1 -1 0 -191 56 0 0 284zm200 -61l-90 0 -19 61 -58 0 94 -284 57 0 94 284 -59 0 -19 -61zm-76 -45l63 0 -31 -100 -1 0 -31 100zm358 -134l-80 0 0 240 -56 0 0 -240 -78 0 0 -44 214 0 0 44zm190 115l-104 0 0 82 123 0 0 43 -179 0 0 -284 179 0 0 44 -123 0 0 72 104 0 0 43zm587 125l-56 0 0 -118 -113 0 0 118 -56 0 0 -284 56 0 0 122 113 0 0 -122 56 0 0 284zm200 -61l-90 0 -19 61 -58 0 94 -284 57 0 94 284 -59 0 -19 -61zm-76 -45l63 0 -31 -100 -1 0 -31 100zm236 -7l0 113 -56 0 0 -284 97 0c32,0 56,7 74,22 18,15 27,36 27,62 0,15 -3,27 -11,38 -8,10 -19,19 -33,26 16,4 28,13 35,24 7,12 11,26 11,43l0 21c0,8 1,16 3,25 2,9 6,15 11,19l0 4 -58 0c-5,-4 -8,-11 -9,-20 -2,-10 -3,-19 -3,-28l0 -20c0,-14 -3,-26 -11,-33 -8,-8 -18,-12 -32,-12l-45 0zm0 -44l40 0c16,0 27,-4 35,-10 8,-7 11,-17 11,-30 0,-13 -3,-24 -11,-31 -8,-8 -19,-12 -34,-12l-41 0 0 83zm250 54l0 103 -56 0 0 -284 107 0c32,0 57,8 76,25 18,17 27,39 27,66 0,27 -9,49 -27,66 -19,16 -44,24 -76,24l-51 0zm0 -44l51 0c15,0 27,-4 35,-13 8,-8 12,-19 12,-33 0,-13 -4,-25 -12,-34 -8,-9 -19,-13 -35,-13l-51 0 0 93z"/>
  <path class="fil13" d="M15711 39207l1 1c0,38 -11,68 -34,89 -24,22 -56,32 -97,32 -42,0 -75,-13 -101,-41 -26,-27 -38,-63 -38,-106l0 -71c0,-43 12,-78 37,-106 25,-28 58,-41 99,-41 42,0 75,10 99,31 24,22 36,51 35,90l0 1 -68 0c0,-23 -6,-40 -16,-51 -11,-11 -28,-16 -50,-16 -21,0 -38,8 -49,25 -12,18 -18,40 -18,67l0 71c0,27 6,50 19,67 12,17 29,26 51,26 21,0 37,-6 47,-17 10,-11 16,-28 16,-51l67 0zm2353 25c0,-14 -5,-25 -14,-33 -10,-9 -26,-17 -50,-24 -40,-12 -70,-27 -91,-44 -21,-16 -31,-39 -31,-68 0,-29 11,-53 35,-72 23,-18 53,-27 90,-27 38,0 69,10 93,29 23,20 35,46 34,79l-1 1 -67 0c0,-18 -6,-31 -16,-41 -11,-9 -25,-14 -44,-14 -18,0 -31,4 -40,13 -10,8 -15,19 -15,32 0,12 6,22 16,30 10,7 28,16 53,24 38,11 67,26 87,44 21,17 31,41 31,70 0,30 -12,54 -35,72 -24,18 -55,26 -93,26 -37,0 -70,-9 -96,-28 -27,-19 -40,-48 -40,-85l1 -2 68 0c0,21 6,37 18,47 12,9 28,14 49,14 19,0 33,-4 43,-12 10,-7 15,-18 15,-31zm-2083 -24c0,35 -11,64 -32,86 -22,23 -50,34 -85,34 -34,0 -62,-11 -84,-34 -21,-23 -32,-51 -32,-86l0 -52c0,-34 11,-63 32,-86 22,-23 50,-34 84,-34 35,0 63,11 84,34 22,23 33,52 33,86l0 52zm-56 -52c0,-22 -5,-40 -16,-54 -11,-15 -26,-22 -45,-22 -19,0 -34,7 -44,22 -11,14 -16,32 -16,54l0 52c0,22 5,41 16,55 11,14 25,21 44,21 20,0 34,-7 45,-21 11,-14 16,-33 16,-55l0 -52zm326 52c0,35 -11,64 -32,86 -22,23 -50,34 -85,34 -34,0 -62,-11 -84,-34 -21,-23 -32,-51 -32,-86l0 -52c0,-34 11,-63 32,-86 22,-23 49,-34 84,-34 34,0 63,11 84,34 22,23 33,52 33,86l0 52zm-56 -52c0,-22 -5,-40 -16,-54 -11,-15 -26,-22 -45,-22 -19,0 -34,7 -44,22 -11,14 -16,32 -16,54l0 52c0,22 5,41 16,55 10,14 25,21 44,21 19,0 34,-7 45,-21 11,-14 16,-33 16,-55l0 -52zm156 55l0 113 -56 0 0 -284 97 0c31,0 56,7 74,22 18,15 27,35 27,62 0,14 -4,27 -11,38 -8,10 -19,19 -33,25 16,5 28,14 35,25 7,12 11,26 11,43l0 21c0,8 1,16 3,25 2,9 6,15 11,19l0 4 -58 0c-5,-4 -8,-11 -10,-20 -1,-10 -2,-19 -2,-28l0 -20c0,-15 -4,-26 -11,-34 -8,-7 -19,-11 -33,-11l-44 0zm0 -44l40 0c15,0 27,-4 35,-11 7,-6 11,-16 11,-30 0,-13 -4,-23 -11,-31 -8,-7 -19,-11 -34,-11l-41 0 0 83zm194 157l0 -284 97 0c34,0 63,11 85,33 22,22 33,51 33,86l0 47c0,35 -11,63 -33,85 -22,22 -51,33 -85,33l-97 0zm56 -240l0 197 41 0c19,0 34,-7 45,-21 11,-14 17,-32 17,-54l0 -48c0,-21 -6,-39 -17,-53 -11,-14 -26,-21 -45,-21l-41 0zm263 240l-56 0 0 -284 56 0 0 284zm281 0l-56 0 -112 -192 -1 1 0 191 -56 0 0 -284 56 0 112 191 1 0 0 -191 56 0 0 284zm200 -61l-90 0 -19 61 -58 0 94 -284 57 0 94 284 -59 0 -19 -61zm-76 -45l63 0 -31 -100 -1 0 -31 100zm358 -134l-80 0 0 240 -56 0 0 -240 -78 0 0 -44 214 0 0 44zm190 115l-104 0 0 82 123 0 0 43 -179 0 0 -284 179 0 0 44 -123 0 0 71 104 0 0 44zm587 125l-56 0 0 -118 -113 0 0 118 -56 0 0 -284 56 0 0 122 113 0 0 -122 56 0 0 284zm200 -61l-90 0 -19 61 -58 0 94 -284 57 0 94 284 -59 0 -19 -61zm-76 -45l63 0 -31 -100 -1 0 -31 100zm236 -7l0 113 -56 0 0 -284 97 0c32,0 56,7 74,22 18,15 27,35 27,62 0,14 -3,27 -11,38 -8,10 -19,19 -33,25 16,5 28,14 35,25 7,12 11,26 11,43l0 21c0,8 1,16 3,25 2,9 6,15 11,19l0 4 -58 0c-5,-4 -8,-11 -9,-20 -2,-10 -3,-19 -3,-28l0 -20c0,-15 -3,-26 -11,-34 -8,-7 -18,-11 -32,-11l-45 0zm0 -44l40 0c16,0 27,-4 35,-11 8,-6 11,-16 11,-30 0,-13 -3,-23 -11,-31 -8,-7 -19,-11 -34,-11l-41 0 0 83zm250 54l0 103 -56 0 0 -284 107 0c32,0 57,8 76,25 18,17 27,38 27,66 0,27 -9,49 -27,65 -19,17 -44,25 -76,25l-51 0zm0 -44l51 0c15,0 27,-4 35,-13 8,-8 12,-19 12,-33 0,-14 -4,-25 -12,-34 -8,-9 -19,-13 -35,-13l-51 0 0 93z"/>
  <path class="fil14" d="M3749 38932l0 2c1,38 -11,67 -34,89 -23,21 -55,32 -96,32 -42,0 -76,-14 -102,-41 -25,-28 -38,-63 -38,-106l0 -71c0,-43 12,-79 37,-106 26,-28 58,-42 99,-42 43,0 76,11 100,32 24,21 35,51 35,89l-1 2 -68 0c0,-23 -5,-40 -16,-51 -11,-11 -27,-17 -50,-17 -21,0 -37,9 -49,26 -12,17 -17,39 -17,66l0 72c0,27 6,49 18,66 12,18 30,26 52,26 21,0 36,-5 47,-16 10,-12 15,-29 15,-52l68 0zm2352 25c0,-14 -5,-25 -14,-33 -9,-8 -26,-16 -49,-23 -40,-13 -71,-27 -92,-44 -21,-17 -31,-40 -31,-69 0,-29 12,-53 35,-71 24,-18 54,-28 90,-28 39,0 70,10 93,30 24,20 35,46 34,78l0 2 -68 0c0,-18 -5,-32 -16,-41 -10,-10 -25,-15 -44,-15 -17,0 -31,5 -40,13 -9,9 -14,19 -14,33 0,12 5,22 15,29 10,8 28,16 53,25 38,11 68,25 88,43 20,18 30,41 30,71 0,30 -12,54 -35,72 -23,17 -54,26 -92,26 -38,0 -70,-10 -97,-29 -27,-19 -40,-47 -39,-85l0 -1 68 0c0,21 6,36 18,46 12,10 29,15 50,15 18,0 32,-4 42,-12 10,-8 15,-19 15,-32zm-2083 -24c0,35 -10,64 -32,87 -22,23 -50,34 -84,34 -35,0 -63,-11 -84,-34 -22,-23 -32,-52 -32,-87l0 -51c0,-35 10,-63 32,-86 21,-23 49,-35 83,-35 35,0 63,12 85,35 22,23 32,51 32,86l0 51zm-55 -51c0,-22 -6,-41 -17,-55 -11,-14 -25,-21 -45,-21 -19,0 -33,7 -44,21 -10,14 -16,33 -16,55l0 51c0,23 6,41 16,55 11,15 26,22 45,22 19,0 34,-7 45,-22 10,-14 16,-32 16,-55l0 -51zm325 51c0,35 -11,64 -32,87 -22,23 -50,34 -84,34 -35,0 -63,-11 -84,-34 -22,-23 -32,-52 -32,-87l0 -51c0,-35 10,-63 32,-86 21,-23 49,-35 83,-35 35,0 63,12 85,35 21,23 32,51 32,86l0 51zm-56 -51c0,-22 -5,-41 -16,-55 -11,-14 -26,-21 -45,-21 -19,0 -33,7 -44,21 -10,14 -16,33 -16,55l0 51c0,23 6,41 16,55 11,15 26,22 45,22 19,0 34,-7 44,-22 11,-14 16,-32 16,-55l0 -51zm156 54l0 114 -55 0 0 -285 96 0c32,0 57,8 75,23 18,14 27,35 27,61 0,15 -4,28 -12,38 -8,11 -19,19 -33,26 16,5 28,13 35,25 8,11 11,26 11,43l0 21c0,8 1,16 3,25 3,8 6,15 11,19l0 4 -57 0c-6,-4 -9,-11 -10,-21 -2,-9 -2,-19 -2,-28l0 -20c0,-14 -4,-25 -12,-33 -7,-8 -18,-12 -32,-12l-45 0zm0 -44l40 0c16,0 27,-3 35,-10 8,-7 12,-17 12,-30 0,-13 -4,-23 -12,-31 -8,-8 -19,-12 -34,-12l-41 0 0 83zm194 158l0 -285 98 0c34,0 62,12 84,34 22,22 33,50 33,85l0 47c0,35 -11,64 -33,86 -22,22 -50,33 -84,33l-98 0zm56 -241l0 197 42 0c18,0 33,-7 44,-21 11,-14 17,-32 17,-54l0 -47c0,-22 -6,-40 -17,-54 -11,-14 -26,-21 -44,-21l-42 0zm264 241l-56 0 0 -285 56 0 0 285zm280 0l-55 0 -113 -192 -1 0 0 192 -56 0 0 -285 56 0 112 192 2 0 0 -192 55 0 0 285zm201 -61l-91 0 -19 61 -58 0 94 -285 57 0 94 285 -58 0 -19 -61zm-77 -45l63 0 -31 -100 -1 0 -31 100zm358 -135l-80 0 0 241 -56 0 0 -241 -78 0 0 -44 214 0 0 44zm190 116l-103 0 0 81 123 0 0 44 -179 0 0 -285 178 0 0 44 -122 0 0 72 103 0 0 44zm587 125l-56 0 0 -118 -113 0 0 118 -56 0 0 -285 56 0 0 123 113 0 0 -123 56 0 0 285zm200 -61l-90 0 -19 61 -58 0 94 -285 57 0 94 285 -59 0 -19 -61zm-76 -45l63 0 -31 -100 -1 0 -31 100zm237 -8l0 114 -56 0 0 -285 96 0c32,0 57,8 75,23 18,14 27,35 27,61 0,15 -4,28 -12,38 -7,11 -18,19 -33,26 17,5 28,13 36,25 7,11 10,26 10,43l0 21c0,8 1,16 4,25 2,8 5,15 10,19l0 4 -57 0c-5,-4 -9,-11 -10,-21 -2,-9 -2,-19 -2,-28l0 -20c0,-14 -4,-25 -12,-33 -7,-8 -18,-12 -32,-12l-44 0zm0 -44l39 0c16,0 28,-3 35,-10 8,-7 12,-17 12,-30 0,-13 -4,-23 -12,-31 -8,-8 -19,-12 -34,-12l-40 0 0 83zm250 55l0 103 -56 0 0 -285 106 0c32,0 57,9 76,25 18,17 28,39 28,66 0,28 -10,49 -28,66 -19,16 -44,25 -76,25l-50 0zm0 -44l50 0c16,0 28,-5 36,-13 8,-9 12,-20 12,-33 0,-14 -4,-25 -12,-34 -8,-9 -20,-14 -36,-14l-50 0 0 94z"/>
  <g id="_1901317605520">
   <path class="fil15" d="M7731 10536c-346,-307 -859,-386 -1299,-155 -583,306 -816,1041 -520,1642l0 0 1 2c299,625 1059,869 1659,554 579,-304 826,-1016 578,-1624 93,-109 158,-271 85,-385 -96,-151 -372,-118 -503,-34l-1 0z"/>
   <path class="fil5" d="M8157 10620c-63,-98 -282,-65 -376,-6l-283 180 -576 -300c-18,-10 -44,-12 -61,-1l-182 116c-16,10 -36,37 -3,66l420 376 -266 169 -214 -82c-14,-5 -30,-3 -42,5l-142 90c-14,9 -11,21 0,31l297 265 114 381c4,14 15,22 28,13l142 -90c12,-8 21,-22 22,-36l16 -228 266 -170 163 539c13,43 45,36 61,25l182 -115c17,-11 27,-35 26,-56l-29 -649 283 -180c94,-60 216,-245 154,-343z"/>
   <path class="fil5" d="M7577 10634c-169,-131 -377,-206 -590,-212l-22 -11c-47,-24 -108,-25 -154,4l-39 25c-91,18 -182,49 -268,94 -499,262 -691,904 -429,1433 258,524 877,739 1389,487l2 3c-548,270 -1205,50 -1478,-502 -277,-560 -53,-1249 500,-1540 412,-216 889,-150 1228,130l-139 89z"/>
   <path class="fil5" d="M7043 10452c187,8 369,73 524,188l-73 47 -451 -235z"/>
   <path class="fil5" d="M6579 10699c-408,218 -565,744 -351,1178 213,431 724,620 1145,392l4 9c-456,226 -996,45 -1224,-416 -234,-473 -43,-1057 428,-1304 11,-6 23,-12 35,-18 -51,41 -63,105 -37,159z"/>
   <path class="fil5" d="M6730 10849c-18,7 -37,16 -55,25 -115,61 -204,153 -263,262l-30 19c-55,35 -66,101 -35,151 -36,153 -21,321 55,475 161,325 564,490 886,315l1 4c-375,179 -804,53 -986,-313 -181,-367 -34,-820 327,-1028l100 90z"/>
   <path class="fil5" d="M6976 11967c75,4 153,-11 225,-46l1 1c-88,43 -177,65 -261,67l35 -22z"/>
   <path class="fil5" d="M6519 11466c-1,79 16,161 54,237 39,79 98,142 167,188l14 45c3,10 7,18 11,26 -117,-41 -218,-129 -283,-262 -52,-104 -72,-215 -62,-323l99 89z"/>
   <path class="fil5" d="M6909 11008c-51,6 -101,21 -149,46 -14,8 -27,16 -40,25l-71 -28c-30,-11 -63,-11 -92,-2 47,-55 106,-102 176,-139 14,-8 28,-14 43,-21l133 119z"/>
   <path class="fil12" d="M9592 11523l1 3c1,67 -19,120 -61,158 -41,38 -98,57 -171,57 -74,0 -134,-25 -179,-73 -46,-49 -68,-112 -68,-189l0 -125c0,-76 22,-139 66,-188 45,-49 103,-73 175,-73 75,0 134,19 177,56 42,38 63,90 62,158l-1 3 -121 0c0,-40 -9,-71 -28,-90 -20,-20 -49,-30 -89,-30 -37,0 -66,15 -87,46 -21,30 -31,69 -31,118l0 125c0,49 11,88 33,119 22,31 52,46 91,46 37,0 65,-10 83,-30 19,-20 28,-50 28,-91l120 0zm4168 44c0,-24 -9,-43 -25,-58 -17,-15 -46,-29 -87,-42 -71,-22 -126,-47 -163,-77 -36,-30 -55,-70 -55,-122 0,-51 21,-93 63,-126 41,-33 94,-49 159,-49 68,0 123,17 165,52 41,36 62,82 60,139l-1 2 -120 0c0,-31 -9,-55 -28,-72 -18,-17 -44,-25 -78,-25 -31,0 -54,7 -71,22 -17,15 -25,34 -25,58 0,21 9,39 27,52 18,14 50,29 94,44 68,19 119,45 155,77 36,31 54,73 54,124 0,54 -21,97 -62,128 -42,31 -96,47 -164,47 -67,0 -124,-17 -171,-51 -48,-34 -71,-84 -70,-151l1 -2 120 0c0,37 11,64 33,82 21,17 50,26 87,26 33,0 58,-7 76,-21 17,-14 26,-33 26,-57zm-3690 -42c0,62 -19,113 -58,153 -38,41 -88,61 -149,61 -61,0 -111,-20 -149,-61 -38,-40 -57,-91 -57,-153l0 -91c0,-61 19,-112 57,-153 38,-40 87,-60 148,-60 62,0 111,20 150,60 38,41 58,92 58,153l0 91zm-99 -91c0,-40 -10,-72 -29,-97 -19,-25 -46,-38 -80,-38 -33,0 -59,13 -78,38 -19,25 -28,57 -28,97l0 91c0,40 9,72 28,98 19,25 45,37 79,37 34,0 60,-12 79,-37 19,-26 29,-58 29,-98l0 -91zm577 91c0,62 -19,113 -58,153 -38,41 -88,61 -149,61 -61,0 -111,-20 -149,-61 -38,-40 -57,-91 -57,-153l0 -91c0,-61 19,-112 57,-153 38,-40 87,-60 148,-60 62,0 112,20 150,60 39,41 58,92 58,153l0 91zm-99 -91c0,-40 -10,-72 -29,-97 -19,-25 -46,-38 -80,-38 -33,0 -59,13 -78,38 -19,25 -28,57 -28,97l0 91c0,40 10,72 28,98 19,25 45,37 79,37 34,0 60,-12 79,-37 19,-26 29,-58 29,-98l0 -91zm276 96l0 202 -99 0 0 -504 171 0c57,0 101,13 132,39 32,26 48,63 48,110 0,25 -7,48 -20,67 -14,18 -33,34 -59,45 29,9 50,24 63,44 13,21 19,46 19,76l0 37c0,14 2,29 6,44 3,16 10,27 19,34l0 8 -102 0c-9,-8 -15,-20 -18,-37 -2,-17 -4,-34 -4,-49l0 -36c0,-25 -6,-45 -20,-59 -13,-14 -32,-21 -57,-21l-79 0zm0 -78l70 0c28,0 49,-6 63,-18 13,-12 20,-29 20,-53 0,-23 -7,-41 -21,-55 -13,-14 -33,-20 -60,-20l-72 0 0 146zm344 280l0 -504 172 0c61,0 111,19 150,59 39,39 58,90 58,151l0 84c0,61 -19,112 -58,151 -39,39 -89,59 -150,59l-172 0zm99 -426l0 348 73 0c33,0 59,-12 79,-37 20,-25 30,-57 30,-95l0 -84c0,-39 -10,-71 -30,-95 -20,-25 -46,-37 -79,-37l-73 0zm467 426l-99 0 0 -504 99 0 0 504zm497 0l-99 0 -199 -340 -2 0 0 340 -99 0 0 -504 99 0 199 339 2 0 0 -339 99 0 0 504zm355 -109l-160 0 -34 109 -103 0 166 -504 102 0 166 504 -104 0 -33 -109zm-136 -79l112 0 -55 -178 -2 0 -55 178zm635 -238l-142 0 0 426 -99 0 0 -426 -139 0 0 -78 380 0 0 78zm336 204l-183 0 0 144 218 0 0 78 -317 0 0 -504 316 0 0 78 -217 0 0 126 183 0 0 78zm1041 222l-99 0 0 -210 -202 0 0 210 -99 0 0 -504 99 0 0 216 202 0 0 -216 99 0 0 504zm354 -109l-160 0 -33 109 -103 0 166 -504 102 0 166 504 -104 0 -34 -109zm-135 -79l111 0 -54 -178 -2 0 -55 178zm419 -14l0 202 -99 0 0 -504 171 0c56,0 100,13 132,39 32,26 48,63 48,110 0,25 -7,48 -20,67 -14,18 -33,34 -59,45 29,9 50,24 63,44 13,21 19,46 19,76l0 37c0,14 2,29 6,44 3,16 10,27 19,34l0 8 -102 0c-10,-8 -15,-20 -18,-37 -3,-17 -4,-34 -4,-49l0 -36c0,-25 -7,-45 -20,-59 -14,-14 -32,-21 -57,-21l-79 0zm0 -78l70 0c28,0 49,-6 62,-18 14,-12 21,-29 21,-53 0,-23 -7,-41 -21,-55 -13,-14 -33,-20 -60,-20l-72 0 0 146zm443 97l0 183 -99 0 0 -504 189 0c57,0 101,15 134,44 32,30 49,68 49,117 0,48 -17,87 -49,116 -33,29 -77,44 -134,44l-90 0zm0 -78l90 0c27,0 48,-8 63,-23 14,-15 21,-35 21,-59 0,-24 -7,-44 -21,-60 -14,-15 -35,-23 -63,-23l-90 0 0 165z"/>
  </g>
  <g id="_1901317601200">
   <path class="fil16" d="M10131 24386c-346,-307 -860,-386 -1300,-155 -583,307 -815,1041 -520,1643l0 0 1 1c299,625 1060,869 1659,555 580,-305 826,-1016 578,-1625 93,-109 158,-270 86,-384 -97,-152 -372,-119 -504,-35l0 0z"/>
   <path class="fil5" d="M10556 24471c-62,-98 -282,-66 -375,-6l-283 180 -576 -301c-18,-9 -44,-11 -61,0l-182 115c-16,10 -37,37 -3,67l419 375 -266 169 -214 -81c-13,-5 -30,-3 -42,4l-142 91c-13,8 -10,21 1,31l296 265 115 380c4,14 14,22 27,14l142 -91c12,-7 21,-22 22,-35l17 -229 266 -169 162 538c13,43 46,36 62,26l182 -116c17,-11 26,-35 25,-55l-28 -650 283 -180c93,-59 216,-244 153,-342z"/>
   <path class="fil5" d="M9977 24484c-170,-131 -378,-205 -591,-211l-21 -11c-48,-25 -109,-26 -154,3l-40 25c-91,18 -181,49 -268,95 -498,262 -691,903 -429,1433 259,523 878,739 1389,486l2 3c-548,271 -1205,50 -1477,-501 -277,-560 -53,-1250 500,-1540 411,-216 889,-151 1228,130l-139 88z"/>
   <path class="fil5" d="M9443 24302c187,8 369,74 524,189l-74 46 -450 -235z"/>
   <path class="fil5" d="M8979 24550c-408,217 -566,743 -351,1177 213,431 724,620 1145,393l4 8c-456,226 -997,46 -1225,-415 -234,-474 -42,-1058 428,-1305 12,-6 24,-12 35,-17 -50,40 -63,104 -36,159z"/>
   <path class="fil5" d="M9130 24699c-19,8 -37,16 -55,26 -115,60 -205,152 -264,261l-30 20c-55,35 -65,100 -34,150 -37,153 -21,322 55,475 161,326 564,490 885,316l2 3c-375,179 -805,54 -986,-313 -181,-366 -35,-819 326,-1028l101 90z"/>
   <path class="fil5" d="M9375 25817c76,4 153,-11 225,-46l1 2c-88,43 -176,65 -261,67l35 -23z"/>
   <path class="fil5" d="M8918 25317c0,79 17,160 55,236 39,79 97,143 167,188l14 46c2,9 6,18 11,26 -118,-42 -218,-129 -284,-262 -51,-104 -71,-216 -62,-323l99 89z"/>
   <path class="fil5" d="M9308 24859c-50,6 -100,21 -148,46 -14,7 -28,15 -41,24l-71 -27c-29,-11 -62,-12 -92,-2 47,-55 106,-103 176,-140 14,-7 29,-14 43,-20l133 119z"/>
   <path class="fil13" d="M11991 25374l1 2c1,67 -19,120 -60,158 -42,38 -98,57 -171,57 -74,0 -134,-24 -179,-73 -46,-48 -69,-111 -69,-188l0 -125c0,-77 22,-140 67,-189 44,-48 102,-73 175,-73 75,0 134,19 176,56 42,38 63,91 62,159l-1 2 -120 0c0,-40 -10,-70 -29,-90 -19,-20 -49,-30 -88,-30 -38,0 -66,16 -87,46 -21,31 -31,70 -31,118l0 126c0,48 11,88 33,118 21,31 52,46 91,46 37,0 65,-10 83,-29 18,-20 27,-51 27,-91l120 0zm4168 44c0,-24 -8,-44 -25,-59 -16,-14 -45,-28 -87,-41 -71,-22 -125,-48 -162,-78 -37,-29 -55,-70 -55,-121 0,-52 20,-94 62,-127 42,-32 95,-49 159,-49 68,0 123,18 165,53 42,35 62,81 61,138l-1 3 -120 0c0,-32 -10,-56 -28,-72 -19,-17 -45,-26 -79,-26 -30,0 -54,8 -71,23 -16,15 -25,34 -25,57 0,22 10,39 28,53 18,13 49,28 93,43 68,20 120,45 156,77 35,32 53,73 53,125 0,54 -21,96 -62,127 -41,32 -96,47 -164,47 -66,0 -123,-17 -171,-50 -47,-34 -71,-85 -69,-151l1 -3 120 0c0,37 10,65 32,82 21,18 51,27 87,27 34,0 59,-8 76,-22 17,-14 26,-33 26,-56zm-3690 -43c0,62 -19,114 -57,154 -38,40 -88,60 -150,60 -61,0 -110,-20 -148,-60 -38,-41 -57,-92 -57,-154l0 -90c0,-62 19,-113 57,-153 37,-41 87,-61 148,-61 61,0 111,20 149,61 39,40 58,91 58,153l0 90zm-99 -91c0,-39 -9,-71 -29,-96 -19,-26 -45,-38 -79,-38 -34,0 -60,12 -79,38 -18,25 -27,57 -27,96l0 91c0,40 9,73 28,98 18,25 45,38 78,38 34,0 61,-13 80,-38 19,-25 28,-58 28,-98l0 -91zm577 91c0,62 -19,114 -57,154 -38,40 -88,60 -149,60 -62,0 -111,-20 -149,-60 -38,-41 -57,-92 -57,-154l0 -90c0,-62 19,-113 57,-153 38,-41 87,-61 148,-61 61,0 111,20 150,61 38,40 57,91 57,153l0 90zm-99 -91c0,-39 -9,-71 -28,-96 -20,-26 -46,-38 -80,-38 -34,0 -60,12 -78,38 -19,25 -28,57 -28,96l0 91c0,40 9,73 28,98 19,25 45,38 79,38 34,0 60,-13 79,-38 19,-25 28,-58 28,-98l0 -91zm277 97l0 201 -99 0 0 -504 171 0c56,0 100,13 132,40 32,26 48,62 48,109 0,26 -7,48 -21,67 -13,19 -33,34 -59,45 30,9 51,24 63,44 13,21 20,46 20,77l0 37c0,14 1,28 5,44 4,15 10,26 19,34l0 7 -102 0c-9,-7 -15,-20 -17,-37 -3,-17 -4,-33 -4,-49l0 -36c0,-25 -7,-44 -20,-58 -14,-14 -33,-21 -58,-21l-78 0zm0 -78l70 0c28,0 48,-6 62,-18 14,-12 20,-30 20,-54 0,-23 -6,-41 -20,-55 -14,-13 -34,-20 -60,-20l-72 0 0 147zm343 279l0 -504 173 0c60,0 110,20 149,59 39,40 59,90 59,152l0 83c0,62 -20,112 -59,151 -39,39 -89,59 -149,59l-173 0zm100 -426l0 349 73 0c32,0 59,-13 79,-38 19,-24 29,-56 29,-95l0 -84c0,-39 -10,-70 -29,-95 -20,-25 -47,-37 -79,-37l-73 0zm466 426l-99 0 0 -504 99 0 0 504zm498 0l-99 0 -200 -340 -2 1 0 339 -99 0 0 -504 99 0 200 340 2 -1 0 -339 99 0 0 504zm354 -109l-160 0 -33 109 -104 0 167 -504 101 0 166 504 -103 0 -34 -109zm-135 -79l111 0 -54 -177 -2 0 -55 177zm634 -238l-141 0 0 426 -99 0 0 -426 -139 0 0 -78 379 0 0 78zm337 205l-184 0 0 144 218 0 0 77 -317 0 0 -504 317 0 0 78 -218 0 0 127 184 0 0 78zm1040 221l-99 0 0 -209 -201 0 0 209 -99 0 0 -504 99 0 0 217 201 0 0 -217 99 0 0 504zm355 -109l-160 0 -34 109 -103 0 167 -504 101 0 166 504 -104 0 -33 -109zm-136 -79l112 0 -55 -177 -2 0 -55 177zm420 -13l0 201 -99 0 0 -504 170 0c57,0 101,13 133,40 31,26 47,62 47,109 0,26 -6,48 -20,67 -13,19 -33,34 -59,45 29,9 50,24 63,44 13,21 19,46 19,77l0 37c0,14 2,28 6,44 4,15 10,26 19,34l0 7 -102 0c-9,-7 -15,-20 -17,-37 -3,-17 -4,-33 -4,-49l0 -36c0,-25 -7,-44 -21,-58 -13,-14 -32,-21 -57,-21l-78 0zm0 -78l70 0c28,0 48,-6 62,-18 13,-12 20,-30 20,-54 0,-23 -7,-41 -20,-55 -14,-13 -34,-20 -61,-20l-71 0 0 147zm442 96l0 183 -99 0 0 -504 189 0c57,0 102,15 134,44 33,30 49,69 49,117 0,48 -16,87 -49,116 -32,30 -77,44 -134,44l-90 0zm0 -78l90 0c28,0 49,-7 63,-23 14,-15 21,-34 21,-58 0,-24 -7,-44 -21,-60 -14,-16 -35,-24 -63,-24l-90 0 0 165z"/>
  </g>
  <path class="fil5" d="M5003 29547c-346,-307 -860,-386 -1300,-155 -583,306 -815,1041 -520,1643l0 0 1 1c299,625 1060,869 1659,554 580,-304 826,-1016 578,-1624 93,-109 158,-270 86,-384 -97,-152 -372,-119 -504,-35l0 0zm425 85c-62,-98 -282,-66 -375,-7l-283 181 -576 -301c-18,-10 -44,-11 -61,-1l-182 116c-16,10 -37,37 -3,67l419 375 -266 169 -214 -81c-13,-5 -30,-3 -42,4l-142 91c-13,8 -10,21 1,31l296 264 115 381c4,14 14,22 27,14l142 -91c12,-7 21,-22 22,-36l17 -228 266 -169 162 538c13,43 46,36 62,26l182 -116c17,-11 26,-35 25,-55l-28 -650 283 -180c93,-59 216,-244 153,-342zm-579 13c-170,-131 -378,-205 -591,-211l-21 -12c-48,-24 -109,-25 -154,4l-40 25c-91,18 -181,49 -268,94 -498,262 -691,904 -429,1433 259,524 878,739 1389,487l2 3c-548,271 -1205,50 -1477,-501 -277,-560 -53,-1250 500,-1541 411,-216 889,-150 1228,131l-139 88zm-534 -182c187,8 369,74 524,189l-74 46 -450 -235zm-464 247c-408,218 -566,744 -351,1178 213,431 724,620 1145,392l4 9c-456,226 -997,45 -1225,-416 -234,-473 -42,-1057 428,-1304 12,-6 24,-12 35,-17 -50,40 -63,104 -36,158zm151 150c-19,7 -37,16 -55,25 -115,61 -205,153 -264,262l-30 19c-55,35 -65,101 -34,151 -37,153 -21,322 55,475 161,326 564,490 885,315l2 4c-375,179 -805,53 -986,-313 -181,-366 -35,-819 326,-1028l101 90zm245 1118c76,4 153,-11 225,-46l1 2c-88,42 -176,64 -261,66l35 -22zm-457 -500c0,79 17,160 55,236 39,79 97,143 167,188l14 46c2,9 6,18 11,26 -118,-42 -218,-130 -284,-262 -51,-104 -71,-216 -62,-323l99 89zm390 -458c-50,6 -100,21 -148,46 -14,7 -28,15 -41,24l-71 -27c-29,-11 -62,-12 -92,-2 47,-56 106,-103 176,-140 14,-7 29,-14 43,-20l133 119z"/>
  <path class="fil13" d="M6863 30534l1 3c1,67 -19,120 -60,158 -41,38 -98,57 -171,57 -74,0 -134,-24 -179,-73 -46,-48 -69,-111 -69,-188l0 -125c0,-77 22,-140 67,-189 44,-49 102,-73 175,-73 75,0 134,19 176,56 42,38 63,91 62,159l-1 2 -120 0c0,-40 -10,-70 -29,-90 -19,-20 -49,-30 -88,-30 -38,0 -66,16 -87,46 -21,30 -31,70 -31,118l0 126c0,48 11,88 33,118 21,31 52,46 91,46 37,0 65,-10 83,-29 18,-20 27,-51 27,-92l120 0zm4168 45c0,-25 -8,-44 -25,-59 -16,-14 -45,-28 -87,-41 -71,-22 -125,-48 -162,-78 -37,-30 -55,-70 -55,-121 0,-52 20,-94 62,-127 42,-33 95,-49 159,-49 68,0 124,18 165,53 42,35 62,81 61,138l-1 3 -120 0c0,-32 -10,-56 -28,-73 -19,-17 -45,-25 -79,-25 -30,0 -54,8 -71,23 -16,15 -25,34 -25,57 0,21 10,39 28,53 18,13 49,28 93,43 68,20 120,45 156,77 35,32 53,73 53,125 0,54 -21,96 -62,127 -41,31 -96,47 -164,47 -66,0 -123,-17 -171,-51 -47,-33 -71,-84 -69,-151l1 -2 120 0c0,37 10,64 32,82 21,18 51,26 87,26 34,0 59,-7 76,-21 17,-14 26,-33 26,-56zm-3690 -43c0,62 -19,113 -57,154 -38,40 -88,60 -150,60 -61,0 -110,-20 -148,-60 -38,-41 -57,-92 -57,-154l0 -90c0,-62 19,-113 57,-153 38,-41 87,-61 148,-61 61,0 111,20 149,61 39,40 58,91 58,153l0 90zm-99 -91c0,-39 -9,-71 -29,-97 -19,-25 -45,-37 -79,-37 -34,0 -60,12 -79,37 -18,26 -27,58 -27,97l0 91c0,40 9,73 28,98 18,25 45,38 78,38 34,0 61,-13 80,-38 19,-25 28,-58 28,-98l0 -91zm577 91c0,62 -19,113 -57,154 -38,40 -88,60 -149,60 -62,0 -111,-20 -149,-60 -38,-41 -57,-92 -57,-154l0 -90c0,-62 19,-113 57,-153 38,-41 87,-61 148,-61 61,0 111,20 150,61 38,40 57,91 57,153l0 90zm-99 -91c0,-39 -9,-71 -28,-97 -20,-25 -46,-37 -80,-37 -34,0 -60,12 -78,37 -19,26 -28,58 -28,97l0 91c0,40 9,73 28,98 19,25 45,38 79,38 34,0 60,-13 79,-38 19,-25 28,-58 28,-98l0 -91zm277 97l0 201 -99 0 0 -504 171 0c56,0 100,13 132,39 32,27 48,63 48,110 0,26 -7,48 -21,67 -13,19 -33,34 -59,45 30,9 51,24 63,44 13,21 20,46 20,76l0 37c0,14 1,29 5,45 4,15 10,26 19,34l0 7 -102 0c-9,-8 -15,-20 -17,-37 -3,-17 -4,-33 -4,-49l0 -36c0,-25 -7,-45 -20,-59 -14,-13 -33,-20 -58,-20l-78 0zm0 -78l70 0c28,0 48,-6 62,-18 14,-12 20,-30 20,-54 0,-23 -6,-41 -20,-55 -14,-13 -34,-20 -60,-20l-72 0 0 147zm344 279l0 -504 172 0c60,0 110,20 149,59 39,39 59,90 59,152l0 83c0,62 -20,112 -59,151 -39,39 -89,59 -149,59l-172 0zm99 -426l0 348 73 0c32,0 59,-12 79,-37 19,-25 29,-56 29,-95l0 -84c0,-39 -10,-70 -29,-95 -20,-25 -47,-37 -79,-37l-73 0zm466 426l-99 0 0 -504 99 0 0 504zm498 0l-99 0 -200 -340 -2 0 0 340 -99 0 0 -504 99 0 200 340 2 -1 0 -339 99 0 0 504zm354 -109l-160 0 -33 109 -104 0 167 -504 101 0 166 504 -103 0 -34 -109zm-135 -79l111 0 -54 -178 -2 0 -55 178zm634 -238l-141 0 0 426 -99 0 0 -426 -139 0 0 -78 379 0 0 78zm337 204l-184 0 0 144 218 0 0 78 -317 0 0 -504 317 0 0 78 -218 0 0 127 184 0 0 77zm1040 222l-99 0 0 -209 -201 0 0 209 -99 0 0 -504 99 0 0 217 201 0 0 -217 99 0 0 504zm355 -109l-160 0 -34 109 -103 0 167 -504 101 0 166 504 -104 0 -33 -109zm-136 -79l112 0 -55 -178 -2 0 -55 178zm420 -13l0 201 -99 0 0 -504 170 0c57,0 101,13 133,39 32,27 47,63 47,110 0,26 -6,48 -20,67 -13,19 -33,34 -59,45 29,9 50,24 63,44 13,21 19,46 19,76l0 37c0,14 2,29 6,45 4,15 10,26 19,34l0 7 -102 0c-9,-8 -15,-20 -17,-37 -3,-17 -4,-33 -4,-49l0 -36c0,-25 -7,-45 -21,-59 -13,-13 -32,-20 -57,-20l-78 0zm0 -78l70 0c28,0 48,-6 62,-18 14,-12 20,-30 20,-54 0,-23 -7,-41 -20,-55 -14,-13 -34,-20 -61,-20l-71 0 0 147zm442 96l0 183 -99 0 0 -504 189 0c57,0 102,15 134,44 33,30 49,69 49,117 0,48 -16,87 -49,116 -32,30 -77,44 -134,44l-90 0zm0 -78l90 0c28,0 49,-7 63,-23 14,-15 21,-35 21,-58 0,-25 -7,-45 -21,-60 -14,-16 -35,-24 -63,-24l-90 0 0 165z"/>
  <path class="fil17" d="M15322 40568l3945 0c181,0 329,148 329,329l0 3944c0,181 -148,329 -329,329l-3945 0c-181,0 -329,-148 -329,-329l0 -3944c0,-181 148,-329 329,-329z"/>
  <path class="fil3" d="M1943 40513l12163 0c271,0 493,222 493,493l0 3616c0,271 -222,493 -493,493l-12163 0c-271,0 -493,-222 -493,-493l0 -3616c0,-271 222,-493 493,-493z"/>
  <path class="fil5" d="M17850 41972c-263,-233 -654,-293 -988,-118 -443,233 -620,792 -395,1249l-1 0 1 1c228,476 806,661 1262,422 440,-231 628,-773 439,-1235 71,-83 120,-206 65,-293 -73,-115 -282,-90 -383,-26l0 0zm324 64c-48,-74 -215,-49 -286,-4l-215 137 -438 -229c-14,-7 -34,-9 -47,0l-138 88c-12,7 -28,28 -2,50l319 286 -203 128 -162 -62c-10,-4 -23,-2 -32,4l-108 69c-10,6 -8,16 0,23l226 202 87 289c3,11 11,17 21,10l108 -68c9,-6 16,-17 16,-28l13 -173 202 -129 124 409c10,33 35,27 47,20l138 -88c13,-9 20,-27 19,-42l-21 -494 215 -137c71,-45 164,-186 117,-261zm-441 11c-129,-100 -287,-157 -449,-161l-17 -9c-36,-18 -82,-19 -117,3l-30 19c-69,14 -138,37 -203,72 -380,199 -526,687 -327,1090 197,398 668,562 1057,370l1 2c-417,206 -916,38 -1123,-381 -211,-426 -41,-951 380,-1172 313,-164 676,-114 934,99l-106 68zm-406 -139c142,6 281,56 398,144l-56 35 -342 -179zm-353 188c-310,166 -430,566 -267,896 162,328 550,471 871,298l3 7c-347,172 -758,34 -931,-316 -178,-360 -33,-804 325,-992 9,-5 18,-9 27,-14 -39,31 -48,80 -28,121zm115 114c-14,6 -28,12 -42,19 -88,46 -156,117 -201,200l-22 14c-42,27 -50,76 -27,115 -27,116 -15,244 42,361 123,247 429,373 674,240l1 2c-285,137 -612,41 -750,-238 -137,-278 -26,-623 249,-781l76 68zm186 850c58,3 117,-8 172,-35l0 2c-66,32 -134,49 -198,50l26 -17zm-347 -380c-1,60 13,122 41,180 30,60 75,108 128,142l10 35c2,7 5,14 8,20 -89,-31 -165,-98 -215,-199 -39,-79 -54,-164 -47,-246l75 68zm297 -349c-39,5 -77,16 -113,35 -11,6 -21,12 -31,19l-54 -21c-22,-8 -48,-9 -70,-1 36,-42 81,-79 134,-106 10,-6 21,-11 32,-16l102 90z"/>
  <path class="fil13" d="M15711 44145l1 2c0,38 -11,67 -34,89 -24,21 -56,32 -97,32 -42,0 -75,-14 -101,-41 -26,-27 -38,-63 -38,-106l0 -71c0,-43 12,-79 37,-106 25,-28 58,-42 99,-42 42,0 75,11 99,32 24,21 36,51 35,89l0 2 -68 0c0,-23 -6,-40 -16,-51 -11,-11 -28,-17 -50,-17 -21,0 -38,9 -49,26 -12,17 -18,39 -18,67l0 71c0,27 6,49 19,67 12,17 29,25 51,25 21,0 37,-5 47,-16 10,-11 16,-29 16,-52l67 0zm2353 25c0,-13 -5,-24 -14,-33 -10,-8 -26,-16 -50,-23 -40,-13 -70,-27 -91,-44 -21,-17 -31,-40 -31,-69 0,-29 11,-52 35,-71 23,-18 53,-28 90,-28 38,0 69,10 93,30 23,20 35,46 34,78l-1 2 -67 0c0,-18 -6,-32 -16,-41 -11,-10 -25,-14 -44,-14 -18,0 -31,4 -40,12 -10,9 -15,20 -15,33 0,12 6,22 16,29 10,8 28,16 53,25 38,11 67,25 87,43 21,18 31,42 31,71 0,30 -12,54 -35,72 -24,17 -55,26 -93,26 -37,0 -70,-9 -96,-28 -27,-20 -40,-48 -40,-86l1 -1 68 0c0,21 6,36 18,46 12,10 28,15 49,15 19,0 33,-4 43,-12 10,-8 15,-18 15,-32zm-2083 -24c0,35 -11,64 -32,87 -22,23 -50,34 -85,34 -34,0 -62,-11 -84,-34 -21,-23 -32,-52 -32,-87l0 -51c0,-35 11,-63 32,-86 22,-23 50,-34 84,-34 35,0 63,11 84,34 22,23 33,51 33,86l0 51zm-56 -51c0,-22 -5,-41 -16,-55 -11,-14 -26,-21 -45,-21 -19,0 -34,7 -44,21 -11,14 -16,33 -16,55l0 51c0,23 5,41 16,55 11,15 25,22 44,22 20,0 34,-7 45,-22 11,-14 16,-32 16,-55l0 -51zm326 51c0,35 -11,64 -32,87 -22,23 -50,34 -85,34 -34,0 -62,-11 -84,-34 -21,-23 -32,-52 -32,-87l0 -51c0,-35 11,-63 32,-86 22,-23 49,-34 84,-34 34,0 63,11 84,34 22,23 33,51 33,86l0 51zm-56 -51c0,-22 -5,-41 -16,-55 -11,-14 -26,-21 -45,-21 -19,0 -34,7 -44,21 -11,14 -16,33 -16,55l0 51c0,23 5,41 16,55 10,15 25,22 44,22 19,0 34,-7 45,-22 11,-14 16,-32 16,-55l0 -51zm156 54l0 114 -56 0 0 -284 97 0c31,0 56,7 74,22 18,15 27,35 27,62 0,14 -4,27 -11,37 -8,11 -19,20 -33,26 16,5 28,13 35,25 7,11 11,26 11,43l0 21c0,8 1,16 3,25 2,8 6,15 11,19l0 4 -58 0c-5,-4 -8,-11 -10,-21 -1,-9 -2,-19 -2,-28l0 -20c0,-14 -4,-25 -11,-33 -8,-8 -19,-12 -33,-12l-44 0zm0 -44l40 0c15,0 27,-3 35,-10 7,-7 11,-17 11,-30 0,-13 -4,-23 -11,-31 -8,-8 -19,-11 -34,-11l-41 0 0 82zm194 158l0 -284 97 0c34,0 63,11 85,33 22,22 33,51 33,85l0 47c0,35 -11,64 -33,86 -22,22 -51,33 -85,33l-97 0zm56 -240l0 196 41 0c19,0 34,-7 45,-21 11,-14 17,-32 17,-54l0 -47c0,-22 -6,-40 -17,-54 -11,-13 -26,-20 -45,-20l-41 0zm263 240l-56 0 0 -284 56 0 0 284zm281 0l-56 0 -112 -192 -1 0 0 192 -56 0 0 -284 56 0 112 191 1 0 0 -191 56 0 0 284zm200 -61l-90 0 -19 61 -58 0 94 -284 57 0 94 284 -59 0 -19 -61zm-76 -45l63 0 -31 -100 -1 0 -31 100zm358 -134l-80 0 0 240 -56 0 0 -240 -78 0 0 -44 214 0 0 44zm190 115l-104 0 0 81 123 0 0 44 -179 0 0 -284 179 0 0 44 -123 0 0 71 104 0 0 44zm587 125l-56 0 0 -118 -113 0 0 118 -56 0 0 -284 56 0 0 122 113 0 0 -122 56 0 0 284zm200 -61l-90 0 -19 61 -58 0 94 -284 57 0 94 284 -59 0 -19 -61zm-76 -45l63 0 -31 -100 -1 0 -31 100zm236 -8l0 114 -56 0 0 -284 97 0c32,0 56,7 74,22 18,15 27,35 27,62 0,14 -3,27 -11,37 -8,11 -19,20 -33,26 16,5 28,13 35,25 7,11 11,26 11,43l0 21c0,8 1,16 3,25 2,8 6,15 11,19l0 4 -58 0c-5,-4 -8,-11 -9,-21 -2,-9 -3,-19 -3,-28l0 -20c0,-14 -3,-25 -11,-33 -8,-8 -18,-12 -32,-12l-45 0zm0 -44l40 0c16,0 27,-3 35,-10 8,-7 11,-17 11,-30 0,-13 -3,-23 -11,-31 -8,-8 -19,-11 -34,-11l-41 0 0 82zm250 55l0 103 -56 0 0 -284 107 0c32,0 57,8 76,25 18,16 27,38 27,65 0,28 -9,49 -27,66 -19,17 -44,25 -76,25l-51 0zm0 -44l51 0c15,0 27,-4 35,-13 8,-9 12,-20 12,-33 0,-14 -4,-25 -12,-34 -8,-9 -19,-13 -35,-13l-51 0 0 93z"/>
  <path class="fil5" d="M5003 41916c-346,-307 -860,-386 -1300,-155 -583,306 -815,1041 -520,1642l0 0 1 2c299,624 1060,869 1659,554 580,-304 826,-1016 578,-1624 93,-109 158,-271 86,-385 -97,-151 -372,-118 -504,-34l0 0zm425 84c-62,-98 -282,-65 -375,-6l-283 180 -576 -301c-18,-9 -44,-11 -61,0l-182 116c-16,10 -37,37 -3,66l419 376 -266 169 -214 -82c-13,-5 -30,-3 -42,5l-142 90c-13,9 -10,21 1,31l296 265 115 380c4,15 14,23 27,14l142 -90c12,-8 21,-22 22,-36l17 -228 266 -170 162 539c13,43 46,35 62,25l182 -115c17,-11 26,-35 25,-56l-28 -649 283 -180c93,-60 216,-245 153,-343zm-579 14c-170,-131 -378,-206 -591,-212l-21 -11c-48,-25 -109,-25 -154,4l-40 25c-91,18 -181,49 -268,94 -498,262 -691,904 -429,1433 259,523 878,739 1389,487l2 2c-548,271 -1205,51 -1477,-501 -277,-560 -53,-1249 500,-1540 411,-216 889,-150 1228,130l-139 89zm-534 -182c187,7 369,73 524,188l-74 47 -450 -235zm-464 247c-408,218 -566,744 -351,1178 213,431 724,620 1145,392l4 9c-456,226 -997,45 -1225,-416 -234,-473 -42,-1057 428,-1304 12,-6 24,-12 35,-18 -50,41 -63,105 -36,159zm151 150c-19,7 -37,16 -55,25 -115,61 -205,153 -264,262l-30 19c-55,35 -65,100 -34,151 -37,153 -21,321 55,475 161,325 564,490 885,315l2 4c-375,179 -805,53 -986,-313 -181,-367 -35,-820 326,-1028l101 90zm245 1118c76,3 153,-11 225,-46l1 1c-88,43 -176,65 -261,67l35 -22zm-457 -501c0,79 17,160 55,237 39,79 97,142 167,187l14 46c2,10 6,18 11,26 -118,-41 -218,-129 -284,-262 -51,-104 -71,-215 -62,-323l99 89zm390 -458c-50,6 -100,21 -148,46 -14,8 -28,16 -41,25l-71 -28c-29,-11 -62,-11 -92,-2 47,-55 106,-103 176,-139 14,-8 29,-15 43,-21l133 119z"/>
  <path class="fil3" d="M8105 46569c-346,-307 -860,-385 -1299,-155 -583,307 -816,1041 -520,1643l0 0 0 1c300,625 1060,869 1660,555 579,-305 826,-1016 578,-1625 93,-109 157,-270 85,-384 -96,-152 -372,-119 -504,-35l0 0zm426 85c-63,-98 -282,-66 -376,-6l-283 180 -576 -301c-18,-9 -44,-11 -61,0l-182 115c-16,11 -36,37 -3,67l419 375 -266 169 -214 -81c-13,-5 -30,-3 -41,4l-143 91c-13,8 -10,21 1,31l296 265 115 380c4,14 14,22 28,14l142 -91c12,-7 21,-21 22,-35l16 -229 266 -169 163 539c13,42 45,35 61,25l182 -116c17,-11 26,-35 26,-55l-29 -650 283 -180c93,-59 216,-244 154,-342zm-580 13c-169,-131 -377,-205 -591,-211l-21 -11c-47,-25 -108,-26 -154,3l-39 25c-92,18 -182,49 -268,95 -499,262 -691,903 -430,1433 259,523 878,739 1390,486l2 3c-549,271 -1205,50 -1478,-501 -277,-560 -53,-1250 500,-1540 412,-216 889,-151 1228,130l-139 88zm-534 -182c187,8 369,74 524,189l-73 47 -451 -236zm-464 248c-408,217 -565,743 -351,1177 213,431 724,620 1145,393l4 8c-456,226 -996,46 -1224,-415 -234,-474 -43,-1058 427,-1305 12,-6 24,-12 36,-17 -51,40 -63,104 -37,159zm151 149c-18,8 -37,16 -55,26 -115,60 -204,152 -264,262l-29 19c-55,35 -66,100 -35,150 -36,153 -21,322 55,475 161,326 564,490 885,316l2 3c-375,179 -805,54 -986,-313 -181,-366 -34,-819 327,-1028l100 90zm245 1118c76,4 153,-11 226,-46l1 2c-88,43 -177,65 -262,67l35 -23zm-456 -500c-1,79 16,160 54,236 39,79 98,143 167,188l14 46c3,9 7,18 11,26 -118,-41 -218,-129 -284,-262 -51,-104 -71,-216 -62,-323l100 89zm390 -458c-51,6 -101,21 -149,46 -14,7 -27,15 -40,24l-71 -27c-30,-11 -63,-12 -92,-2 47,-55 106,-103 175,-140 15,-7 29,-14 44,-20l133 119z"/>
  <path class="fil13" d="M6863 42903l1 3c1,67 -19,119 -60,158 -41,38 -98,57 -171,57 -74,0 -134,-25 -179,-73 -46,-49 -69,-112 -69,-189l0 -125c0,-76 22,-139 67,-188 44,-49 102,-73 175,-73 75,0 134,18 176,56 42,37 63,90 62,158l-1 3 -120 0c0,-41 -10,-71 -29,-90 -19,-20 -49,-30 -88,-30 -38,0 -66,15 -87,46 -21,30 -31,69 -31,117l0 126c0,49 11,88 33,119 21,30 52,46 91,46 37,0 65,-10 83,-30 18,-20 27,-50 27,-91l120 0zm4168 44c0,-24 -8,-43 -25,-58 -16,-15 -45,-29 -87,-42 -71,-22 -125,-47 -162,-77 -37,-30 -55,-70 -55,-122 0,-51 20,-94 62,-126 42,-33 95,-49 159,-49 68,0 124,17 165,52 42,36 62,82 61,139l-1 2 -120 0c0,-31 -10,-55 -28,-72 -19,-17 -45,-25 -79,-25 -30,0 -54,7 -71,22 -16,15 -25,34 -25,58 0,21 10,38 28,52 18,14 49,28 93,44 68,19 120,45 156,77 35,31 53,73 53,124 0,54 -21,97 -62,128 -41,31 -96,47 -164,47 -66,0 -123,-17 -171,-51 -47,-34 -71,-84 -69,-151l1 -2 120 0c0,37 10,64 32,82 21,17 51,26 87,26 34,0 59,-7 76,-21 17,-14 26,-33 26,-57zm-3690 -42c0,62 -19,113 -57,153 -38,41 -88,61 -150,61 -61,0 -110,-20 -148,-61 -38,-40 -57,-91 -57,-153l0 -91c0,-61 19,-112 57,-153 38,-40 87,-61 148,-61 61,0 111,21 149,61 39,41 58,92 58,153l0 91zm-99 -91c0,-40 -9,-72 -29,-97 -19,-25 -45,-38 -79,-38 -34,0 -60,13 -79,38 -18,25 -27,57 -27,97l0 91c0,40 9,72 28,98 18,25 45,37 78,37 34,0 61,-12 80,-37 19,-26 28,-58 28,-98l0 -91zm577 91c0,62 -19,113 -57,153 -38,41 -88,61 -149,61 -62,0 -111,-20 -149,-61 -38,-40 -57,-91 -57,-153l0 -91c0,-61 19,-112 57,-153 38,-40 87,-61 148,-61 61,0 111,21 150,61 38,41 57,92 57,153l0 91zm-99 -91c0,-40 -9,-72 -28,-97 -20,-25 -46,-38 -80,-38 -34,0 -60,13 -78,38 -19,25 -28,57 -28,97l0 91c0,40 9,72 28,98 19,25 45,37 79,37 34,0 60,-12 79,-37 19,-26 28,-58 28,-98l0 -91zm277 96l0 202 -99 0 0 -504 171 0c56,0 100,13 132,39 32,26 48,63 48,109 0,26 -7,49 -21,67 -13,19 -33,34 -59,46 30,9 51,23 63,44 13,20 20,46 20,76l0 37c0,14 1,29 5,44 4,16 10,27 19,34l0 8 -102 0c-9,-8 -15,-20 -17,-37 -3,-17 -4,-34 -4,-50l0 -35c0,-25 -7,-45 -20,-59 -14,-14 -33,-21 -58,-21l-78 0zm0 -78l70 0c28,0 48,-6 62,-18 14,-12 20,-30 20,-53 0,-23 -6,-41 -20,-55 -14,-14 -34,-20 -60,-20l-72 0 0 146zm344 280l0 -504 172 0c60,0 110,19 149,59 39,39 59,89 59,151l0 84c0,61 -20,112 -59,151 -39,39 -89,59 -149,59l-172 0zm99 -426l0 348 73 0c32,0 59,-12 79,-37 19,-25 29,-57 29,-95l0 -85c0,-38 -10,-70 -29,-94 -20,-25 -47,-37 -79,-37l-73 0zm466 426l-99 0 0 -504 99 0 0 504zm498 0l-99 0 -200 -340 -2 0 0 340 -99 0 0 -504 99 0 200 339 2 0 0 -339 99 0 0 504zm354 -109l-160 0 -33 109 -104 0 167 -504 101 0 166 504 -103 0 -34 -109zm-135 -79l111 0 -54 -178 -2 0 -55 178zm634 -238l-141 0 0 426 -99 0 0 -426 -139 0 0 -78 379 0 0 78zm337 204l-184 0 0 144 218 0 0 78 -317 0 0 -504 317 0 0 78 -218 0 0 126 184 0 0 78zm1040 222l-99 0 0 -210 -201 0 0 210 -99 0 0 -504 99 0 0 216 201 0 0 -216 99 0 0 504zm355 -109l-160 0 -34 109 -103 0 167 -504 101 0 166 504 -104 0 -33 -109zm-136 -79l112 0 -55 -178 -2 0 -55 178zm420 -14l0 202 -99 0 0 -504 170 0c57,0 101,13 133,39 32,26 47,63 47,109 0,26 -6,49 -20,67 -13,19 -33,34 -59,46 29,9 50,23 63,44 13,20 19,46 19,76l0 37c0,14 2,29 6,44 4,16 10,27 19,34l0 8 -102 0c-9,-8 -15,-20 -17,-37 -3,-17 -4,-34 -4,-50l0 -35c0,-25 -7,-45 -21,-59 -13,-14 -32,-21 -57,-21l-78 0zm0 -78l70 0c28,0 48,-6 62,-18 14,-12 20,-30 20,-53 0,-23 -7,-41 -20,-55 -14,-14 -34,-20 -61,-20l-71 0 0 146zm442 97l0 183 -99 0 0 -504 189 0c57,0 102,14 134,44 33,29 49,68 49,117 0,48 -16,87 -49,116 -32,29 -77,44 -134,44l-90 0zm0 -78l90 0c28,0 49,-8 63,-23 14,-15 21,-35 21,-59 0,-24 -7,-44 -21,-60 -14,-16 -35,-23 -63,-23l-90 0 0 165z"/>
  <path class="fil14" d="M9966 47557l1 2c1,67 -19,120 -61,158 -41,38 -98,57 -171,57 -74,0 -134,-24 -179,-73 -46,-48 -68,-111 -68,-188l0 -125c0,-77 22,-140 66,-189 45,-48 103,-73 175,-73 75,0 134,19 176,56 43,38 63,91 62,159l0 2 -121 0c0,-40 -10,-70 -29,-90 -19,-20 -48,-29 -88,-29 -37,0 -66,15 -87,45 -21,31 -31,70 -31,118l0 126c0,48 11,88 33,118 22,31 52,46 91,46 37,0 65,-10 83,-29 18,-20 28,-50 28,-91l120 0zm4168 44c0,-24 -9,-44 -25,-59 -17,-14 -46,-28 -87,-41 -72,-22 -126,-48 -163,-78 -37,-29 -55,-70 -55,-121 0,-52 21,-94 62,-127 42,-32 95,-49 159,-49 69,0 124,18 166,53 41,35 62,81 60,138l-1 3 -120 0c0,-32 -9,-56 -28,-72 -19,-17 -45,-26 -78,-26 -31,0 -55,8 -71,23 -17,15 -25,34 -25,57 0,22 9,39 27,53 18,14 49,28 94,43 68,20 119,46 155,77 36,32 53,73 53,125 0,54 -20,96 -62,127 -41,32 -95,47 -163,47 -67,0 -124,-17 -171,-50 -48,-34 -71,-85 -70,-151l1 -3 120 0c0,37 11,65 32,82 22,18 51,27 88,27 33,0 58,-8 75,-22 18,-14 27,-33 27,-56zm-3691 -42c0,62 -19,113 -57,153 -38,40 -88,60 -149,60 -61,0 -111,-20 -149,-60 -38,-41 -57,-92 -57,-153l0 -91c0,-62 19,-113 57,-153 38,-41 87,-61 148,-61 61,0 111,20 150,61 38,40 57,91 57,153l0 91zm-98 -92c0,-39 -10,-71 -29,-96 -19,-26 -46,-38 -80,-38 -33,0 -59,12 -78,38 -19,25 -28,57 -28,96l0 92c0,39 9,72 28,97 19,25 45,38 79,38 34,0 60,-13 79,-38 19,-25 29,-58 29,-97l0 -92zm577 92c0,62 -19,113 -58,153 -38,40 -88,60 -149,60 -61,0 -111,-20 -149,-60 -38,-41 -57,-92 -57,-153l0 -91c0,-62 19,-113 57,-153 38,-41 87,-61 148,-61 62,0 111,20 150,61 38,40 58,91 58,153l0 91zm-99 -92c0,-39 -10,-71 -29,-96 -19,-26 -46,-38 -80,-38 -33,0 -59,12 -78,38 -19,25 -28,57 -28,96l0 92c0,39 9,72 28,97 19,25 45,38 79,38 34,0 60,-13 79,-38 19,-25 29,-58 29,-97l0 -92zm276 97l0 201 -99 0 0 -504 171 0c56,0 100,13 132,40 32,26 48,62 48,109 0,26 -7,48 -20,67 -14,19 -33,34 -59,45 29,9 50,24 63,44 13,21 19,46 19,77l0 37c0,14 2,28 6,44 3,15 10,26 19,34l0 7 -102 0c-9,-7 -15,-20 -18,-37 -3,-17 -4,-33 -4,-49l0 -36c0,-25 -7,-44 -20,-58 -13,-14 -32,-21 -57,-21l-79 0zm0 -78l70 0c28,0 49,-6 62,-18 14,-12 21,-30 21,-53 0,-24 -7,-42 -21,-56 -13,-13 -33,-20 -60,-20l-72 0 0 147zm344 279l0 -504 172 0c61,0 110,20 150,59 39,40 58,90 58,152l0 83c0,62 -19,112 -58,151 -40,39 -89,59 -150,59l-172 0zm99 -426l0 349 73 0c33,0 59,-13 79,-38 20,-24 30,-56 30,-95l0 -84c0,-39 -10,-70 -30,-95 -20,-25 -46,-37 -79,-37l-73 0zm467 426l-100 0 0 -504 100 0 0 504zm497 0l-99 0 -199 -340 -2 1 0 339 -99 0 0 -504 99 0 199 340 2 -1 0 -339 99 0 0 504zm355 -109l-161 0 -33 109 -103 0 166 -504 102 0 166 504 -104 0 -33 -109zm-136 -79l112 0 -55 -177 -2 0 -55 177zm634 -238l-141 0 0 426 -99 0 0 -426 -139 0 0 -78 379 0 0 78zm337 205l-183 0 0 144 218 0 0 77 -317 0 0 -504 316 0 0 78 -217 0 0 127 183 0 0 78zm1041 221l-99 0 0 -209 -202 0 0 209 -99 0 0 -504 99 0 0 217 202 0 0 -217 99 0 0 504zm354 -109l-160 0 -33 109 -104 0 167 -504 101 0 166 504 -103 0 -34 -109zm-136 -79l112 0 -54 -177 -2 0 -56 177zm420 -13l0 201 -99 0 0 -504 171 0c56,0 100,13 132,40 32,26 48,62 48,109 0,26 -7,48 -20,67 -14,19 -34,34 -59,45 29,9 50,24 63,44 12,21 19,46 19,77l0 37c0,14 2,28 5,44 4,15 11,26 20,34l0 7 -103 0c-9,-7 -14,-20 -17,-37 -3,-17 -4,-33 -4,-49l0 -36c0,-25 -7,-44 -20,-58 -14,-14 -33,-21 -57,-21l-79 0zm0 -78l70 0c28,0 49,-6 62,-18 14,-12 21,-30 21,-53 0,-24 -7,-42 -21,-56 -14,-13 -34,-20 -60,-20l-72 0 0 147zm443 96l0 183 -99 0 0 -504 189 0c57,0 101,15 134,45 32,29 49,68 49,116 0,48 -17,87 -49,116 -33,30 -77,44 -134,44l-90 0zm0 -77l90 0c27,0 48,-8 62,-23 15,-16 22,-35 22,-59 0,-24 -7,-44 -21,-60 -14,-16 -35,-24 -63,-24l-90 0 0 166z"/>
 </g>
</svg>
