<?xml version="1.0" encoding="UTF-8"?>
<!DOCTYPE svg PUBLIC "-//W3C//DTD SVG 1.1//EN" "http://www.w3.org/Graphics/SVG/1.1/DTD/svg11.dtd">
<!-- Creator: CorelDRAW X7 -->
<svg xmlns="http://www.w3.org/2000/svg" xml:space="preserve" width="37.2663mm" height="25.1547mm" version="1.1" style="shape-rendering:geometricPrecision; text-rendering:geometricPrecision; image-rendering:optimizeQuality; fill-rule:evenodd; clip-rule:evenodd"
viewBox="0 0 949 641"
 xmlns:xlink="http://www.w3.org/1999/xlink">
 <defs>
  <style type="text/css">
   <![CDATA[
    .fil0 {fill:#373435}
    .fil1 {fill:#373435;fill-rule:nonzero}
   ]]>
  </style>
 </defs>
 <g id="Capa_x0020_1">
  <metadata id="CorelCorpID_0Corel-Layer"/>
  <path class="fil0" d="M613 56c-67,-60 -166,-75 -251,-30 -113,59 -158,202 -101,318l0 0 0 0c58,121 205,169 322,108 112,-59 159,-197 111,-315 18,-21 31,-52 17,-74 -19,-30 -72,-23 -98,-7l0 0zm83 16c-12,-19 -55,-12 -73,-1l-55 35 -111 -58c-4,-2 -9,-2 -12,0l-35 22c-3,2 -7,7 -1,13l81 73 -51 32 -42 -15c-2,-1 -5,-1 -8,0l-27 18c-3,2 -2,4 0,6l57 51 22 74c1,3 3,4 6,3l27 -18c3,-1 4,-4 5,-7l3 -44 51 -33 32 104c2,9 9,7 12,5l35 -22c3,-2 5,-7 5,-11l-6 -126 55 -34c18,-12 42,-48 30,-67zm-112 3c-33,-25 -74,-40 -115,-41l-4 -2c-9,-5 -21,-5 -30,0l-7 5c-18,4 -36,10 -52,19 -97,50 -134,175 -83,277 50,101 170,143 269,94l0 1c-106,52 -233,10 -286,-97 -54,-109 -10,-242 97,-298 79,-42 172,-30 238,25l-27 17zm-104 -35c36,1 72,14 102,36l-15 9 -87 -45zm-90 48c-79,42 -109,144 -68,228 42,83 141,120 222,76l1 1c-88,44 -193,9 -237,-80 -46,-92 -9,-205 83,-253 2,-1 4,-2 6,-3 -9,8 -12,20 -7,31zm30 28c-4,2 -8,4 -11,5 -22,12 -40,30 -51,51l-6 4c-11,7 -13,19 -7,29 -7,30 -4,62 11,92 31,63 109,95 171,61l1 1c-73,35 -156,10 -191,-61 -35,-71 -7,-159 63,-199l20 17zm47 217c15,1 30,-2 44,-9l0 0c-17,9 -34,13 -51,13l7 -4zm-88 -97c-1,15 3,31 10,46 8,15 19,28 33,36l2 9c1,2 1,4 2,5 -22,-8 -42,-25 -55,-51 -10,-20 -13,-41 -12,-62l20 17zm75 -89c-10,2 -19,4 -29,9 -2,2 -5,3 -7,5l-14 -5c-6,-2 -12,-2 -18,-1 9,-10 20,-20 34,-27 3,-1 6,-2 8,-4l26 23z"/>
  <path class="fil1" d="M69 609l0 1c0,9 -3,17 -9,22 -6,6 -14,9 -24,9 -11,0 -20,-4 -26,-11 -7,-7 -10,-16 -10,-27l0 -18c0,-11 3,-20 10,-27 6,-7 14,-10 25,-10 11,0 19,2 25,8 6,5 9,13 9,22l0 1 -17 0c0,-6 -2,-10 -5,-13 -2,-3 -7,-5 -12,-5 -6,0 -10,3 -13,7 -3,4 -4,10 -4,17l0 18c0,7 1,13 4,17 4,5 8,7 14,7 5,0 9,-2 12,-5 2,-2 3,-7 3,-13l18 0zm599 7c0,-4 -1,-7 -4,-9 -2,-2 -6,-4 -12,-6 -11,-3 -18,-7 -24,-11 -5,-4 -8,-10 -8,-17 0,-8 3,-14 9,-18 6,-5 14,-7 23,-7 10,0 18,2 24,7 6,5 9,12 9,20l0 0 -18 0c0,-4 -1,-8 -4,-10 -2,-2 -6,-4 -11,-4 -4,0 -8,1 -10,4 -3,2 -4,4 -4,8 0,3 2,5 4,7 3,2 7,4 14,7 9,2 17,6 22,11 5,4 8,10 8,18 0,7 -3,13 -9,18 -6,4 -14,7 -24,7 -9,0 -18,-3 -24,-8 -7,-4 -11,-12 -10,-21l0 -1 17 0c0,6 2,10 5,12 3,3 7,4 12,4 5,0 9,-1 11,-3 3,-2 4,-5 4,-8zm-531 -6c0,9 -2,16 -8,22 -5,5 -12,8 -21,8 -9,0 -16,-3 -22,-8 -5,-6 -8,-13 -8,-22l0 -13c0,-9 3,-17 8,-22 6,-6 13,-9 22,-9 8,0 16,3 21,9 6,5 8,13 8,22l0 13zm-14 -13c0,-6 -1,-11 -4,-14 -3,-4 -7,-6 -11,-6 -5,0 -9,2 -12,6 -2,3 -4,8 -4,14l0 13c0,5 2,10 4,14 3,3 7,5 12,5 5,0 8,-2 11,-5 3,-4 4,-9 4,-14l0 -13zm83 13c0,9 -3,16 -8,22 -6,5 -13,8 -22,8 -8,0 -15,-3 -21,-8 -5,-6 -8,-13 -8,-22l0 -13c0,-9 3,-17 8,-22 5,-6 13,-9 21,-9 9,0 16,3 22,9 5,5 8,13 8,22l0 13zm-14 -13c0,-6 -1,-11 -4,-14 -3,-4 -7,-6 -12,-6 -4,0 -8,2 -11,6 -3,3 -4,8 -4,14l0 13c0,5 1,10 4,14 3,3 7,5 11,5 5,0 9,-2 12,-5 3,-4 4,-9 4,-14l0 -13zm40 13l0 29 -15 0 0 -72 25 0c8,0 14,2 19,6 5,3 7,9 7,15 0,4 -1,7 -3,10 -2,3 -5,5 -9,6 5,2 8,4 10,7 1,3 2,6 2,11l0 5c0,2 1,4 1,6 1,3 2,4 3,5l0 1 -15 0c-1,-1 -2,-2 -2,-5 -1,-2 -1,-5 -1,-7l0 -5c0,-4 -1,-7 -3,-9 -2,-2 -4,-3 -8,-3l-11 0zm0 -11l10 0c4,0 7,-1 9,-2 2,-2 3,-5 3,-8 0,-3 -1,-6 -3,-8 -2,-2 -5,-3 -9,-3l-10 0 0 21zm49 40l0 -72 25 0c9,0 16,3 21,8 6,6 9,13 9,22l0 12c0,9 -3,16 -9,22 -5,6 -12,8 -21,8l-25 0zm14 -61l0 50 11 0c5,0 8,-2 11,-5 3,-4 4,-8 4,-14l0 -12c0,-5 -1,-10 -4,-14 -3,-3 -6,-5 -11,-5l-11 0zm67 61l-14 0 0 -72 14 0 0 72zm72 0l-14 0 -29 -49 0 1 0 48 -15 0 0 -72 15 0 28 49 1 0 0 -49 14 0 0 72zm51 -15l-23 0 -5 15 -15 0 24 -72 15 0 24 72 -15 0 -5 -15zm-20 -12l16 0 -7 -25 -1 0 -8 25zm92 -34l-21 0 0 61 -14 0 0 -61 -20 0 0 -11 55 0 0 11zm48 30l-26 0 0 20 31 0 0 11 -46 0 0 -72 46 0 0 11 -31 0 0 18 26 0 0 12zm150 31l-15 0 0 -30 -29 0 0 30 -14 0 0 -72 14 0 0 31 29 0 0 -31 15 0 0 72zm50 -15l-23 0 -4 15 -15 0 24 -72 14 0 24 72 -15 0 -5 -15zm-19 -12l16 0 -8 -25 0 0 -8 25zm60 -2l0 29 -14 0 0 -72 25 0c8,0 14,2 19,6 4,3 6,9 6,15 0,4 -1,7 -2,10 -2,3 -5,5 -9,6 4,2 7,4 9,7 2,3 3,6 3,11l0 5c0,2 0,4 1,6 0,3 1,4 2,5l0 1 -14 0c-2,-1 -2,-2 -3,-5 0,-2 0,-5 0,-7l0 -5c0,-4 -1,-7 -3,-9 -2,-2 -5,-3 -8,-3l-12 0zm0 -11l10 0c4,0 7,-1 9,-2 2,-2 3,-5 3,-8 0,-3 -1,-6 -3,-8 -2,-2 -5,-3 -8,-3l-11 0 0 21zm64 14l0 26 -14 0 0 -72 27 0c8,0 14,2 19,6 5,5 7,10 7,17 0,7 -2,13 -7,17 -5,4 -11,6 -19,6l-13 0zm0 -11l13 0c4,0 7,-1 9,-3 2,-3 3,-5 3,-9 0,-3 -1,-6 -3,-8 -2,-3 -5,-4 -9,-4l-13 0 0 24z"/>
 </g>
</svg>
