<?xml version="1.0" encoding="UTF-8"?>
<!DOCTYPE svg PUBLIC "-//W3C//DTD SVG 1.1//EN" "http://www.w3.org/Graphics/SVG/1.1/DTD/svg11.dtd">
<!-- Creator: CorelDRAW X7 -->
<svg xmlns="http://www.w3.org/2000/svg" xml:space="preserve" width="99.331mm" height="24.6915mm" version="1.1" style="shape-rendering:geometricPrecision; text-rendering:geometricPrecision; image-rendering:optimizeQuality; fill-rule:evenodd; clip-rule:evenodd"
viewBox="0 0 4766 1185"
 xmlns:xlink="http://www.w3.org/1999/xlink">
 <defs>
  <style type="text/css">
   <![CDATA[
    .fil0 {fill:#373435}
    .fil1 {fill:#373435;fill-rule:nonzero}
   ]]>
  </style>
 </defs>
 <g id="Capa_x0020_1">
  <metadata id="CorelCorpID_0Corel-Layer"/>
  <path class="fil0" d="M935 139c-167,-148 -413,-186 -624,-75 -280,147 -391,500 -249,788l0 0 0 1c144,300 508,417 796,266 278,-146 396,-488 277,-780 45,-52 76,-129 41,-184 -46,-73 -178,-57 -241,-17l0 1zm204 40c-30,-47 -136,-31 -180,-3l-136 86 -277 -144c-8,-4 -21,-5 -29,0l-87 56c-8,4 -18,17 -2,32l201 180 -127 81 -103 -39c-6,-3 -14,-2 -20,2l-68 43c-6,4 -5,10 0,15l142 127 55 183c2,6 7,10 14,6l68 -43c5,-4 10,-11 10,-17l8 -110 128 -81 78 258c6,21 22,17 29,13l88 -56c8,-5 12,-17 12,-27l-14 -311 136 -87c45,-28 104,-117 74,-164zm-278 7c-82,-63 -182,-99 -284,-102l-10 -5c-23,-12 -52,-13 -74,1l-19 12c-44,9 -87,24 -128,46 -240,125 -332,433 -206,687 124,251 421,355 666,234l1 1c-263,130 -578,24 -709,-240 -133,-269 -25,-600 240,-739 197,-104 427,-73 589,62l-66 43zm-257 -88c90,4 178,35 252,91l-35 22 -217 -113zm-222 119c-196,104 -272,357 -169,565 103,207 348,298 550,188l2 4c-219,109 -478,22 -588,-199 -112,-227 -20,-507 205,-626 6,-3 12,-6 17,-8 -24,19 -30,50 -17,76zm72 72c-9,3 -17,7 -26,12 -55,29 -98,73 -127,126l-14 9c-26,16 -31,48 -17,72 -17,73 -10,154 27,228 77,156 270,235 425,151l1 2c-181,86 -387,26 -474,-150 -86,-176 -16,-393 157,-494l48 44zm118 536c36,2 73,-5 108,-22l0 1c-42,20 -84,31 -125,32l17 -11zm-219 -240c-1,38 8,77 26,113 19,38 47,69 80,91l7 22c1,4 3,8 5,12 -57,-20 -105,-62 -136,-126 -25,-50 -34,-103 -30,-155l48 43zm187 -220c-24,3 -48,10 -71,22 -7,4 -14,8 -20,12l-34 -13c-14,-5 -30,-6 -44,-1 23,-27 51,-49 84,-67 7,-4 14,-7 21,-10l64 57z"/>
  <path class="fil1" d="M1827 612l1 1c0,33 -9,58 -29,76 -20,19 -47,28 -82,28 -36,0 -65,-12 -86,-35 -22,-24 -33,-54 -33,-91l0 -60c0,-36 11,-67 32,-90 21,-24 49,-35 84,-35 36,0 64,9 84,27 21,18 31,43 30,76l0 1 -58 0c0,-19 -5,-34 -14,-43 -9,-10 -23,-15 -42,-15 -18,0 -32,8 -42,22 -10,15 -15,34 -15,57l0 60c0,24 5,43 16,57 10,15 25,22 44,22 18,0 31,-5 40,-14 8,-10 13,-24 13,-44l57 0zm2000 21c0,-11 -4,-21 -12,-28 -8,-7 -22,-13 -41,-20 -35,-10 -61,-22 -78,-37 -18,-14 -27,-33 -27,-58 0,-25 10,-45 30,-61 20,-15 45,-23 76,-23 33,0 60,8 80,25 20,17 29,39 29,66l-1 2 -57 0c0,-15 -5,-27 -14,-35 -9,-8 -21,-12 -37,-12 -15,0 -26,3 -34,11 -8,7 -12,16 -12,27 0,10 4,19 13,25 8,7 23,14 45,21 32,10 57,22 74,37 17,15 26,35 26,60 0,26 -10,46 -30,61 -20,15 -46,23 -79,23 -31,0 -59,-8 -82,-25 -23,-16 -34,-40 -33,-72l0 -1 58 0c0,18 5,31 16,39 10,9 24,13 41,13 16,0 28,-4 37,-10 8,-7 12,-16 12,-28zm-1770 -20c0,30 -10,54 -28,74 -18,19 -42,29 -72,29 -29,0 -53,-10 -71,-29 -18,-20 -27,-44 -27,-74l0 -43c0,-30 9,-54 27,-74 18,-19 42,-29 71,-29 29,0 53,10 72,29 18,20 28,44 28,74l0 43zm-48 -44c0,-19 -4,-34 -14,-46 -9,-12 -22,-18 -38,-18 -16,0 -28,6 -37,18 -9,12 -14,27 -14,46l0 44c0,19 5,35 14,47 9,12 21,18 37,18 17,0 29,-6 38,-18 10,-12 14,-28 14,-47l0 -44zm277 44c0,30 -9,54 -27,74 -19,19 -43,29 -72,29 -29,0 -53,-10 -72,-29 -18,-20 -27,-44 -27,-74l0 -43c0,-30 9,-54 27,-74 19,-19 42,-29 72,-29 29,0 53,10 71,29 19,20 28,44 28,74l0 43zm-47 -44c0,-19 -5,-34 -14,-46 -9,-12 -22,-18 -38,-18 -17,0 -29,6 -38,18 -9,12 -13,27 -13,46l0 44c0,19 4,35 13,47 9,12 22,18 38,18 16,0 29,-6 38,-18 9,-12 14,-28 14,-47l0 -44zm132 47l0 96 -47 0 0 -241 82 0c27,0 48,6 63,18 15,13 23,30 23,53 0,12 -3,23 -10,32 -6,9 -16,16 -28,22 14,4 24,11 30,21 6,10 9,22 9,37l0 17c0,7 1,14 3,21 2,8 5,13 9,17l0 3 -49 0c-4,-3 -7,-9 -8,-17 -1,-8 -2,-16 -2,-24l0 -17c0,-12 -3,-22 -10,-28 -6,-7 -15,-10 -27,-10l-38 0zm0 -38l34 0c13,0 23,-3 30,-8 6,-6 9,-15 9,-26 0,-11 -3,-20 -9,-26 -7,-7 -17,-10 -29,-10l-35 0 0 70zm165 134l0 -241 83 0c29,0 53,9 71,28 19,19 29,43 29,73l0 40c0,29 -10,53 -29,72 -18,19 -42,28 -71,28l-83 0zm48 -204l0 167 35 0c15,0 28,-6 38,-18 9,-12 14,-27 14,-45l0 -41c0,-18 -5,-34 -14,-45 -10,-12 -23,-18 -38,-18l-35 0zm224 204l-48 0 0 -241 48 0 0 241zm238 0l-47 0 -96 -163 -1 0 0 163 -47 0 0 -241 47 0 96 162 1 0 0 -162 47 0 0 241zm170 -52l-76 0 -16 52 -50 0 80 -241 49 0 79 241 -49 0 -17 -52zm-65 -38l54 0 -26 -85 -1 0 -27 85zm305 -114l-68 0 0 204 -47 0 0 -204 -67 0 0 -37 182 0 0 37zm161 98l-88 0 0 69 105 0 0 37 -152 0 0 -241 152 0 0 37 -105 0 0 61 88 0 0 37zm500 106l-48 0 0 -100 -96 0 0 100 -48 0 0 -241 48 0 0 103 96 0 0 -103 48 0 0 241zm170 -52l-77 0 -16 52 -50 0 80 -241 49 0 80 241 -50 0 -16 -52zm-65 -38l53 0 -26 -85 -1 0 -26 85zm201 -6l0 96 -48 0 0 -241 82 0c28,0 49,6 64,18 15,13 23,30 23,53 0,12 -3,23 -10,32 -6,9 -16,16 -28,22 14,4 24,11 30,21 6,10 9,22 9,37l0 17c0,7 1,14 3,21 2,8 5,13 9,17l0 3 -49 0c-4,-3 -7,-9 -8,-17 -2,-8 -2,-16 -2,-24l0 -17c0,-12 -3,-22 -10,-28 -6,-7 -15,-10 -27,-10l-38 0zm0 -38l34 0c13,0 23,-3 29,-8 7,-6 10,-15 10,-26 0,-11 -3,-20 -10,-26 -6,-7 -16,-10 -29,-10l-34 0 0 70zm212 47l0 87 -47 0 0 -241 91 0c27,0 48,7 64,21 16,14 23,33 23,56 0,23 -7,41 -23,56 -16,14 -37,21 -64,21l-44 0zm0 -38l44 0c13,0 23,-3 30,-11 6,-7 10,-17 10,-28 0,-12 -3,-21 -10,-29 -7,-7 -17,-11 -30,-11l-44 0 0 79z"/>
 </g>
</svg>
