<?xml version="1.0" encoding="UTF-8"?>
<!DOCTYPE svg PUBLIC "-//W3C//DTD SVG 1.1//EN" "http://www.w3.org/Graphics/SVG/1.1/DTD/svg11.dtd">
<!-- Creator: CorelDRAW X7 -->
<svg xmlns="http://www.w3.org/2000/svg" xml:space="preserve" width="99.331mm" height="24.6915mm" version="1.1" style="shape-rendering:geometricPrecision; text-rendering:geometricPrecision; image-rendering:optimizeQuality; fill-rule:evenodd; clip-rule:evenodd"
viewBox="0 0 6374 1584"
 xmlns:xlink="http://www.w3.org/1999/xlink">
 <defs>
  <style type="text/css">
   <![CDATA[
    .fil0 {fill:#FEFEFE}
    .fil1 {fill:#FEFEFE;fill-rule:nonzero}
   ]]>
  </style>
 </defs>
 <g id="Capa_x0020_1">
  <metadata id="CorelCorpID_0Corel-Layer"/>
  <path class="fil0" d="M1250 185c-222,-197 -552,-247 -834,-99 -374,196 -523,668 -334,1054l0 0 1 1c192,401 680,557 1064,355 372,-195 530,-652 371,-1042 60,-70 102,-174 55,-247 -62,-97 -238,-76 -323,-22l0 0zm273 54c-40,-62 -181,-42 -241,-4l-182 116 -370 -193c-11,-6 -28,-7 -39,0l-116 74c-10,7 -24,24 -2,43l269 241 -171 108 -137 -52c-9,-3 -19,-2 -27,3l-91 58c-9,5 -7,13 0,20l190 170 74 244c3,9 9,14 18,9l91 -58c7,-5 13,-14 14,-23l10 -147 171 -109 104 346c9,27 30,23 40,16l117 -74c11,-7 16,-22 16,-35l-18 -417 181 -116c60,-38 139,-157 99,-220zm-372 9c-109,-84 -242,-132 -379,-136l-14 -7c-30,-16 -69,-16 -99,3l-25 16c-59,11 -116,31 -172,60 -320,168 -443,580 -275,920 166,336 563,474 891,312l1 2c-351,174 -773,32 -948,-322 -177,-359 -34,-802 321,-988 264,-139 570,-97 788,83l-89 57zm-343 -117c120,5 237,47 336,121l-47 30 -289 -151zm-297 159c-262,140 -363,477 -226,756 137,276 465,398 735,251l3 6c-293,145 -640,29 -786,-267 -150,-304 -27,-678 274,-837 8,-4 15,-7 23,-11 -33,26 -41,67 -23,102zm96 96c-11,5 -23,10 -35,16 -74,39 -131,98 -169,168l-19 13c-36,22 -42,64 -22,96 -24,99 -14,207 35,305 103,209 362,315 568,202l1 3c-241,115 -516,34 -632,-201 -117,-235 -23,-526 209,-660l64 58zm158 717c48,3 98,-7 144,-29l1 1c-56,27 -113,42 -168,43l23 -15zm-293 -321c-1,51 10,103 35,152 25,51 62,92 107,120l9 30c2,6 4,11 7,17 -76,-27 -140,-83 -182,-169 -33,-66 -46,-138 -40,-207l64 57zm250 -294c-32,4 -65,14 -95,30 -9,5 -18,10 -26,15l-46 -17c-19,-7 -40,-7 -59,-1 30,-36 68,-66 113,-90 9,-5 18,-9 28,-13l85 76z"/>
  <path class="fil1" d="M2444 819l0 1c1,44 -12,77 -38,102 -27,24 -64,36 -110,36 -48,0 -86,-15 -115,-46 -30,-32 -44,-72 -44,-121l0 -81c0,-49 14,-89 43,-120 28,-32 65,-47 112,-47 48,0 86,12 113,36 27,24 40,58 40,101l-1 2 -77 0c0,-26 -6,-45 -19,-58 -12,-13 -31,-19 -56,-19 -24,0 -43,10 -56,29 -13,20 -20,45 -20,76l0 81c0,31 7,56 21,76 14,19 34,29 59,29 24,0 41,-6 53,-19 12,-12 18,-32 18,-58l77 0zm2674 28c0,-15 -5,-28 -16,-37 -10,-10 -29,-19 -56,-27 -45,-14 -80,-31 -104,-50 -24,-19 -35,-45 -35,-78 0,-33 13,-60 40,-81 26,-21 60,-31 102,-31 44,0 79,11 106,33 26,23 39,53 39,89l-1 2 -77 0c0,-20 -6,-36 -18,-47 -12,-10 -29,-16 -50,-16 -20,0 -35,5 -46,15 -11,9 -16,22 -16,37 0,13 6,24 18,33 11,9 31,18 60,28 43,13 76,29 99,49 23,21 35,47 35,81 0,34 -14,61 -40,81 -27,20 -62,30 -105,30 -43,0 -79,-10 -110,-32 -31,-22 -45,-54 -45,-97l1 -2 77 0c0,24 7,42 21,53 13,11 32,17 56,17 21,0 37,-5 48,-14 12,-9 17,-21 17,-36zm-2368 -27c0,40 -12,73 -37,98 -24,26 -56,39 -95,39 -40,0 -71,-13 -96,-39 -24,-26 -36,-58 -36,-98l0 -58c0,-40 12,-72 36,-98 24,-26 56,-39 95,-39 39,0 72,13 96,39 25,26 37,58 37,98l0 58zm-63 -59c0,-25 -6,-45 -19,-62 -12,-16 -29,-24 -51,-24 -21,0 -38,8 -50,24 -12,17 -18,37 -18,62l0 59c0,26 6,46 18,63 12,16 29,24 51,24 21,0 38,-8 51,-24 12,-17 18,-37 18,-63l0 -59zm370 59c0,40 -12,73 -37,98 -24,26 -56,39 -96,39 -39,0 -71,-13 -95,-39 -24,-26 -37,-58 -37,-98l0 -58c0,-40 13,-72 37,-98 24,-26 56,-39 95,-39 39,0 71,13 96,39 25,26 37,58 37,98l0 58zm-63 -59c0,-25 -7,-45 -19,-62 -12,-16 -29,-24 -51,-24 -21,0 -38,8 -50,24 -12,17 -18,37 -18,62l0 59c0,26 6,46 18,63 12,16 29,24 50,24 22,0 39,-8 51,-24 13,-17 19,-37 19,-63l0 -59zm177 62l0 130 -64 0 0 -324 110 0c36,0 65,9 85,25 20,17 31,41 31,71 0,16 -5,31 -13,43 -9,12 -22,22 -38,29 18,5 32,15 40,28 8,13 12,30 12,49l0 24c0,9 2,18 4,28 2,10 7,17 12,22l0 5 -65 0c-6,-5 -10,-13 -11,-24 -2,-11 -3,-22 -3,-32l0 -23c0,-16 -4,-28 -13,-37 -9,-9 -21,-14 -37,-14l-50 0zm0 -50l45 0c18,0 31,-4 40,-11 9,-8 13,-19 13,-34 0,-15 -5,-27 -13,-36 -9,-8 -22,-13 -39,-13l-46 0 0 94zm221 180l0 -324 110 0c39,0 71,13 96,38 25,25 38,58 38,97l0 54c0,39 -13,72 -38,97 -25,25 -57,38 -96,38l-110 0zm63 -274l0 224 47 0c21,0 38,-8 51,-24 12,-16 19,-36 19,-61l0 -54c0,-25 -7,-45 -19,-61 -13,-16 -30,-24 -51,-24l-47 0zm300 274l-64 0 0 -324 64 0 0 324zm319 0l-64 0 -128 -219 -1 1 0 218 -64 0 0 -324 64 0 128 218 1 0 0 -218 64 0 0 324zm227 -70l-102 0 -22 70 -66 0 107 -324 65 0 106 324 -66 0 -22 -70zm-87 -51l72 0 -35 -114 -2 0 -35 114zm407 -153l-90 0 0 274 -64 0 0 -274 -89 0 0 -50 243 0 0 50zm216 131l-117 0 0 93 140 0 0 50 -204 0 0 -324 203 0 0 50 -139 0 0 81 117 0 0 50zm668 143l-63 0 0 -135 -130 0 0 135 -63 0 0 -324 63 0 0 139 130 0 0 -139 63 0 0 324zm228 -70l-103 0 -21 70 -67 0 107 -324 65 0 107 324 -67 0 -21 -70zm-87 -51l71 0 -35 -114 -1 0 -35 114zm269 -9l0 130 -64 0 0 -324 110 0c36,0 64,9 85,25 20,17 30,41 30,71 0,16 -4,31 -13,43 -8,12 -21,22 -37,29 18,5 32,15 40,28 8,13 12,30 12,49l0 24c0,9 1,18 4,28 2,10 6,17 12,22l0 5 -65 0c-6,-5 -10,-13 -12,-24 -1,-11 -2,-22 -2,-32l0 -23c0,-16 -4,-28 -13,-37 -9,-9 -21,-14 -37,-14l-50 0zm0 -50l45 0c18,0 31,-4 40,-11 8,-8 13,-19 13,-34 0,-15 -5,-27 -14,-36 -8,-8 -21,-13 -38,-13l-46 0 0 94zm284 62l0 118 -64 0 0 -324 122 0c36,0 65,10 86,29 20,19 31,44 31,75 0,30 -11,55 -31,74 -21,19 -50,28 -86,28l-58 0zm0 -50l58 0c17,0 31,-5 40,-14 9,-10 14,-23 14,-38 0,-16 -5,-28 -14,-39 -9,-10 -23,-15 -40,-15l-58 0 0 106z"/>
 </g>
</svg>
