<?xml version="1.0" encoding="UTF-8"?>
<!DOCTYPE svg PUBLIC "-//W3C//DTD SVG 1.1//EN" "http://www.w3.org/Graphics/SVG/1.1/DTD/svg11.dtd">
<!-- Creator: CorelDRAW X7 -->
<svg xmlns="http://www.w3.org/2000/svg" xml:space="preserve" width="37.2663mm" height="25.1547mm" version="1.1" style="shape-rendering:geometricPrecision; text-rendering:geometricPrecision; image-rendering:optimizeQuality; fill-rule:evenodd; clip-rule:evenodd"
viewBox="0 0 3077 2077"
 xmlns:xlink="http://www.w3.org/1999/xlink">
 <defs>
  <style type="text/css">
   <![CDATA[
    .fil1 {fill:#FEFEFE}
    .fil0 {fill:#373435}
    .fil2 {fill:#373435;fill-rule:nonzero}
   ]]>
  </style>
 </defs>
 <g id="Capa_x0020_1">
  <metadata id="CorelCorpID_0Corel-Layer"/>
  <path class="fil0" d="M1989 181c-218,-193 -540,-242 -816,-97 -366,192 -512,654 -327,1031l0 0 1 1c188,392 665,546 1041,348 364,-191 519,-638 363,-1020 59,-68 99,-170 54,-241 -61,-95 -234,-75 -316,-22l0 0z"/>
  <path class="fil1" d="M2256 234c-40,-61 -177,-41 -236,-4l-178 113 -362 -188c-11,-6 -27,-7 -38,-1l-114 73c-10,6 -23,23 -2,42l263 235 -167 107 -134 -52c-8,-3 -19,-1 -26,3l-89 57c-9,5 -7,13 0,20l186 166 72 239c3,9 9,14 17,8l89 -56c8,-5 14,-14 14,-23l11 -143 167 -107 102 339c8,26 28,22 38,16l114 -73c11,-7 17,-22 16,-35l-17 -408 177 -113c59,-37 136,-153 97,-215z"/>
  <path class="fil1" d="M1892 243c-107,-82 -237,-129 -371,-133l-14 -7c-29,-16 -67,-16 -96,2l-25 16c-57,11 -114,31 -168,59 -313,165 -434,567 -270,900 163,328 551,464 873,305l1 2c-344,170 -757,32 -928,-315 -174,-351 -33,-784 314,-967 258,-135 558,-94 771,82l-87 56z"/>
  <path class="fil1" d="M1557 129c117,4 231,46 328,118l-46 29 -282 -147z"/>
  <path class="fil1" d="M1265 284c-256,136 -355,467 -220,739 134,271 454,389 719,246l2 6c-286,142 -625,28 -768,-261 -147,-297 -27,-664 268,-819 7,-4 15,-8 22,-11 -32,25 -39,66 -23,100z"/>
  <path class="fil1" d="M1360 378c-12,4 -23,10 -34,16 -73,38 -129,96 -166,164l-19 12c-34,22 -41,63 -22,95 -22,96 -13,202 35,298 101,204 354,308 556,198l1 2c-235,113 -505,34 -619,-196 -114,-230 -22,-515 205,-646l63 57z"/>
  <path class="fil1" d="M1514 1080c48,2 96,-7 141,-29l1 1c-55,27 -111,40 -164,42l22 -14z"/>
  <path class="fil1" d="M1227 765c0,50 11,101 34,149 25,50 62,89 105,118l9 29c2,5 4,11 7,16 -74,-26 -137,-81 -178,-165 -32,-65 -45,-135 -39,-202l62 55z"/>
  <path class="fil1" d="M1472 478c-32,4 -63,13 -93,29 -9,4 -17,9 -26,15l-44 -17c-19,-7 -39,-7 -58,-1 30,-35 67,-65 111,-88 8,-5 18,-9 27,-13l83 75z"/>
  <path class="fil2" d="M223 1975l0 2c1,31 -9,55 -28,73 -19,18 -46,27 -80,27 -34,0 -62,-12 -83,-34 -21,-23 -32,-52 -32,-88l0 -58c0,-36 10,-65 31,-88 21,-23 48,-34 81,-34 36,0 63,9 83,26 19,18 29,42 29,74l-1 1 -56 0c0,-19 -4,-33 -13,-42 -9,-9 -23,-14 -42,-14 -17,0 -30,7 -40,21 -10,15 -14,33 -14,55l0 59c0,23 5,41 15,55 10,15 24,22 42,22 18,0 31,-5 39,-14 9,-9 13,-24 13,-43l56 0zm1942 21c0,-11 -4,-20 -12,-27 -7,-7 -21,-14 -40,-20 -34,-10 -59,-22 -76,-36 -17,-14 -26,-32 -26,-56 0,-24 10,-44 29,-59 20,-16 44,-23 74,-23 32,0 58,8 77,24 20,17 29,38 29,65l-1 1 -56 0c0,-15 -4,-26 -13,-34 -9,-8 -21,-11 -36,-11 -15,0 -26,3 -33,10 -8,7 -12,16 -12,27 0,10 4,18 13,24 8,7 23,13 43,21 32,9 56,21 73,35 16,15 25,34 25,59 0,25 -10,44 -29,59 -20,15 -45,22 -77,22 -31,0 -57,-8 -79,-24 -23,-16 -33,-39 -33,-70l1 -1 56 0c0,17 5,30 15,38 10,8 23,12 40,12 16,0 28,-3 36,-10 8,-6 12,-15 12,-26zm-1720 -20c0,29 -8,53 -26,72 -18,19 -41,28 -70,28 -28,0 -51,-9 -69,-28 -18,-19 -27,-43 -27,-72l0 -42c0,-29 9,-52 27,-71 17,-19 40,-29 69,-29 28,0 52,10 70,29 17,19 26,42 26,71l0 42zm-46 -42c0,-19 -4,-34 -13,-45 -9,-12 -21,-18 -37,-18 -16,0 -28,6 -37,18 -8,11 -13,26 -13,45l0 42c0,19 5,34 13,46 9,11 21,17 37,17 16,0 28,-6 37,-17 9,-12 13,-27 13,-46l0 -42zm269 42c0,29 -9,53 -26,72 -18,19 -42,28 -70,28 -29,0 -52,-9 -69,-28 -18,-19 -27,-43 -27,-72l0 -42c0,-29 9,-52 27,-71 17,-19 40,-29 69,-29 28,0 51,10 69,29 18,19 27,42 27,71l0 42zm-46 -42c0,-19 -4,-34 -13,-45 -9,-12 -22,-18 -37,-18 -16,0 -28,6 -37,18 -9,11 -13,26 -13,45l0 42c0,19 4,34 13,46 9,11 21,17 37,17 16,0 28,-6 37,-17 9,-12 13,-27 13,-46l0 -42zm129 45l0 94 -46 0 0 -235 79 0c27,0 47,6 62,18 15,12 22,29 22,51 0,12 -3,23 -9,31 -6,9 -16,16 -28,21 14,5 24,11 30,21 6,10 9,21 9,35l0 18c0,6 1,13 2,20 2,7 5,13 9,16l0 4 -47 0c-5,-4 -7,-10 -9,-18 -1,-7 -1,-15 -1,-23l0 -16c0,-12 -3,-21 -10,-28 -6,-6 -15,-9 -26,-9l-37 0zm0 -37l33 0c13,0 22,-2 29,-8 6,-6 9,-14 9,-25 0,-11 -3,-19 -10,-25 -6,-7 -15,-10 -28,-10l-33 0 0 68zm160 131l0 -235 80 0c29,0 52,9 70,27 18,19 27,42 27,71l0 39c0,28 -9,52 -27,70 -18,18 -41,28 -70,28l-80 0zm46 -199l0 162 34 0c16,0 28,-5 37,-17 9,-11 14,-26 14,-44l0 -40c0,-17 -5,-32 -14,-44 -9,-11 -21,-17 -37,-17l-34 0zm218 199l-46 0 0 -235 46 0 0 235zm232 0l-47 0 -92 -159 -1 0 0 159 -47 0 0 -235 47 0 92 158 1 0 0 -158 47 0 0 235zm165 -51l-75 0 -15 51 -49 0 78 -235 47 0 78 235 -49 0 -15 -51zm-64 -37l52 0 -25 -83 -1 0 -26 83zm296 -111l-66 0 0 199 -46 0 0 -199 -65 0 0 -36 177 0 0 36zm157 95l-85 0 0 67 101 0 0 37 -148 0 0 -235 148 0 0 36 -101 0 0 59 85 0 0 36zm485 104l-46 0 0 -98 -94 0 0 98 -46 0 0 -235 46 0 0 101 94 0 0 -101 46 0 0 235zm165 -51l-75 0 -15 51 -48 0 77 -235 48 0 77 235 -48 0 -16 -51zm-63 -37l52 0 -26 -83 -1 0 -25 83zm195 -6l0 94 -46 0 0 -235 80 0c26,0 47,6 61,18 15,12 23,29 23,51 0,12 -4,23 -10,31 -6,9 -15,16 -27,21 13,5 23,11 29,21 6,10 9,21 9,35l0 18c0,6 1,13 3,20 1,7 4,13 9,16l0 4 -48 0c-4,-4 -7,-10 -8,-18 -1,-7 -2,-15 -2,-23l0 -16c0,-12 -3,-21 -9,-28 -7,-6 -16,-9 -27,-9l-37 0zm0 -37l33 0c13,0 23,-2 29,-8 6,-6 9,-14 9,-25 0,-11 -3,-19 -9,-25 -7,-7 -16,-10 -28,-10l-34 0 0 68zm207 45l0 86 -47 0 0 -235 88 0c27,0 48,7 63,20 15,14 23,32 23,55 0,22 -8,40 -23,54 -15,14 -36,20 -63,20l-41 0zm0 -36l41 0c13,0 23,-3 30,-11 6,-7 10,-16 10,-27 0,-11 -4,-21 -10,-28 -7,-7 -17,-11 -30,-11l-41 0 0 77z"/>
 </g>
</svg>
