<?xml version="1.0" encoding="UTF-8"?>
<!DOCTYPE svg PUBLIC "-//W3C//DTD SVG 1.1//EN" "http://www.w3.org/Graphics/SVG/1.1/DTD/svg11.dtd">
<!-- Creator: CorelDRAW X7 -->
<svg xmlns="http://www.w3.org/2000/svg" xml:space="preserve" width="37.2663mm" height="25.1547mm" version="1.1" style="shape-rendering:geometricPrecision; text-rendering:geometricPrecision; image-rendering:optimizeQuality; fill-rule:evenodd; clip-rule:evenodd"
viewBox="0 0 1494 1009"
 xmlns:xlink="http://www.w3.org/1999/xlink">
 <defs>
  <style type="text/css">
   <![CDATA[
    .fil0 {fill:#FEFEFE}
    .fil1 {fill:#FEFEFE;fill-rule:nonzero}
   ]]>
  </style>
 </defs>
 <g id="Capa_x0020_1">
  <metadata id="CorelCorpID_0Corel-Layer"/>
  <path class="fil0" d="M966 88c-106,-94 -262,-118 -396,-47 -178,93 -249,317 -159,501l0 0 0 0c92,191 323,265 506,169 177,-93 252,-310 176,-495 29,-33 49,-83 26,-117 -29,-47 -113,-37 -153,-11l0 0zm130 26c-19,-30 -86,-20 -115,-2l-86 55 -176 -92c-5,-3 -13,-3 -18,0l-56 35c-5,3 -11,12 -1,21l128 114 -81 52 -65 -25c-4,-2 -10,-1 -13,1l-43 28c-5,2 -4,6 0,9l90 81 35 116c1,4 4,7 8,4l44 -27c3,-3 6,-7 6,-11l6 -70 81 -52 49 165c4,13 14,10 19,7l55 -35c6,-3 8,-11 8,-17l-8 -198 86 -55c28,-18 66,-74 47,-104zm-177 4c-52,-40 -115,-63 -180,-65l-7 -3c-14,-8 -33,-8 -47,1l-12 8c-28,5 -55,15 -81,29 -153,79 -211,275 -131,436 79,160 267,226 423,149l1 1c-167,82 -368,15 -451,-153 -84,-171 -16,-381 153,-470 125,-66 271,-46 374,40l-42 27zm-163 -56c57,3 113,23 160,58l-23 14 -137 -72zm-141 76c-125,66 -173,227 -107,359 64,131 220,189 349,120l1 2c-139,69 -304,14 -373,-127 -72,-144 -13,-322 130,-397 4,-2 7,-4 11,-6 -16,13 -20,32 -11,49zm46 45c-6,3 -12,5 -17,8 -35,19 -63,47 -81,80l-9 6c-16,11 -20,30 -10,46 -11,47 -7,98 17,145 49,99 171,149 270,96l0 1c-114,55 -245,16 -301,-95 -55,-112 -10,-250 100,-314l31 27zm74 341c23,2 47,-3 69,-14l0 1c-26,13 -53,20 -79,20l10 -7zm-139 -152c0,24 5,49 17,72 12,24 29,43 51,57l4 14c1,3 2,6 3,8 -36,-13 -66,-39 -86,-80 -16,-32 -22,-66 -19,-98l30 27zm119 -140c-15,2 -31,6 -45,14 -5,2 -9,5 -13,8l-21 -9c-9,-3 -19,-3 -28,0 14,-17 32,-32 53,-43 5,-2 9,-4 13,-6l41 36z"/>
  <path class="fil1" d="M108 959l0 1c1,15 -4,27 -13,36 -10,8 -22,13 -39,13 -17,0 -30,-6 -41,-17 -10,-11 -15,-25 -15,-42l0 -29c0,-17 5,-31 15,-42 10,-11 23,-17 40,-17 17,0 30,4 40,13 9,8 14,20 14,36l-1 0 -27 0c0,-9 -2,-16 -6,-20 -5,-5 -11,-7 -20,-7 -9,0 -15,4 -20,10 -5,7 -7,16 -7,27l0 29c0,11 2,20 7,26 5,7 12,11 21,11 8,0 15,-2 19,-7 4,-4 6,-11 6,-21l27 0zm943 10c0,-5 -1,-9 -5,-13 -4,-3 -10,-6 -20,-9 -16,-5 -28,-11 -37,-18 -8,-6 -12,-16 -12,-27 0,-12 5,-21 14,-29 9,-7 21,-11 36,-11 16,0 28,4 37,12 10,8 14,18 14,31l0 1 -27 0c0,-7 -2,-13 -7,-16 -4,-4 -10,-6 -17,-6 -7,0 -13,1 -16,5 -4,3 -6,8 -6,13 0,5 2,9 6,12 4,3 11,6 21,10 16,4 27,10 35,17 9,7 13,17 13,28 0,12 -5,22 -14,29 -10,7 -22,11 -38,11 -15,0 -28,-4 -38,-12 -11,-7 -16,-19 -16,-34l0 0 27 0c0,8 3,14 8,18 5,4 11,6 19,6 8,0 14,-2 18,-5 4,-3 5,-7 5,-13zm-835 -9c0,14 -4,26 -13,35 -8,9 -20,13 -33,13 -14,0 -25,-4 -34,-13 -9,-10 -13,-21 -13,-35l0 -21c0,-14 4,-25 13,-34 8,-9 20,-14 33,-14 14,0 26,5 34,14 9,9 13,20 13,34l0 21zm-22 -21c0,-9 -2,-16 -7,-22 -4,-5 -10,-8 -18,-8 -7,0 -13,3 -17,8 -5,6 -7,13 -7,22l0 21c0,9 3,16 7,22 4,6 10,9 18,9 7,0 13,-3 18,-9 4,-6 6,-13 6,-22l0 -21zm131 21c0,14 -5,26 -13,35 -9,9 -20,13 -34,13 -14,0 -25,-4 -34,-13 -8,-10 -13,-21 -13,-35l0 -21c0,-14 5,-25 13,-34 9,-9 20,-14 34,-14 14,0 25,5 34,14 8,9 13,20 13,34l0 21zm-23 -21c0,-9 -2,-16 -6,-22 -5,-5 -11,-8 -18,-8 -8,0 -14,3 -18,8 -4,6 -6,13 -6,22l0 21c0,9 2,16 6,22 4,6 10,9 18,9 7,0 13,-3 18,-9 4,-6 6,-13 6,-22l0 -21zm63 22l0 46 -23 0 0 -114 39 0c13,0 23,3 30,9 7,5 11,14 11,24 0,6 -2,11 -5,15 -3,5 -7,8 -13,11 6,2 11,5 14,10 3,4 4,10 4,17l0 8c0,3 1,7 2,10 1,4 2,6 4,8l0 2 -23 0c-2,-2 -3,-5 -4,-9 -1,-3 -1,-7 -1,-11l0 -8c0,-6 -1,-10 -5,-13 -3,-3 -7,-5 -12,-5l-18 0zm0 -18l16 0c6,0 11,-1 14,-4 3,-2 4,-6 4,-12 0,-5 -1,-9 -4,-12 -3,-3 -8,-5 -14,-5l-16 0 0 33zm78 64l0 -114 39 0c13,0 24,4 33,13 9,9 14,20 14,34l0 19c0,14 -5,26 -14,34 -9,9 -20,14 -33,14l-39 0zm22 -97l0 79 17 0c7,0 13,-3 17,-8 5,-6 7,-13 7,-22l0 -19c0,-9 -2,-16 -7,-21 -4,-6 -10,-9 -17,-9l-17 0zm106 97l-23 0 0 -114 23 0 0 114zm112 0l-22 0 -45 -77 -1 0 0 77 -22 0 0 -114 22 0 45 76 1 0 0 -76 22 0 0 114zm80 -25l-36 0 -7 25 -24 0 38 -114 23 0 37 114 -23 0 -8 -25zm-30 -18l25 0 -12 -40 -1 0 -12 40zm143 -54l-32 0 0 97 -22 0 0 -97 -32 0 0 -17 86 0 0 17zm76 47l-41 0 0 32 49 0 0 18 -71 0 0 -114 71 0 0 17 -49 0 0 29 41 0 0 18zm236 50l-22 0 0 -48 -46 0 0 48 -22 0 0 -114 22 0 0 49 46 0 0 -49 22 0 0 114zm80 -25l-36 0 -8 25 -23 0 38 -114 23 0 37 114 -23 0 -8 -25zm-30 -18l25 0 -13 -40 0 0 -12 40zm94 -3l0 46 -22 0 0 -114 39 0c12,0 22,3 30,9 7,5 10,14 10,24 0,6 -1,11 -4,15 -3,5 -8,8 -13,11 6,2 11,5 14,10 3,4 4,10 4,17l0 8c0,3 1,7 1,10 1,4 3,6 5,8l0 2 -23 0c-2,-2 -4,-5 -4,-9 -1,-3 -1,-7 -1,-11l0 -8c0,-6 -2,-10 -5,-13 -3,-3 -7,-5 -13,-5l-18 0zm0 -18l16 0c7,0 11,-1 14,-4 3,-2 5,-6 5,-12 0,-5 -2,-9 -5,-12 -3,-3 -7,-5 -13,-5l-17 0 0 33zm101 22l0 42 -23 0 0 -114 43 0c13,0 23,3 30,10 8,6 11,15 11,26 0,11 -3,20 -11,26 -7,7 -17,10 -30,10l-20 0zm0 -17l20 0c6,0 11,-2 14,-6 3,-3 5,-7 5,-13 0,-5 -2,-10 -5,-13 -3,-4 -8,-6 -14,-6l-20 0 0 38z"/>
 </g>
</svg>
